<svg width="20" height="20" viewBox="0 0 20 20" fill="none" xmlns="http://www.w3.org/2000/svg">
<g id="suggest/add">
<g id="Union">
<path d="M10.8749 17.5625C10.8749 17.7006 10.763 17.8125 10.6249 17.8125H9.37494C9.23687 17.8125 9.12494 17.7006 9.12494 17.5625V10.875H2.4375C2.29943 10.875 2.1875 10.7631 2.1875 10.625V9.37501C2.1875 9.23694 2.29943 9.12501 2.4375 9.12501H9.12494V2.4375C9.12494 2.29943 9.23687 2.1875 9.37494 2.1875H10.6249C10.763 2.1875 10.8749 2.29943 10.8749 2.4375V9.12501H17.5625C17.7006 9.12501 17.8125 9.23694 17.8125 9.37501V10.625C17.8125 10.7631 17.7006 10.875 17.5625 10.875H10.8749V17.5625Z" fill="#285EFF"/>
</g>
</g>
</svg>
