<svg width="12" height="12" viewBox="0 0 12 12" fill="none" xmlns="http://www.w3.org/2000/svg">
<path d="M0.937472 5.73468C0.791025 5.88113 0.791025 6.11857 0.937472 6.26501L4.27855 9.60609C4.33713 9.66467 4.4321 9.66467 4.49068 9.60609L5.02101 9.07576C5.07959 9.01718 5.07959 8.92221 5.02101 8.86363L2.68222 6.52484H11.0225C11.1053 6.52484 11.1725 6.45769 11.1725 6.37484V5.62484C11.1725 5.542 11.1053 5.47484 11.0225 5.47484H2.68269L5.02153 3.13601C5.08011 3.07743 5.08011 2.98245 5.02153 2.92387L4.4912 2.39354C4.43262 2.33496 4.33765 2.33496 4.27907 2.39354L0.937472 5.73468Z" fill="#808080"/>
</svg>
