<svg width="64" height="64" viewBox="0 0 64 64" fill="none" xmlns="http://www.w3.org/2000/svg">
<g id="check-filled">
<g id="Subtract">
<path d="M60 32C60 47.464 47.464 60 32 60C16.536 60 4 47.464 4 32C4 16.536 16.536 4 32 4C47.464 4 60 16.536 60 32ZM28.6905 42.131C29.2208 42.1458 29.756 41.9508 30.1608 41.546L46.5657 25.1411C46.8781 24.8287 46.8781 24.3222 46.5657 24.0097L44.1615 21.6056C43.8491 21.2932 43.3426 21.2932 43.0301 21.6056L28.7445 35.8912L20.9701 28.1168C20.6576 27.8044 20.1511 27.8044 19.8387 28.1168L17.4345 30.521C17.1221 30.8334 17.1221 31.3399 17.4345 31.6523L27.3281 41.5459C27.7054 41.9232 28.196 42.1183 28.6905 42.131Z" fill="#00B73E"/>
</g>
</g>
</svg>
