<svg width="21" height="20" viewBox="0 0 21 20" fill="none" xmlns="http://www.w3.org/2000/svg">
<g id="check-filled">
<g id="Subtract">
<path d="M19.25 10C19.25 14.8325 15.3325 18.75 10.5 18.75C5.66751 18.75 1.75 14.8325 1.75 10C1.75 5.16751 5.66751 1.25 10.5 1.25C15.3325 1.25 19.25 5.16751 19.25 10ZM9.46577 13.1659C9.63152 13.1706 9.79875 13.1096 9.92525 12.9831L15.0518 7.8566C15.1494 7.75897 15.1494 7.60068 15.0518 7.50304L14.3005 6.75174C14.2028 6.65411 14.0445 6.65411 13.9469 6.75174L9.48265 11.216L7.05314 8.7865C6.95551 8.68887 6.79722 8.68887 6.69959 8.7865L5.94829 9.5378C5.85066 9.63543 5.85066 9.79372 5.94829 9.89135L9.04003 12.9831C9.15795 13.101 9.31126 13.162 9.46577 13.1659Z" fill="#00B73E"/>
</g>
</g>
</svg>
