<svg width="20" height="20" viewBox="0 0 20 20" fill="none" xmlns="http://www.w3.org/2000/svg">
<g id="suggest/close">
<g id="Union">
<path d="M4.60832 16.6291C4.51069 16.7267 4.3524 16.7267 4.25477 16.6291L3.37088 15.7452C3.27325 15.6476 3.27325 15.4893 3.37088 15.3917L8.76253 10L3.37083 4.60832C3.2732 4.51069 3.2732 4.3524 3.37083 4.25477L4.25471 3.37089C4.35235 3.27326 4.51064 3.27325 4.60827 3.37089L9.99997 8.76259L15.3917 3.37086C15.4893 3.27323 15.6476 3.27323 15.7452 3.37086L16.6291 4.25475C16.7268 4.35238 16.7268 4.51067 16.6291 4.6083L11.2374 10L16.6291 15.3917C16.7267 15.4893 16.7267 15.6476 16.6291 15.7453L15.7452 16.6291C15.6476 16.7268 15.4893 16.7268 15.3916 16.6291L9.99997 11.2375L4.60832 16.6291Z" fill="#1A1A1A"/>
</g>
</g>
</svg>
