<svg width="17" height="16" viewBox="0 0 17 16" fill="none" xmlns="http://www.w3.org/2000/svg">
<g id="suggest/close">
<g id="Union">
<path d="M4.18675 13.3033C4.10865 13.3814 3.98201 13.3814 3.90391 13.3033L3.1968 12.5962C3.1187 12.5181 3.1187 12.3914 3.1968 12.3133L7.51012 8L3.19676 3.68664C3.11866 3.60854 3.11866 3.4819 3.19676 3.4038L3.90387 2.69669C3.98197 2.61859 4.10861 2.61859 4.18671 2.69669L8.50007 7.01005L12.8135 2.69667C12.8916 2.61857 13.0182 2.61857 13.0963 2.69667L13.8034 3.40378C13.8815 3.48188 13.8815 3.60852 13.8034 3.68662L9.49002 8L13.8034 12.3133C13.8815 12.3914 13.8815 12.5181 13.8034 12.5962L13.0963 13.3033C13.0182 13.3814 12.8915 13.3814 12.8134 13.3033L8.50007 8.98995L4.18675 13.3033Z" fill="#808080"/>
</g>
</g>
</svg>
