<svg width="12" height="12" viewBox="0 0 12 12" fill="none" xmlns="http://www.w3.org/2000/svg">
<g id="close-filled">
<g id="Subtract">
<path d="M11.25 6C11.25 8.89949 8.8995 11.25 6 11.25C3.10051 11.25 0.75 8.89949 0.75 6C0.75 3.1005 3.10051 0.75 6 0.75C8.8995 0.75 11.25 3.1005 11.25 6ZM3.9185 4.36921C3.85993 4.42779 3.85993 4.52277 3.9185 4.58135L5.33718 6.00002L3.91853 7.41867C3.85995 7.47725 3.85995 7.57223 3.91853 7.63081L4.36931 8.08159C4.42789 8.14017 4.52286 8.14017 4.58144 8.08159L6.00009 6.66293L7.41868 8.08152C7.47726 8.1401 7.57224 8.1401 7.63082 8.08152L8.0816 7.63074C8.14017 7.57217 8.14017 7.47719 8.0816 7.41861L6.663 6.00002L8.08162 4.58141C8.1402 4.52283 8.1402 4.42785 8.08162 4.36928L7.63084 3.9185C7.57226 3.85992 7.47728 3.85992 7.4187 3.9185L6.00009 5.33711L4.58142 3.91843C4.52284 3.85986 4.42786 3.85986 4.36929 3.91843L3.9185 4.36921Z" fill="#F53F3F"/>
</g>
</g>
</svg>
