<svg width="12" height="12" viewBox="0 0 12 12" fill="none" xmlns="http://www.w3.org/2000/svg">
<g id="Group 2536">
<g id="Union">
<path d="M2.76494 9.97746C2.70636 10.036 2.61139 10.036 2.55281 9.97746L2.02248 9.44713C1.9639 9.38855 1.9639 9.29358 2.02248 9.235L5.25747 6.00001L2.02245 2.76499C1.96387 2.70641 1.96387 2.61143 2.02245 2.55286L2.55278 2.02253C2.61136 1.96395 2.70633 1.96395 2.76491 2.02253L5.99993 5.25755L9.23497 2.02251C9.29355 1.96393 9.38852 1.96393 9.4471 2.02251L9.97743 2.55284C10.036 2.61142 10.036 2.70639 9.97743 2.76497L6.7424 6.00001L9.9774 9.23501C10.036 9.29359 10.036 9.38857 9.9774 9.44715L9.44707 9.97748C9.38849 10.0361 9.29352 10.0361 9.23494 9.97748L5.99993 6.74247L2.76494 9.97746Z" fill="#808080"/>
</g>
</g>
</svg>
