<svg width="56" height="56" viewBox="0 0 56 56" fill="none" xmlns="http://www.w3.org/2000/svg">
<rect width="56" height="56" rx="28" fill="#E3ECFF"/>
<path d="M49.7777 28.0004C49.7777 40.028 40.0275 49.7782 27.9999 49.7782C15.9724 49.7782 6.22217 40.028 6.22217 28.0004C6.22217 15.9729 15.9724 6.22266 27.9999 6.22266C40.0275 6.22266 49.7777 15.9729 49.7777 28.0004Z" fill="#0060FF"/>
<mask id="mask0_11714_12627" style="mask-type:alpha" maskUnits="userSpaceOnUse" x="14" y="14" width="29" height="29">
<rect x="14.3515" y="14.1802" width="28" height="28" fill="#D9D9D9"/>
</mask>
<g mask="url(#mask0_11714_12627)">
<path d="M20.1848 36.3468V20.0135V33.2552V30.776V36.3468ZM20.1848 38.6802C19.5432 38.6802 18.9939 38.4517 18.5369 37.9948C18.08 37.5378 17.8515 36.9885 17.8515 36.3468V20.0135C17.8515 19.3718 18.08 18.8225 18.5369 18.3656C18.9939 17.9086 19.5432 17.6802 20.1848 17.6802H36.5182C37.1598 17.6802 37.7091 17.9086 38.1661 18.3656C38.623 18.8225 38.8515 19.3718 38.8515 20.0135V29.3468H36.5182V20.0135H20.1848V36.3468H28.3515V38.6802H20.1848ZM34.5932 39.8468L30.4515 35.7052L32.114 34.0718L34.5932 36.551L39.5515 31.5927L41.1848 33.2552L34.5932 39.8468ZM23.6848 29.3468C24.0154 29.3468 24.2925 29.235 24.5161 29.0114C24.7397 28.7878 24.8515 28.5107 24.8515 28.1802C24.8515 27.8496 24.7397 27.5725 24.5161 27.3489C24.2925 27.1253 24.0154 27.0135 23.6848 27.0135C23.3543 27.0135 23.0772 27.1253 22.8536 27.3489C22.63 27.5725 22.5182 27.8496 22.5182 28.1802C22.5182 28.5107 22.63 28.7878 22.8536 29.0114C23.0772 29.235 23.3543 29.3468 23.6848 29.3468ZM23.6848 24.6802C24.0154 24.6802 24.2925 24.5684 24.5161 24.3448C24.7397 24.1211 24.8515 23.8441 24.8515 23.5135C24.8515 23.183 24.7397 22.9059 24.5161 22.6823C24.2925 22.4586 24.0154 22.3468 23.6848 22.3468C23.3543 22.3468 23.0772 22.4586 22.8536 22.6823C22.63 22.9059 22.5182 23.183 22.5182 23.5135C22.5182 23.8441 22.63 24.1211 22.8536 24.3448C23.0772 24.5684 23.3543 24.6802 23.6848 24.6802ZM27.1848 29.3468H34.1848V27.0135H27.1848V29.3468ZM27.1848 24.6802H34.1848V22.3468H27.1848V24.6802Z" fill="white"/>
</g>
</svg>
