<svg width="20" height="20" viewBox="0 0 20 20" fill="none" xmlns="http://www.w3.org/2000/svg">
<g id="chat/group">
<g id="Union">
<path d="M12.4242 8.125C11.3024 8.125 10.3929 7.21558 10.3929 6.09375C10.3929 4.97192 11.3024 4.0625 12.4242 4.0625C13.546 4.0625 14.4554 4.97192 14.4554 6.09375C14.4554 7.21558 13.546 8.125 12.4242 8.125ZM12.4242 9.6875C14.409 9.6875 16.0179 8.07852 16.0179 6.09375C16.0179 4.10898 14.409 2.5 12.4242 2.5C10.4394 2.5 8.83044 4.10898 8.83044 6.09375C8.83044 8.07852 10.4394 9.6875 12.4242 9.6875ZM6.12949 7.13806C6.12949 6.62029 5.70975 6.20056 5.19199 6.20056C4.67422 6.20056 4.25449 6.62029 4.25449 7.13806C4.25449 7.65583 4.67422 8.07556 5.19199 8.07556C5.70975 8.07556 6.12949 7.65583 6.12949 7.13806ZM7.69199 7.13806C7.69199 8.51877 6.5727 9.63806 5.19199 9.63806C3.81127 9.63806 2.69199 8.51877 2.69199 7.13806C2.69199 5.75735 3.81127 4.63806 5.19199 4.63806C6.5727 4.63806 7.69199 5.75735 7.69199 7.13806ZM2.10742 15.3125H4.57248V16.875H1.16992C0.824744 16.875 0.544922 16.5951 0.544922 16.25V13.2934C0.544922 12.8492 0.78566 12.4398 1.1739 12.2239C2.25383 11.6232 3.39873 11.1896 4.57248 10.923V12.5311C3.72506 12.752 2.89739 13.0731 2.10742 13.4946V15.3125ZM7.26794 15.9375H17.5804V14.1099C14.3648 12.3658 10.4836 12.3658 7.26794 14.1099V15.9375ZM5.70544 13.8843C5.70544 13.4605 5.93292 13.0693 6.30126 12.8596C10.0974 10.6992 14.751 10.6992 18.5471 12.8596C18.9155 13.0693 19.1429 13.4605 19.1429 13.8843V16.875C19.1429 17.2202 18.8631 17.5 18.5179 17.5H6.33044C5.98527 17.5 5.70544 17.2202 5.70544 16.875V13.8843Z" fill="#55585E"/>
</g>
</g>
</svg>
