<svg width="56" height="56" viewBox="0 0 56 56" fill="none" xmlns="http://www.w3.org/2000/svg">
<rect width="56" height="56" rx="28" fill="#E0F6E8"/>
<path d="M49.7778 28.0004C49.7778 40.028 40.0275 49.7782 28 49.7782C15.9725 49.7782 6.22223 40.028 6.22223 28.0004C6.22223 15.9729 15.9725 6.22266 28 6.22266C40.0275 6.22266 49.7778 15.9729 49.7778 28.0004ZM25.4259 35.8801C25.8384 35.8916 26.2547 35.7399 26.5695 35.4251L39.3289 22.6657C39.5719 22.4228 39.5719 22.0288 39.3289 21.7858L37.459 19.9159C37.216 19.6729 36.822 19.6729 36.579 19.9159L25.4679 31.0269L19.4212 24.9802C19.1782 24.7372 18.7842 24.7372 18.5412 24.9802L16.6713 26.8501C16.4283 27.0931 16.4283 27.487 16.6713 27.73L24.3663 35.425C24.6598 35.7185 25.0414 35.8702 25.4259 35.8801Z" fill="#00B73E"/>
</svg>
