<svg width="20" height="20" viewBox="0 0 20 20" fill="none" xmlns="http://www.w3.org/2000/svg">
<g id="Icon" clip-path="url(#clip0_8309_862)">
<path id="Union (Stroke)" fill-rule="evenodd" clip-rule="evenodd" d="M0.899902 8.93745C0.899902 4.48707 4.98629 0.900024 9.9999 0.900024C15.0135 0.900024 19.0999 4.48707 19.0999 8.93745C19.0999 13.3878 15.0135 16.9749 9.9999 16.9749C9.47207 16.9749 8.95466 16.9352 8.45131 16.859L5.31071 18.9951C4.8986 19.2754 4.35046 18.9614 4.37054 18.4648L4.49696 15.3395C2.31426 13.8738 0.899902 11.5535 0.899902 8.93745ZM9.9999 2.50075C5.65338 2.50075 2.48452 5.5676 2.48452 8.93745C2.48452 10.9525 3.57942 12.8174 5.41303 14.0323L6.11691 14.4987L6.03296 16.5741L8.07996 15.1818L8.65316 15.2709C9.08914 15.3386 9.53913 15.3741 9.9999 15.3741C14.3464 15.3741 17.5153 12.3073 17.5153 8.93745C17.5153 5.5676 14.3464 2.50075 9.9999 2.50075Z" fill="#55585E"/>
</g>
<defs>
<clipPath id="clip0_8309_862">
<rect width="20" height="20" fill="white"/>
</clipPath>
</defs>
</svg>
