<svg width="14" height="14" viewBox="0 0 14 14" fill="none" xmlns="http://www.w3.org/2000/svg">
<g id="interactive/copy">
<g id="Union">
<path d="M5.25 2.34062C5.25 2.43727 5.32835 2.51562 5.425 2.51562H11.2656V10.1062C11.2656 10.2029 11.344 10.2812 11.4406 10.2812H12.1844C12.281 10.2812 12.3594 10.2029 12.3594 10.1062V1.85938C12.3594 1.61775 12.1635 1.42188 11.9219 1.42188H5.425C5.32835 1.42188 5.25 1.50023 5.25 1.59688V2.34062ZM2.84375 4.8125V11.375H8.96875V4.8125H2.84375ZM2.1875 12.4688C1.94588 12.4688 1.75 12.2729 1.75 12.0312V4.15625C1.75 3.91463 1.94588 3.71875 2.1875 3.71875H9.625C9.86662 3.71875 10.0625 3.91463 10.0625 4.15625V12.0312C10.0625 12.2729 9.86662 12.4688 9.625 12.4688H2.1875Z" fill="#808080"/>
</g>
</g>
</svg>
