<svg width="20" height="20" viewBox="0 0 20 20" fill="none" xmlns="http://www.w3.org/2000/svg">
<g id="Name=Deposit, Status=Default">
<g id="Union">
<path d="M4.44449 2.17572C2.93594 2.17572 1.71301 3.39865 1.71301 4.9072V15.0924C1.71301 16.6009 2.93594 17.8239 4.44449 17.8239L8.17856 17.8239L8.19449 17.8239V17.8237C8.67295 17.8152 9.05819 17.4247 9.05819 16.9442C9.05819 16.4638 8.67295 16.0732 8.19449 16.0647V16.0646H8.17856H4.44449C3.90755 16.0646 3.47227 15.6293 3.47227 15.0924V4.9072C3.47227 4.37026 3.90755 3.93498 4.44449 3.93498H15.5556C16.0925 3.93498 16.5278 4.37026 16.5278 4.9072V6.7498C16.5278 6.75288 16.5278 6.75596 16.5278 6.75905C16.5278 6.76214 16.5278 6.76523 16.5278 6.76831V6.80535H16.529C16.5531 7.26963 16.9371 7.63868 17.4074 7.63868C17.8777 7.63868 18.2618 7.26963 18.2858 6.80535H18.2871V4.9072C18.2871 3.39865 17.0642 2.17572 15.5556 2.17572H4.44449ZM13.2003 8.94106C12.8749 8.61563 12.3472 8.61563 12.0218 8.94106L9.27192 11.6909C9.1075 11.8553 9.02615 12.0714 9.02787 12.2868L9.02782 12.2954C9.02782 12.3402 9.03135 12.3841 9.03815 12.427C9.06224 12.6004 9.14094 12.7676 9.27426 12.9009L12.0241 15.6508C12.3496 15.9762 12.8772 15.9762 13.2026 15.6508C13.5281 15.3254 13.5281 14.7977 13.2026 14.4723L11.8591 13.1288H17.4537C17.914 13.1288 18.2871 12.7557 18.2871 12.2954C18.2871 11.8352 17.914 11.4621 17.4537 11.4621H11.8578L13.2003 10.1196C13.5257 9.79414 13.5257 9.2665 13.2003 8.94106Z" fill="#808080"/>
</g>
</g>
</svg>
