<svg width="20" height="20" viewBox="0 0 20 20" fill="none" xmlns="http://www.w3.org/2000/svg">
<g id="Frame 48097422" clip-path="url(#clip0_657_2209)">
<g id="Union">
<path d="M3.33344 0.610901C1.52318 0.610901 0.0556641 2.07841 0.0556641 3.88868V16.1109C0.0556641 17.9212 1.52318 19.3887 3.33344 19.3887L7.81432 19.3887L7.83344 19.3887V19.3885C8.40759 19.3783 8.86988 18.9097 8.86988 18.3331C8.86988 17.7565 8.40759 17.2879 7.83344 17.2777V17.2776H7.81432H3.33344C2.68911 17.2776 2.16678 16.7552 2.16678 16.1109V3.88868C2.16678 3.24435 2.68911 2.72201 3.33344 2.72201H16.6668C17.3111 2.72201 17.8334 3.24435 17.8334 3.88868V6.09979C17.8334 6.10349 17.8334 6.10719 17.8334 6.1109C17.8334 6.11461 17.8334 6.11831 17.8334 6.12201V6.16646H17.8348C17.8637 6.7236 18.3246 7.16646 18.8889 7.16646C19.4533 7.16646 19.9142 6.7236 19.9431 6.16646H19.9446V3.88868C19.9446 2.07841 18.477 0.610901 16.6668 0.610901H3.33344ZM13.8404 8.72931C13.4499 8.33879 12.8167 8.33879 12.4262 8.72931L9.12635 12.0291C8.92905 12.2264 8.83143 12.4857 8.83349 12.7443L8.83344 12.7546C8.83344 12.8083 8.83767 12.861 8.84583 12.9124C8.87473 13.1205 8.96918 13.3212 9.12916 13.4812L12.429 16.781C12.8195 17.1715 13.4527 17.1715 13.8432 16.781C14.2337 16.3905 14.2337 15.7573 13.8432 15.3668L12.231 13.7546H18.9445C19.4968 13.7546 19.9445 13.3068 19.9445 12.7546C19.9445 12.2023 19.4968 11.7546 18.9445 11.7546H12.2294L13.8404 10.1435C14.2309 9.753 14.2309 9.11984 13.8404 8.72931Z" fill="#285EFF"/>
</g>
</g>
<defs>
<clipPath id="clip0_657_2209">
<rect width="20" height="20" fill="white"/>
</clipPath>
</defs>
</svg>
