<svg width="64" height="64" viewBox="0 0 64 64" fill="none" xmlns="http://www.w3.org/2000/svg">
<g id="Group 2579">
<path id="Rectangle 34624807" d="M6.85718 11.4286C6.85718 8.90387 8.90388 6.85718 11.4286 6.85718H18.6232C19.156 6.85718 19.6848 6.95032 20.1855 7.13241L26.2146 9.32481C26.7153 9.50689 27.244 9.60004 27.7768 9.60004H52.5715C55.0962 9.60004 57.1429 11.6467 57.1429 14.1715V52.5715C57.1429 55.0962 55.0962 57.1429 52.5715 57.1429H11.4286C8.90387 57.1429 6.85718 55.0962 6.85718 52.5715V11.4286Z" fill="#F5F5F5"/>
<path id="Rectangle 34624807_2" d="M0.702039 25.7563C0.330527 23.0128 2.46361 20.5714 5.23212 20.5714H58.7677C61.5362 20.5714 63.6693 23.0128 63.2978 25.7563L59.5835 53.1849C59.2765 55.4518 57.3411 57.1428 55.0534 57.1428H8.9464C6.65875 57.1428 4.72331 55.4518 4.41632 53.1849L0.702039 25.7563Z" fill="#EAEAEA"/>
<g id="Union">
<path d="M36.5713 28C36.5713 27.6844 36.8272 27.4286 37.1428 27.4286H54.2856C54.6012 27.4286 54.857 27.6844 54.857 28V29.7143C54.857 30.0299 54.6012 30.2857 54.2856 30.2857H37.1428C36.8272 30.2857 36.5713 30.0299 36.5713 29.7143V28Z" fill="white"/>
<path d="M45.7142 34.2857C45.7142 33.9701 45.97 33.7143 46.2856 33.7143H54.2856C54.6012 33.7143 54.857 33.9701 54.857 34.2857V36C54.857 36.3156 54.6012 36.5714 54.2856 36.5714H46.2856C45.97 36.5714 45.7142 36.3156 45.7142 36V34.2857Z" fill="white"/>
<path d="M17.9999 47.4286C17.2109 47.4286 16.5713 48.0682 16.5713 48.8572C16.5713 49.6461 17.2109 50.2857 17.9999 50.2857C18.7889 50.2857 19.4285 49.6461 19.4285 48.8572C19.4285 48.0682 18.7889 47.4286 17.9999 47.4286Z" fill="white"/>
<path d="M21.7142 48.8572C21.7142 48.0682 22.3538 47.4286 23.1428 47.4286C23.9317 47.4286 24.5713 48.0682 24.5713 48.8572C24.5713 49.6461 23.9317 50.2857 23.1428 50.2857C22.3538 50.2857 21.7142 49.6461 21.7142 48.8572Z" fill="white"/>
<path d="M12.857 47.4286C12.0681 47.4286 11.4285 48.0682 11.4285 48.8572C11.4285 49.6461 12.0681 50.2857 12.857 50.2857C13.646 50.2857 14.2856 49.6461 14.2856 48.8572C14.2856 48.0682 13.646 47.4286 12.857 47.4286Z" fill="white"/>
</g>
</g>
</svg>
