<svg width="20" height="20" viewBox="0 0 20 20" fill="none" xmlns="http://www.w3.org/2000/svg">
<g id="close-filled">
<g id="Subtract">
<path d="M18.75 10C18.75 14.8325 14.8325 18.75 10 18.75C5.16751 18.75 1.25 14.8325 1.25 10C1.25 5.16751 5.16751 1.25 10 1.25C14.8325 1.25 18.75 5.16751 18.75 10ZM6.53084 7.28202C6.43321 7.37966 6.43321 7.53795 6.53084 7.63558L8.8953 10L6.53088 12.3645C6.43324 12.4621 6.43324 12.6204 6.53088 12.718L7.28218 13.4693C7.37981 13.5669 7.5381 13.5669 7.63573 13.4693L10.0002 11.1049L12.3645 13.4692C12.4621 13.5668 12.6204 13.5668 12.718 13.4692L13.4693 12.7179C13.567 12.6203 13.567 12.462 13.4693 12.3644L11.105 10L13.4694 7.63568C13.567 7.53805 13.567 7.37976 13.4694 7.28213L12.7181 6.53083C12.6204 6.43319 12.4621 6.43319 12.3645 6.53083L10.0002 8.89518L7.6357 6.53072C7.53806 6.43309 7.37977 6.43309 7.28214 6.53072L6.53084 7.28202Z" fill="#F53F3F"/>
</g>
</g>
</svg>
