<svg width="16" height="16" viewBox="0 0 16 16" fill="none" xmlns="http://www.w3.org/2000/svg">
<g clip-path="url(#clip0_5016_32872)">
<path d="M15.5553 9.92468L15.5647 9.88694C16.6066 5.70812 14.0637 1.47516 9.88492 0.433426L9.8849 0.433423C5.70716 -0.608306 1.47492 1.93487 0.433633 6.11393L0.433621 6.11398C-0.608576 10.2922 1.93445 14.5247 6.11174 15.5665L15.5553 9.92468ZM15.5553 9.92468C14.4975 14.0808 10.2782 16.6053 6.11174 15.5665L15.5553 9.92468Z" fill="white" stroke="#E0E0E0" stroke-width="0.399955"/>
<g clip-path="url(#clip1_5016_32872)">
<path d="M7.9981 2.49969L7.92163 2.75034V10.0229L7.9981 10.0965L11.4966 8.10107L7.9981 2.49969Z" fill="#343434"/>
<path d="M7.99809 2.49969L4.49951 8.10107L7.99809 10.0965V6.56662V2.49969Z" fill="#8C8C8C"/>
<path d="M7.99806 10.7357L7.95496 10.7864V13.377L7.99806 13.4984L11.4987 8.74127L7.99806 10.7357Z" fill="#3C3C3B"/>
<path d="M7.99809 13.4984V10.7357L4.49951 8.74127L7.99809 13.4984Z" fill="#8C8C8C"/>
<path d="M7.99805 10.0965L11.4965 8.10104L7.99805 6.56659V10.0965Z" fill="#141414"/>
<path d="M4.49951 8.10104L7.99809 10.0965V6.56659L4.49951 8.10104Z" fill="#393939"/>
</g>
</g>
<defs>
<clipPath id="clip0_5016_32872">
<rect width="15.9982" height="16" fill="white"/>
</clipPath>
<clipPath id="clip1_5016_32872">
<rect width="6.99921" height="10.9988" fill="white" transform="translate(4.49951 2.49969)"/>
</clipPath>
</defs>
</svg>
