<svg width="64" height="64" viewBox="0 0 64 64" fill="none" xmlns="http://www.w3.org/2000/svg">
<g id="exclamation-filled">
<g id="Subtract">
<path d="M60 32C60 47.464 47.464 60 32 60C16.536 60 4 47.464 4 32C4 16.536 16.536 4 32 4C47.464 4 60 16.536 60 32ZM33.7 36C34.1418 36 34.5 35.6418 34.5 35.2V18.8C34.5 18.3582 34.1418 18 33.7 18H30.3C29.8582 18 29.5 18.3582 29.5 18.8V35.2C29.5 35.6418 29.8582 36 30.3 36H33.7ZM31.9999 46C33.9881 46 35.5999 44.3883 35.5999 42.4C35.5999 40.4118 33.9881 38.8 31.9999 38.8C30.0117 38.8 28.3999 40.4118 28.3999 42.4C28.3999 44.3883 30.0117 46 31.9999 46Z" fill="#F53F3F"/>
</g>
</g>
</svg>
