<svg width="20" height="20" viewBox="0 0 20 20" fill="none" xmlns="http://www.w3.org/2000/svg">
<g id="Group 2570">
<g id="Union">
<path fill-rule="evenodd" clip-rule="evenodd" d="M2.5 7.46094C2.5 7.56881 2.58744 7.65625 2.69531 7.65625H10.7495C11.0776 8.65435 12.0171 9.375 13.125 9.375C14.2329 9.375 15.1724 8.65435 15.5005 7.65625H17.3047C17.4126 7.65625 17.5 7.56881 17.5 7.46094V6.28906C17.5 6.18119 17.4126 6.09375 17.3047 6.09375H15.5005C15.1724 5.09565 14.2329 4.375 13.125 4.375C12.0171 4.375 11.0776 5.09565 10.7495 6.09375H2.69531C2.58744 6.09375 2.5 6.18119 2.5 6.28906V7.46094ZM13.125 5.9375C12.6072 5.9375 12.1875 6.35723 12.1875 6.875C12.1875 7.39277 12.6072 7.8125 13.125 7.8125C13.6428 7.8125 14.0625 7.39277 14.0625 6.875C14.0625 6.35723 13.6428 5.9375 13.125 5.9375Z" fill="#1A1A1A"/>
<path fill-rule="evenodd" clip-rule="evenodd" d="M9.25051 13.9062C8.92245 14.9044 7.98288 15.625 6.875 15.625C5.76712 15.625 4.82755 14.9044 4.49949 13.9062H2.69531C2.58744 13.9062 2.5 13.8188 2.5 13.7109V12.5391C2.5 12.4312 2.58744 12.3438 2.69531 12.3438H4.49949C4.82755 11.3456 5.76712 10.625 6.875 10.625C7.98288 10.625 8.92245 11.3456 9.25051 12.3438H17.3047C17.4126 12.3438 17.5 12.4312 17.5 12.5391V13.7109C17.5 13.8188 17.4126 13.9062 17.3047 13.9062H9.25051ZM5.9375 13.125C5.9375 12.6072 6.35723 12.1875 6.875 12.1875C7.39277 12.1875 7.8125 12.6072 7.8125 13.125C7.8125 13.6428 7.39277 14.0625 6.875 14.0625C6.35723 14.0625 5.9375 13.6428 5.9375 13.125Z" fill="#1A1A1A"/>
</g>
</g>
</svg>
