<svg width="17" height="16" viewBox="0 0 17 16" fill="none" xmlns="http://www.w3.org/2000/svg">
<g id="interactive/fingerprint">
<g id="Union">
<path d="M2.375 13.625C2.375 13.9011 2.59886 14.125 2.875 14.125L14.125 14.125C14.4011 14.125 14.625 13.9011 14.625 13.625V9.19309C14.625 9.08264 14.5355 8.99309 14.425 8.99309H13.575C13.4645 8.99309 13.375 9.08264 13.375 9.19309V12.875L3.625 12.875L3.625 3.125L7.3022 3.125C7.41265 3.125 7.5022 3.03546 7.5022 2.925V2.075C7.5022 1.96454 7.41265 1.875 7.3022 1.875H2.875C2.59886 1.875 2.375 2.09886 2.375 2.375V13.625ZM14.146 2.13922C14.2683 2.12981 14.3702 2.23168 14.3607 2.35397L14.0584 6.28395C14.0453 6.45432 13.8384 6.53086 13.7176 6.41003L12.3456 5.03805L7.38654 9.99713C7.30843 10.0752 7.1818 10.0752 7.1037 9.99713L6.50266 9.39609C6.42455 9.31798 6.42455 9.19135 6.50266 9.11325L11.4617 4.15416L10.0899 2.78236C9.96911 2.66153 10.0456 2.45463 10.216 2.44152L14.146 2.13922Z" fill="#285EFF"/>
</g>
</g>
</svg>
