<svg width="20" height="20" viewBox="0 0 20 20" fill="none" xmlns="http://www.w3.org/2000/svg">
<g id="Icon">
<path id="Union" d="M2.83341 3.87502C2.83341 3.85641 2.837 3.84268 2.84085 3.83335H17.1593C17.1632 3.84268 17.1667 3.85641 17.1667 3.87502V16.125C17.1667 16.1436 17.1632 16.1574 17.1593 16.1667H2.84085C2.837 16.1574 2.83341 16.1436 2.83341 16.125V3.87502ZM2.80008 2.16669C1.8293 2.16669 1.16675 3.0034 1.16675 3.87502V16.125C1.16675 16.9966 1.8293 17.8334 2.80008 17.8334H17.2001C18.1709 17.8334 18.8334 16.9966 18.8334 16.125V3.87502C18.8334 3.0034 18.1709 2.16669 17.2001 2.16669H2.80008ZM14.1667 10.4166C14.1667 9.95641 13.7936 9.58331 13.3333 9.58331C12.8731 9.58331 12.5 9.95641 12.5 10.4166V13.3333C12.5 13.7936 12.8731 14.1666 13.3333 14.1666C13.7936 14.1666 14.1667 13.7936 14.1667 13.3333V10.4166ZM9.99996 5.83331C10.4602 5.83331 10.8333 6.20641 10.8333 6.66665V13.3333C10.8333 13.7936 10.4602 14.1666 9.99996 14.1666C9.53972 14.1666 9.16663 13.7936 9.16663 13.3333V6.66665C9.16663 6.20641 9.53972 5.83331 9.99996 5.83331ZM7.50004 8.33333C7.50004 7.8731 7.12694 7.5 6.66671 7.5C6.20647 7.5 5.83337 7.8731 5.83337 8.33333V13.3333C5.83337 13.7936 6.20647 14.1667 6.66671 14.1667C7.12694 14.1667 7.50004 13.7936 7.50004 13.3333V8.33333Z" fill="#285EFF"/>
</g>
</svg>
