<svg width="16" height="16" viewBox="0 0 16 16" fill="none" xmlns="http://www.w3.org/2000/svg">
<g id="suggest/info-circle">
<path id="Union" d="M8 13.75C11.1756 13.75 13.75 11.1756 13.75 8C13.75 4.82436 11.1756 2.25 8 2.25C4.82436 2.25 2.25 4.82436 2.25 8C2.25 11.1756 4.82436 13.75 8 13.75ZM8 15C4.13401 15 1 11.866 1 8C1 4.13401 4.13401 1 8 1C11.866 1 15 4.13401 15 8C15 11.866 11.866 15 8 15ZM8.70215 10.25V7.2C8.70215 7.08954 8.61261 7 8.50215 7H7.02495C6.91449 7 6.82495 7.08954 6.82495 7.2V8.05C6.82495 8.16046 6.91449 8.25 7.02495 8.25H7.45215V10.25H7.02495C6.91449 10.25 6.82495 10.3395 6.82495 10.45V11.3C6.82495 11.4105 6.91449 11.5 7.02495 11.5H8.97495C9.08541 11.5 9.17495 11.4105 9.17495 11.3V10.45C9.17495 10.3395 9.08541 10.25 8.97495 10.25H8.70215ZM8.0001 6.3C8.49715 6.3 8.9001 5.89706 8.9001 5.4C8.9001 4.90294 8.49715 4.5 8.0001 4.5C7.50304 4.5 7.1001 4.90294 7.1001 5.4C7.1001 5.89706 7.50304 6.3 8.0001 6.3Z" fill="#FF9900"/>
</g>
</svg>
