<svg width="25" height="24" viewBox="0 0 25 24" fill="none" xmlns="http://www.w3.org/2000/svg">
<g id="tabBar/Wallet">
<path id="Fill 1" d="M11.2171 5.22892C8.74174 6.31484 6.94965 9.25977 7.8305 12.5297C8.45163 14.3385 9.63371 15.6428 11.4899 16.3015C14.7358 17.4537 18.1799 14.8858 17.6868 11.59C17.477 10.1877 16.5785 9.26399 15.3477 8.92058C14.2942 8.67387 13.2312 8.85774 12.4662 9.58784C11.9349 10.0949 11.6271 10.8993 11.7924 11.7497C11.9497 12.2705 12.2004 12.5944 12.8415 12.7491C13.194 12.8341 13.644 12.7491 13.7821 12.4308C13.8758 12.215 13.789 12.0383 13.7253 11.8338C13.5519 11.2778 13.6644 10.9571 13.9678 10.6824C14.3747 10.2798 15.066 10.2734 15.5048 10.5826C16.0692 10.8714 16.5185 11.7912 15.9898 13.2046C15.3848 14.6586 13.8082 15.0968 12.3382 14.7158C10.2132 14.165 9.05497 11.7497 9.56392 9.82952C10.4107 6.63464 13.9716 5.64622 16.9329 7.11256C18.9311 8.23757 20.1824 10.0529 20.1458 12.5187C19.9894 16.574 15.887 19.5649 11.7838 18.7829C7.66339 17.9195 5.19 14.3509 5.13538 10.855C5.11507 9.55535 5.36282 8.24351 6.04078 6.86072C7.65007 3.8203 10.4457 2.39761 14.005 2.18492C14.9387 2.12912 15.6158 2.18492 16.7968 2.30144C16.7493 2.28037 16.6409 2.22704 16.5279 2.18492C14.8429 1.55393 13.1014 1.35271 11.3169 1.60726C10.1694 1.77094 9.22841 2.09943 8.29986 2.52696C7.8999 2.66737 7.84051 2.32777 7.53159 2.07018C7.38729 1.95008 7.40162 2.10267 7.40162 2.10267C7.52755 2.70184 7.2478 3.00413 7.20523 3.03371C7.05649 3.17894 6.69489 3.44784 6.44607 3.5567C5.93274 3.78128 5.6945 3.41154 5.28565 3.20331C5.00556 3.0608 5.11507 3.29672 5.11507 3.29672C5.46194 3.98597 5.21906 4.61791 5.16304 4.71739C4.92427 5.06343 4.72455 5.3091 4.40254 5.60024C3.83698 6.11158 3.16515 5.61834 2.96509 5.54369C2.58785 5.40292 2.86095 5.72457 2.86095 5.72457C3.01128 5.92445 3.55322 7.07184 3.38503 7.43529C2.4264 9.42132 2.11284 11.71 2.53624 13.9945C4.11123 21.8764 13.0702 24.6098 18.6454 20.8006C21.6039 18.6148 22.6133 15.2124 22.6469 13.0906C22.6805 10.9687 22.1466 9.42578 21.1616 8.04857C18.8251 4.78202 14.5975 3.746 11.2171 5.22892Z" fill="#5B8EF4"/>
</g>
</svg>
