<svg width="20" height="20" viewBox="0 0 20 20" fill="none" xmlns="http://www.w3.org/2000/svg">
<g id="Icon">
<mask id="mask0_11981_3389" style="mask-type:alpha" maskUnits="userSpaceOnUse" x="0" y="0" width="20" height="20">
<rect id="Bounding box" width="20" height="20" fill="#D9D9D9"/>
</mask>
<g mask="url(#mask0_11981_3389)">
<path id="list_alt_add" d="M14.1667 19.1667V16.6667H11.6667V15H14.1667V12.5H15.8333V15H18.3333V16.6667H15.8333V19.1667H14.1667ZM4.16667 17.5C3.70833 17.5 3.31597 17.3368 2.98958 17.0104C2.66319 16.684 2.5 16.2917 2.5 15.8333V4.16667C2.5 3.70833 2.66319 3.31597 2.98958 2.98958C3.31597 2.66319 3.70833 2.5 4.16667 2.5H15.8333C16.2917 2.5 16.684 2.66319 17.0104 2.98958C17.3368 3.31597 17.5 3.70833 17.5 4.16667V11.5208C17.25 11.3681 16.9861 11.2431 16.7083 11.1458C16.4306 11.0486 16.1389 10.9722 15.8333 10.9167V4.16667H4.16667V15.8333H10C10 16.125 10.0208 16.4097 10.0625 16.6875C10.1042 16.9653 10.1736 17.2361 10.2708 17.5H4.16667ZM6.66667 11.7702C6.90278 11.7702 7.10069 11.6904 7.26042 11.5307C7.42014 11.3709 7.5 11.173 7.5 10.9369C7.5 10.7008 7.42014 10.5029 7.26042 10.3432C7.10069 10.1834 6.90278 10.1036 6.66667 10.1036C6.43056 10.1036 6.23264 10.1834 6.07292 10.3432C5.91319 10.5029 5.83333 10.7008 5.83333 10.9369C5.83333 11.173 5.91319 11.3709 6.07292 11.5307C6.23264 11.6904 6.43056 11.7702 6.66667 11.7702ZM6.66667 8.43691C6.90278 8.43691 7.10069 8.35705 7.26042 8.19733C7.42014 8.03761 7.5 7.83969 7.5 7.60358C7.5 7.36747 7.42014 7.16955 7.26042 7.00983C7.10069 6.85011 6.90278 6.77024 6.66667 6.77024C6.43056 6.77024 6.23264 6.85011 6.07292 7.00983C5.91319 7.16955 5.83333 7.36747 5.83333 7.60358C5.83333 7.83969 5.91319 8.03761 6.07292 8.19733C6.23264 8.35705 6.43056 8.43691 6.66667 8.43691ZM9.16667 11.7702H12.5878C12.8519 11.1131 13.3338 10.5667 13.9528 10.2225L14.1667 10.1036H9.16667V11.7702ZM9.16667 8.43691H14.1667V6.77024H9.16667V8.43691Z" fill="#55585E"/>
</g>
</g>
</svg>
