<svg width="14" height="14" viewBox="0 0 14 14" fill="none" xmlns="http://www.w3.org/2000/svg">
<path d="M1.59717 11.9657C1.59717 12.2073 1.79304 12.4032 2.03467 12.4032H7.60143C7.69808 12.4032 7.77643 12.3248 7.77643 12.2282V11.4844C7.77643 11.3878 7.69808 11.3094 7.60143 11.3094H2.69092L2.69092 2.69067L7.60143 2.69067C7.69808 2.69067 7.77643 2.61232 7.77643 2.51567V1.77192C7.77643 1.67527 7.69808 1.59692 7.60143 1.59692H2.03467C1.79304 1.59692 1.59717 1.7928 1.59717 2.03442V11.9657ZM9.66437 9.96975C9.59603 10.0381 9.48522 10.0381 9.41688 9.96975L8.89097 9.44384C8.82263 9.3755 8.82263 9.26469 8.89097 9.19635L10.5404 7.54688L3.85029 7.54688C3.75364 7.54688 3.67529 7.46853 3.67529 7.37188V6.62813C3.67529 6.53148 3.75364 6.45313 3.85029 6.45313L10.5405 6.45313L8.89105 4.80369C8.82271 4.73535 8.82271 4.62454 8.89105 4.5562L9.41696 4.03029C9.48531 3.96195 9.59611 3.96195 9.66445 4.03029L12.3249 6.69054C12.3733 6.73896 12.408 6.7959 12.4289 6.85654C12.4821 7.00993 12.4474 7.187 12.3249 7.3095L9.66437 9.96975Z" fill="#808080"/>
</svg>
