<svg xmlns="http://www.w3.org/2000/svg" width="20" height="20" viewBox="0 0 20 20" fill="none">
  <path d="M2.34375 17.0312C2.34375 17.3764 2.62357 17.6562 2.96875 17.6562L17.0312 17.6563C17.3764 17.6563 17.6562 17.3764 17.6562 17.0313V11.4914C17.6562 11.3533 17.5443 11.2414 17.4062 11.2414H16.3438C16.2057 11.2414 16.0938 11.3533 16.0938 11.4914V16.0938L3.90625 16.0937L3.90625 3.90625L8.50274 3.90625C8.64082 3.90625 8.75274 3.79432 8.75274 3.65625V2.59375C8.75274 2.45568 8.64082 2.34375 8.50274 2.34375H2.96875C2.62357 2.34375 2.34375 2.62357 2.34375 2.96875V17.0312ZM17.0575 2.67402C17.2104 2.66226 17.3377 2.7896 17.3259 2.94246L16.9481 7.85494C16.9317 8.0679 16.673 8.16357 16.522 8.01254L14.807 6.29756L8.60817 12.4964C8.51054 12.594 8.35225 12.594 8.25462 12.4964L7.50332 11.7451C7.40569 11.6475 7.40569 11.4892 7.50332 11.3916L13.7022 5.1927L11.9874 3.47795C11.8364 3.32692 11.9321 3.06829 12.145 3.05191L17.0575 2.67402Z" fill="#808080"/>
</svg>