<svg width="24" height="24" viewBox="0 0 24 24" fill="none" xmlns="http://www.w3.org/2000/svg">
<rect width="24" height="24" rx="4.5" fill="#4A7DFF"/>
<path fill-rule="evenodd" clip-rule="evenodd" d="M11.0576 6.75018C8.85617 7.71826 7.47164 10.0859 8.27767 12.4388C8.76509 13.8616 9.74731 14.8755 11.2039 15.3937C13.7511 16.3001 16.4101 14.3072 16.1119 11.7168C15.9853 10.6158 15.4275 9.77744 14.2948 9.43054C13.4522 9.17248 12.6458 9.29305 11.9878 9.90682C11.4294 10.4272 11.2176 11.0681 11.4413 11.813C11.5647 12.2227 11.8612 12.4775 12.2646 12.5992C12.6187 12.7056 12.8927 12.5516 13.1037 12.2568C13.0611 12.1856 13.0238 12.1077 12.9721 12.0407C12.6968 11.684 12.9201 11.165 13.1582 10.9489C13.4817 10.6553 14.0057 10.6285 14.35 10.8717C14.9084 11.2655 15.1624 12.3129 14.8589 12.97C14.351 14.0693 13.0453 14.7091 11.8471 14.3978C9.9555 13.9064 9.02286 12.034 9.63337 10.2241C10.4447 7.81908 13.1715 6.7671 15.4954 7.92061C17.374 8.85273 18.0714 10.4804 17.9965 12.418C17.8737 15.6081 14.6626 17.9747 11.4427 17.3595C8.31987 16.763 6.00095 13.7654 6.16729 10.9306C6.22848 9.88391 6.46094 8.90385 6.99513 8.00452C8.38493 5.66577 10.5498 4.56514 13.2577 4.38711C13.9705 4.34022 14.6894 4.38006 15.3684 4.38041C15.3312 4.36384 15.246 4.32189 15.1574 4.28875C13.8351 3.79238 12.4685 3.63409 11.0682 3.83433C10.1999 3.9415 9.39845 4.17664 8.66979 4.51297C8.65642 4.51508 8.6406 4.51966 8.62126 4.52777C8.2935 4.66773 8.23864 4.34622 8.12223 4.24891C8.009 4.15443 8.02377 4.27183 8.02377 4.27183C8.12259 4.74317 7.87501 4.93319 7.8416 4.95646C7.63517 5.08443 7.43718 5.22263 7.24587 5.36787C7.24024 5.37034 7.23602 5.37034 7.23004 5.37316C6.77814 5.57975 6.59035 5.23074 6.38251 5.12462C6.16272 5.01251 6.24571 5.19654 6.24571 5.19654C6.51791 5.73875 6.28299 6.20269 6.23903 6.28095C6.04632 6.4893 5.86591 6.70823 5.69711 6.93562C5.67952 6.9469 5.66229 6.95748 5.64224 6.97545C5.19843 7.3777 4.85309 7.05936 4.57879 6.99943C4.27635 6.93386 4.44762 7.13233 4.44762 7.13233C5.00713 7.70662 4.83023 8.39725 4.83023 8.39725L4.83164 8.39795C4.11282 9.95512 3.8547 11.7573 4.15327 13.5665C5.13478 19.5135 12.4316 22.3222 17.2147 18.4912C18.768 17.247 19.8456 14.8505 19.9592 12.8678C20.04 11.4598 19.6057 10.1818 18.805 9.02477C17.106 6.56968 13.7103 5.58363 11.0576 6.75018Z" fill="white"/>
</svg>
