<svg width="20" height="20" viewBox="0 0 20 20" fill="none" xmlns="http://www.w3.org/2000/svg">
<g id="suggest/question-circle">
<path id="Union" d="M10 17.3929C14.083 17.3929 17.3929 14.083 17.3929 10C17.3929 5.91704 14.083 2.60714 10 2.60714C5.91704 2.60714 2.60714 5.91704 2.60714 10C2.60714 14.083 5.91704 17.3929 10 17.3929ZM10 19C5.02944 19 1 14.9706 1 10C1 5.02944 5.02944 1 10 1C14.9706 1 19 5.02944 19 10C19 14.9706 14.9706 19 10 19ZM11.2618 13.9857C11.2618 14.6248 10.7437 15.1429 10.1047 15.1429C9.46558 15.1429 8.94751 14.6248 8.94751 13.9857C8.94751 13.3467 9.46558 12.8286 10.1047 12.8286C10.7437 12.8286 11.2618 13.3467 11.2618 13.9857ZM8.61378 8.16809C8.75579 8.16809 8.86789 8.05143 8.89984 7.91306C9.01545 7.41228 9.46416 7.03895 10.0001 7.03895C10.6237 7.03895 11.1292 7.54448 11.1292 8.16809C11.1292 8.52827 10.9615 8.84883 10.6966 9.05689C10.4152 9.27797 10.0538 9.57228 9.76376 9.9288C9.47025 10.2896 9.19649 10.779 9.19649 11.3865V11.6072C9.19649 11.7492 9.31161 11.8643 9.45363 11.8643H10.5465C10.6885 11.8643 10.8036 11.7492 10.8036 11.6072V11.3865C10.8036 11.284 10.8472 11.1438 11.0105 10.9429C11.1774 10.7378 11.4125 10.5383 11.6894 10.3207C12.3254 9.82108 12.7363 9.04235 12.7363 8.16809C12.7363 6.65688 11.5113 5.43181 10.0001 5.43181C8.57548 5.43181 7.40517 6.52045 7.27568 7.91119C7.26251 8.0526 7.3789 8.16809 7.52092 8.16809H8.61378Z" fill="#55585E"/>
</g>
</svg>
