<svg width="12" height="12" viewBox="0 0 16 16" fill="none" xmlns="http://www.w3.org/2000/svg">
<g id="Group 48097328">
<path id="Union" d="M8 13.75C11.1756 13.75 13.75 11.1756 13.75 8C13.75 4.82436 11.1756 2.25 8 2.25C4.82436 2.25 2.25 4.82436 2.25 8C2.25 11.1756 4.82436 13.75 8 13.75ZM8 15C4.13401 15 1 11.866 1 8C1 4.13401 4.13401 1 8 1C11.866 1 15 4.13401 15 8C15 11.866 11.866 15 8 15ZM8.9814 11.1C8.9814 11.5971 8.57845 12 8.0814 12C7.58434 12 7.1814 11.5971 7.1814 11.1C7.1814 10.603 7.58434 10.2 8.0814 10.2C8.57845 10.2 8.9814 10.603 8.9814 11.1ZM6.92183 6.57518C7.03228 6.57518 7.11947 6.48445 7.14432 6.37682C7.23424 5.98733 7.58323 5.69696 8.00005 5.69696C8.48507 5.69696 8.87827 6.09015 8.87827 6.57518C8.87827 6.85532 8.7478 7.10465 8.54181 7.26647C8.32292 7.43842 8.04182 7.66733 7.81626 7.94462C7.58797 8.22527 7.37505 8.60588 7.37505 9.0784V9.25001C7.37505 9.36046 7.46459 9.45001 7.57505 9.45001H8.42505C8.5355 9.45001 8.62505 9.36046 8.62505 9.25001V9.0784C8.62505 8.99864 8.6589 8.88961 8.78596 8.7334C8.91576 8.57384 9.09859 8.41866 9.314 8.24944C9.80867 7.86084 10.1283 7.25516 10.1283 6.57518C10.1283 5.3998 9.17543 4.44696 8.00005 4.44696C6.89204 4.44696 5.9818 5.29368 5.88108 6.37537C5.87084 6.48535 5.96137 6.57518 6.07183 6.57518H6.92183Z" fill="#808080"/>
</g>
</svg>
