<svg width="20" height="20" viewBox="0 0 20 20" fill="none" xmlns="http://www.w3.org/2000/svg">
<g id="Icon">
<path id="Union" fill-rule="evenodd" clip-rule="evenodd" d="M6.32516 3.89472H4.30234V17.3282H15.6975V3.89472H13.6747C13.6226 4.57883 13.051 5.1177 12.3535 5.1177H7.64629C6.94884 5.1177 6.37725 4.57883 6.32516 3.89472ZM13.6747 2.24472H15.7072C16.6131 2.24472 17.3475 2.97913 17.3475 3.88504V17.3379C17.3475 18.2438 16.6131 18.9782 15.7072 18.9782H4.29267C3.38675 18.9782 2.65234 18.2438 2.65234 17.3379V3.88504C2.65234 2.97912 3.38674 2.24472 4.29267 2.24472H6.32516C6.37724 1.56061 6.94883 1.02173 7.64629 1.02173H12.3535C13.051 1.02173 13.6226 1.56061 13.6747 2.24472ZM7.97129 3.07319L7.9713 3.06972L7.97129 3.06625V2.67173H12.0285V3.4677H7.97129V3.07319ZM6.65112 8.7896C6.65112 8.33396 7.02049 7.9646 7.47612 7.9646H12.5238C12.9794 7.9646 13.3488 8.33396 13.3488 8.7896C13.3488 9.24523 12.9794 9.6146 12.5238 9.6146H7.47612C7.02049 9.6146 6.65112 9.24523 6.65112 8.7896ZM7.47612 11.9509C7.02049 11.9509 6.65112 12.3202 6.65112 12.7759C6.65112 13.2315 7.02049 13.6009 7.47612 13.6009H12.5238C12.9794 13.6009 13.3488 13.2315 13.3488 12.7759C13.3488 12.3202 12.9794 11.9509 12.5238 11.9509H7.47612Z" fill="#285EFF"/>
</g>
</svg>
