<svg width="16" height="16" viewBox="0 0 16 16" fill="none" xmlns="http://www.w3.org/2000/svg">
<g id="Group 2570">
<path id="Union" d="M2.86279 7.99994C2.86279 5.22506 5.11227 2.97559 7.88714 2.97559C9.64598 2.97559 11.1947 3.8793 12.0927 5.24963H11.0871C10.9766 5.24963 10.8871 5.33918 10.8871 5.44963V6.29963C10.8871 6.41009 10.9766 6.49963 11.0871 6.49963L13.8871 6.5C14.1632 6.5 14.3871 6.27614 14.3871 6V3.2C14.3871 3.08954 14.2975 3 14.1871 3H13.3371C13.2266 3 13.1371 3.08954 13.1371 3.2V4.56291C12.0167 2.85494 10.0843 1.72559 7.88714 1.72559C4.42192 1.72559 1.61279 4.53471 1.61279 7.99994C1.61279 11.4652 4.42192 14.2743 7.88714 14.2743C10.7102 14.2743 13.0964 12.4104 13.885 9.84714C13.9175 9.74157 13.8544 9.63139 13.7478 9.60231L12.9278 9.37859C12.8212 9.34952 12.7116 9.41251 12.6783 9.51782C12.0348 11.5512 10.1323 13.0243 7.88714 13.0243C5.11227 13.0243 2.86279 10.7748 2.86279 7.99994Z" fill="#285EFF"/>
</g>
</svg>
