<svg width="18" height="18" viewBox="0 0 18 18" fill="none" xmlns="http://www.w3.org/2000/svg">
<path d="M12.6045 7.82361C12.6045 5.183 10.4639 3.04236 7.82324 3.04236C5.18263 3.04236 3.04199 5.183 3.04199 7.82361C3.04199 10.4642 5.18263 12.6049 7.82324 12.6049C10.4639 12.6049 12.6045 10.4642 12.6045 7.82361ZM11.6731 12.6679C10.6164 13.5087 9.27851 14.0111 7.82324 14.0111C4.40598 14.0111 1.63574 11.2409 1.63574 7.82361C1.63574 4.40635 4.40598 1.63611 7.82324 1.63611C11.2405 1.63611 14.0107 4.40635 14.0107 7.82361C14.0107 9.27893 13.5083 10.6169 12.6674 11.6735L16.2975 15.3036C16.3854 15.3915 16.3854 15.534 16.2975 15.6218L15.6214 16.298C15.5335 16.3859 15.391 16.3859 15.3032 16.298L11.6731 12.6679Z" fill="#808080"/>
</svg>
