<svg width="20" height="20" viewBox="0 0 20 20" fill="none" xmlns="http://www.w3.org/2000/svg">
<g id="tabBar/Wallet">
<path id="Fill 1" d="M8.93094 4.35744C6.86812 5.26237 5.37471 7.71649 6.10875 10.4415C6.62636 11.9487 7.61143 13.0356 9.15827 13.5846C11.8632 14.5448 14.7332 12.4049 14.3224 9.65833C14.1475 8.48974 13.3987 7.72 12.373 7.43383C11.4951 7.22823 10.6093 7.38146 9.9718 7.98988C9.52907 8.41241 9.27257 9.08273 9.41035 9.79143C9.54143 10.2254 9.75033 10.4954 10.2846 10.6242C10.5784 10.6951 10.9534 10.6242 11.0684 10.359C11.1465 10.1792 11.0742 10.0319 11.0211 9.86151C10.8766 9.39814 10.9703 9.13096 11.2231 8.90204C11.5623 8.5665 12.1384 8.56115 12.504 8.81884C12.9743 9.05954 13.3488 9.82601 12.9081 11.0038C12.404 12.2155 11.0902 12.5807 9.86514 12.2632C8.09436 11.8042 7.12914 9.79143 7.55327 8.19128C8.25895 5.52888 11.2263 4.7052 13.6941 5.92714C15.3593 6.86465 16.402 8.3774 16.3715 10.4323C16.2412 13.8117 12.8225 16.3041 9.4032 15.6524C5.96949 14.9329 3.90834 11.9591 3.86282 9.04584C3.84589 7.9628 4.05235 6.86961 4.61732 5.71728C5.95839 3.18359 8.28806 1.99802 11.2542 1.82078C12.0323 1.77428 12.5965 1.82078 13.5807 1.91787C13.5411 1.90032 13.4507 1.85588 13.3566 1.82078C11.9524 1.29495 10.5012 1.12727 9.01411 1.33939C8.05786 1.4758 7.27367 1.74953 6.49988 2.10581C6.16658 2.22282 6.11709 1.93982 5.85966 1.72516C5.73941 1.62507 5.75135 1.75224 5.75135 1.75224C5.85629 2.25155 5.62317 2.50345 5.58769 2.5281C5.46374 2.64913 5.16241 2.87321 4.95506 2.96392C4.52729 3.15108 4.32875 2.84296 3.98804 2.66944C3.75463 2.55068 3.84589 2.74728 3.84589 2.74728C4.13495 3.32165 3.93255 3.84827 3.88587 3.93117C3.68689 4.21954 3.52046 4.42426 3.25212 4.66688C2.78082 5.09299 2.22096 4.68196 2.05424 4.61975C1.73987 4.50245 1.96745 4.77049 1.96745 4.77049C2.09273 4.93705 2.54435 5.89321 2.40419 6.19609C1.60533 7.85111 1.34403 9.75835 1.69687 11.6621C3.00936 18.2304 10.4751 20.5082 15.1212 17.3339C17.5866 15.5124 18.4277 12.677 18.4557 10.9088C18.4838 9.14061 18.0389 7.85483 17.218 6.70715C15.2709 3.98503 11.7479 3.12168 8.93094 4.35744Z" fill="#5B8EF4"/>
</g>
</svg>
