<svg width="20" height="20" viewBox="0 0 20 20" fill="none" xmlns="http://www.w3.org/2000/svg">
<g id="exclamation-filled">
<g id="Subtract">
<path d="M19.25 10C19.25 14.8325 15.3325 18.75 10.5 18.75C5.66751 18.75 1.75 14.8325 1.75 10C1.75 5.16751 5.66751 1.25 10.5 1.25C15.3325 1.25 19.25 5.16751 19.25 10ZM11.0312 11.25C11.1693 11.25 11.2812 11.1381 11.2812 11V5.875C11.2812 5.73693 11.1693 5.625 11.0312 5.625H9.96875C9.83068 5.625 9.71875 5.73693 9.71875 5.875V11C9.71875 11.1381 9.83068 11.25 9.96875 11.25H11.0312ZM10.5 14.375C11.1213 14.375 11.625 13.8713 11.625 13.25C11.625 12.6287 11.1213 12.125 10.5 12.125C9.87865 12.125 9.37497 12.6287 9.37497 13.25C9.37497 13.8713 9.87865 14.375 10.5 14.375Z" fill="#F53F3F"/>
</g>
</g>
</svg>
