<svg width="20" height="20" viewBox="0 0 20 20" fill="none" xmlns="http://www.w3.org/2000/svg">
<g id="Frame 1312318648" clip-path="url(#clip0_2970_189)">
<g id="Union (Stroke)">
<path d="M5.68271 14.7914L5.58554 17.166L7.94565 15.5793L8.5244 15.6681C9.0022 15.7415 9.49525 15.78 10 15.78C14.7562 15.78 18.25 12.4594 18.25 8.78003C18.25 5.1007 14.7562 1.78003 10 1.78003C5.24376 1.78003 1.75 5.1007 1.75 8.78003C1.75 10.9788 2.95877 13.0073 4.97105 14.3253L5.68271 14.7914ZM4.85911 19.462C4.48832 19.7113 3.99151 19.4334 4.00977 18.987L4.14918 15.5801C1.78148 14.0293 0.25 11.5606 0.25 8.78003C0.25 4.08561 4.61522 0.280029 10 0.280029C15.3848 0.280029 19.75 4.08561 19.75 8.78003C19.75 13.4745 15.3848 17.28 10 17.28C9.41895 17.28 8.84977 17.2357 8.29667 17.1508L4.85911 19.462Z" fill="#285EFF"/>
</g>
<path id="Ellipse 2658" d="M11.0022 12.2462C11.0022 12.7538 10.5907 13.1653 10.0831 13.1653C9.57555 13.1653 9.16406 12.7538 9.16406 12.2462C9.16406 11.7386 9.57555 11.3271 10.0831 11.3271C10.5907 11.3271 11.0022 11.7386 11.0022 12.2462Z" fill="#285EFF"/>
<g id="Ellipse 2660 (Stroke)">
<path d="M10.0002 5.86475C9.37821 5.86475 8.87402 6.36893 8.87402 6.99088H7.37402C7.37402 5.5405 8.54978 4.36475 10.0002 4.36475C11.4505 4.36475 12.6263 5.5405 12.6263 6.99088C12.6263 7.85421 12.2089 8.62024 11.5681 9.0977C11.3119 9.28857 11.0935 9.47092 10.9407 9.65723C10.7909 9.83987 10.7502 9.97018 10.7502 10.067V10.5789H9.25015V10.067C9.25015 9.50109 9.50362 9.04403 9.78089 8.70598C10.0551 8.37161 10.3966 8.09997 10.6719 7.89487C10.9491 7.68831 11.1263 7.36037 11.1263 6.99088C11.1263 6.36893 10.6221 5.86475 10.0002 5.86475Z" fill="#285EFF"/>
</g>
</g>
<defs>
<clipPath id="clip0_2970_189">
<rect width="20" height="20" fill="white"/>
</clipPath>
</defs>
</svg>
