<svg width="20" height="20" viewBox="0 0 20 20" fill="none" xmlns="http://www.w3.org/2000/svg">
<g id="direction/swap">
<g id="Union">
<path d="M13.8131 3.55589C13.7155 3.45826 13.5572 3.45826 13.4596 3.55589L12.5757 4.43977C12.478 4.5374 12.478 4.6957 12.5757 4.79333L14.7824 7.00005L2.12492 7.00007C1.98685 7.00007 1.87492 7.112 1.87492 7.25007V8.50007C1.87492 8.63814 1.98685 8.75007 2.12492 8.75007L17.4984 8.75005C18.0552 8.75005 18.3341 8.07684 17.9403 7.68311L13.8131 3.55589ZM6.18641 16.4443C6.28405 16.5419 6.44234 16.5419 6.53997 16.4443L7.42385 15.5604C7.52148 15.4627 7.52148 15.3045 7.42385 15.2068L5.21712 13.0001L17.8746 13.0001C18.0127 13.0001 18.1246 12.8882 18.1246 12.7501V11.5001C18.1246 11.362 18.0127 11.2501 17.8746 11.2501L2.50113 11.2501C1.94432 11.2501 1.66546 11.9233 2.05919 12.317L6.18641 16.4443Z" fill="#808080"/>
</g>
</g>
</svg>
