<svg width="15" height="14" viewBox="0 0 15 14" fill="none" xmlns="http://www.w3.org/2000/svg">
<g id="time-filled">
<g id="Subtract">
<path d="M13.625 7C13.625 10.3827 10.8827 13.125 7.5 13.125C4.11726 13.125 1.375 10.3827 1.375 7C1.375 3.61725 4.11726 0.875 7.5 0.875C10.8827 0.875 13.625 3.61725 13.625 7ZM7.09856 7.54567C7.11415 7.56045 7.13102 7.57427 7.14915 7.58697L9.65777 9.34352C9.73694 9.39896 9.84606 9.37972 9.9015 9.30055L10.3281 8.6913C10.3835 8.61213 10.3643 8.50301 10.2851 8.44757L8.04688 6.88034V4.15741C8.04688 4.06076 7.96852 3.98241 7.87187 3.98241H7.12812C7.03148 3.98241 6.95312 4.06076 6.95312 4.15741V7.21992C6.95312 7.34931 7.00929 7.46557 7.09856 7.54567Z" fill="#808080"/>
</g>
</g>
</svg>
