<svg width="14" height="14" viewBox="0 0 14 14" fill="none" xmlns="http://www.w3.org/2000/svg">
<g id="direction/right-arrow">
<g id="Union">
<path d="M10.8708 7.61251H1.14058C1.04393 7.61251 0.965576 7.53416 0.965576 7.43751V6.56251C0.965576 6.46586 1.04393 6.38751 1.14058 6.38751H10.8703L8.14166 3.65886C8.07332 3.59052 8.07332 3.47972 8.14166 3.41138L8.76038 2.79266C8.82872 2.72432 8.93952 2.72432 9.00786 2.79266L12.9064 6.69065C13.0772 6.86151 13.0772 7.13852 12.9064 7.30937L9.00847 11.2073C8.94013 11.2756 8.82932 11.2756 8.76098 11.2073L8.14226 10.5886C8.07392 10.5202 8.07392 10.4094 8.14226 10.3411L10.8708 7.61251Z" fill="#808080"/>
</g>
</g>
</svg>
