<svg width="20" height="20" viewBox="0 0 20 20" fill="none" xmlns="http://www.w3.org/2000/svg">
<path d="M1.96573 13.4207L5.11543 16.5704C5.39017 16.8452 5.83608 16.8436 6.10887 16.5669L6.3609 16.3113C6.63098 16.0374 6.62942 15.5969 6.35742 15.3249L4.48371 13.4512H10.0919C10.4785 13.4512 10.7919 13.1378 10.7919 12.7512V12.3933C10.7919 12.0067 10.4785 11.6933 10.0919 11.6933H4.48374L6.35742 9.81974C6.62942 9.54777 6.63101 9.10727 6.36099 8.83334L6.10888 8.57759C5.83611 8.30086 5.39015 8.29926 5.11539 8.57402L1.96573 11.7237C1.4971 12.1923 1.4971 12.9521 1.96573 13.4207ZM13.6391 11.1669L13.8912 11.4227C14.164 11.6994 14.6099 11.701 14.8847 11.4262L18.0344 8.27635C18.503 7.80771 18.503 7.04794 18.0344 6.57931L14.8847 3.42963C14.6099 3.15488 14.164 3.15648 13.8912 3.4332L13.6391 3.68897C13.3691 3.9629 13.3707 4.40337 13.6426 4.67535L15.5164 6.5491H9.90823C9.52163 6.5491 9.20823 6.8625 9.20823 7.2491V7.60677C9.20823 7.99337 9.52163 8.30677 9.90823 8.30677H15.5164L13.6426 10.1805C13.3707 10.4525 13.3691 10.893 13.6391 11.1669Z" fill="#285EFF"/>
</svg>
