<svg width="16" height="16" viewBox="0 0 16 16" fill="none" xmlns="http://www.w3.org/2000/svg">
<path d="M8 16C12.4183 16 16 12.4183 16 8C16 3.58172 12.4183 0 8 0C3.58172 0 0 3.58172 0 8C0 12.4183 3.58172 16 8 16Z" fill="#26A17B"/>
<path d="M8.85259 8.73831V8.73702C8.79728 8.74088 8.51175 8.7576 7.87638 8.7576C7.36835 8.7576 7.01208 8.74345 6.88603 8.73702V8.73831C4.93233 8.65213 3.4751 8.31258 3.4751 7.90487C3.4751 7.49844 4.93362 7.1576 6.88603 7.07143V8.40004C7.01336 8.40905 7.37992 8.43091 7.88539 8.43091C8.49246 8.43091 8.796 8.40519 8.85259 8.40004V7.07271C10.8024 7.16017 12.2558 7.49972 12.2558 7.90615C12.2558 8.31258 10.8011 8.65213 8.85259 8.73959M8.85259 6.93509V5.74667H11.5728V3.93445H4.16706V5.74667H6.88732V6.93509C4.67638 7.0367 3.01465 7.474 3.01465 7.99876C3.01465 8.52352 4.67767 8.96081 6.88732 9.06371V12.8734H8.85388V9.06371C11.0609 8.9621 12.7201 8.5248 12.7201 8.00004C12.7201 7.47657 11.0609 7.03799 8.85388 6.93638" fill="white"/>
</svg>
