<svg width="22" height="22" viewBox="0 0 22 22" fill="none" xmlns="http://www.w3.org/2000/svg">
<g id="tabBar/Wallet">
<path id="Fill 1" d="M9.82403 4.79318C7.55493 5.78861 5.91218 8.48813 6.71963 11.4856C7.28899 13.1436 8.37257 14.3392 10.0741 14.9431C13.0495 15.9992 16.2066 13.6453 15.7546 10.6242C15.5623 9.33871 14.7386 8.492 13.6103 8.17721C12.6446 7.95105 11.6702 8.1196 10.969 8.78886C10.482 9.25364 10.1998 9.991 10.3514 10.7706C10.4956 11.2479 10.7254 11.5449 11.3131 11.6867C11.6362 11.7646 12.0487 11.6867 12.1753 11.3949C12.2611 11.1971 12.1816 11.0351 12.1232 10.8476C11.9642 10.3379 12.0674 10.0441 12.3455 9.79223C12.7185 9.42314 13.3522 9.41726 13.7544 9.70072C14.2718 9.96549 14.6836 10.8086 14.199 12.1042C13.6444 13.4371 12.1992 13.8387 10.8517 13.4895C8.9038 12.9846 7.84206 10.7706 8.3086 9.0104C9.08484 6.08176 12.349 5.17571 15.0635 6.51985C16.8952 7.55111 18.0422 9.21513 18.0086 11.4755C17.8653 15.1928 14.1048 17.9345 10.3435 17.2176C6.56644 16.4262 4.29917 13.155 4.2491 9.95042C4.23048 8.75907 4.45758 7.55656 5.07905 6.289C6.55423 3.50195 9.11687 2.19782 12.3796 2.00285C13.2355 1.9517 13.8562 2.00285 14.9388 2.10966C14.8952 2.09035 14.7958 2.04146 14.6923 2.00285C13.1477 1.42444 11.5513 1.23999 9.91553 1.47333C8.86364 1.62337 8.00104 1.92448 7.14987 2.31639C6.78324 2.44509 6.7288 2.13379 6.44562 1.89767C6.31335 1.78758 6.32649 1.92745 6.32649 1.92745C6.44192 2.4767 6.18548 2.75379 6.14646 2.7809C6.01012 2.91404 5.67865 3.16052 5.45057 3.26031C4.98001 3.46618 4.76162 3.12725 4.38685 2.93637C4.1301 2.80574 4.23048 3.022 4.23048 3.022C4.54844 3.65381 4.3258 4.23309 4.27445 4.32428C4.05558 4.64149 3.87251 4.86668 3.57733 5.13356C3.0589 5.60228 2.44305 5.15015 2.25967 5.08172C1.91386 4.95268 2.1642 5.24753 2.1642 5.24753C2.30201 5.43075 2.79878 6.48253 2.64461 6.81569C1.76587 8.63622 1.47844 10.7342 1.86655 12.8283C3.3103 20.0534 11.5227 22.559 16.6333 19.0673C19.3453 17.0636 20.2705 13.9447 20.3013 11.9997C20.3321 10.0547 19.8427 8.64031 18.9398 7.37786C16.798 4.38353 12.9227 3.43384 9.82403 4.79318Z" fill="#5B8EF4"/>
</g>
</svg>
