<svg width="20" height="20" viewBox="0 0 20 20" fill="none" xmlns="http://www.w3.org/2000/svg">
<g id="Name=Withdraw, Status=Default">
<g id="Union">
<path d="M4.44449 2.17578C2.93594 2.17578 1.71301 3.39871 1.71301 4.90726V15.0924C1.71301 16.601 2.93594 17.8239 4.44449 17.8239L8.17856 17.8239L8.19449 17.8239V17.8238C8.67295 17.8153 9.05819 17.4248 9.05819 16.9443C9.05819 16.4638 8.67295 16.0733 8.19449 16.0648V16.0647H8.17856H4.44449C3.90755 16.0647 3.47227 15.6294 3.47227 15.0924V4.90726C3.47227 4.37032 3.90755 3.93504 4.44449 3.93504H15.5556C16.0925 3.93504 16.5278 4.37032 16.5278 4.90726V6.74986C16.5278 6.75294 16.5278 6.75603 16.5278 6.75911C16.5278 6.7622 16.5278 6.76529 16.5278 6.76837V6.80541H16.529C16.5531 7.2697 16.9371 7.63874 17.4074 7.63874C17.8777 7.63874 18.2618 7.2697 18.2858 6.80541H18.2871V4.90726C18.2871 3.39871 17.0642 2.17578 15.5556 2.17578H4.44449ZM14.1146 8.94113C14.4401 8.61569 14.9677 8.61569 15.2931 8.94113L18.043 11.691C18.2074 11.8554 18.2888 12.0715 18.287 12.287L18.2871 12.2957C18.2871 12.341 18.2835 12.3854 18.2765 12.4287C18.2522 12.6015 18.1735 12.7681 18.0406 12.901L15.2908 15.6509C14.9654 15.9763 14.4377 15.9763 14.1123 15.6509C13.7868 15.3254 13.7868 14.7978 14.1123 14.4724L15.4556 13.129H9.86116C9.40092 13.129 9.02782 12.7559 9.02782 12.2957C9.02782 11.8355 9.40092 11.4624 9.86116 11.4624H15.4573L14.1146 10.1196C13.7892 9.7942 13.7892 9.26656 14.1146 8.94113Z" fill="#808080"/>
</g>
</g>
</svg>
