<svg width="20" height="20" viewBox="0 0 20 20" fill="none" xmlns="http://www.w3.org/2000/svg">
<g id="Frame 48097422" clip-path="url(#clip0_657_2213)">
<g id="Union">
<path d="M3.33344 0.610901C1.52318 0.610901 0.0556641 2.07841 0.0556641 3.88868V16.1109C0.0556641 17.9212 1.52318 19.3887 3.33344 19.3887L7.81432 19.3887L7.83344 19.3887V19.3885C8.40759 19.3783 8.86988 18.9097 8.86988 18.3331C8.86988 17.7565 8.40759 17.2879 7.83344 17.2777V17.2776H7.81432H3.33344C2.68911 17.2776 2.16678 16.7552 2.16678 16.1109V3.88868C2.16678 3.24435 2.68911 2.72201 3.33344 2.72201H16.6668C17.3111 2.72201 17.8334 3.24435 17.8334 3.88868V6.09979C17.8334 6.10349 17.8334 6.10719 17.8334 6.1109C17.8334 6.11461 17.8334 6.11831 17.8334 6.12201V6.16646H17.8348C17.8637 6.7236 18.3246 7.16646 18.8889 7.16646C19.4533 7.16646 19.9142 6.7236 19.9431 6.16646H19.9446V3.88868C19.9446 2.07841 18.477 0.610901 16.6668 0.610901H3.33344ZM14.9376 8.72931C15.3281 8.33879 15.9613 8.33879 16.3518 8.72931L19.6516 12.0291C19.849 12.2265 19.9466 12.4858 19.9445 12.7444L19.9445 12.7548C19.9445 12.8091 19.9402 12.8625 19.9319 12.9144C19.9026 13.1218 19.8083 13.3217 19.6488 13.4812L16.349 16.781C15.9585 17.1715 15.3253 17.1715 14.9348 16.781C14.5443 16.3905 14.5443 15.7573 14.9348 15.3668L16.5468 13.7548H9.83344C9.28115 13.7548 8.83344 13.3071 8.83344 12.7548C8.83344 12.2025 9.28115 11.7548 9.83344 11.7548H16.5489L14.9376 10.1435C14.5471 9.753 14.5471 9.11984 14.9376 8.72931Z" fill="#808080"/>
</g>
</g>
<defs>
<clipPath id="clip0_657_2213">
<rect width="20" height="20" fill="white"/>
</clipPath>
</defs>
</svg>
