<svg width="16" height="16" viewBox="0 0 16 16" fill="none" xmlns="http://www.w3.org/2000/svg">
<path d="M8 0C12.4187 0 16 3.58125 16 8C16 12.4187 12.4187 16 8 16C3.58125 16 0 12.4187 0 8C0 3.58125 3.58125 0 8 0Z" fill="#0052FF"/>
<path d="M8.00154 10.8125C6.44846 10.8125 5.18906 9.55469 5.18906 8C5.18906 6.44531 6.44846 5.1875 8.00154 5.1875C9.39377 5.1875 10.55 6.20314 10.7719 7.53126H13.6047C13.3656 4.64375 10.9485 2.375 8 2.375C4.89375 2.375 2.375 4.89375 2.375 8C2.375 11.1062 4.89375 13.625 8 13.625C10.9485 13.625 13.3656 11.3562 13.6047 8.46874H10.7703C10.5469 9.79686 9.39377 10.8125 8.00154 10.8125Z" fill="white"/>
</svg>
