<svg width="16" height="16" viewBox="0 0 16 16" fill="none" xmlns="http://www.w3.org/2000/svg">
<g id="facebook 1">
<g id="metamask">
<path id="&#232;&#183;&#175;&#229;&#190;&#132;" d="M4.57764 13.9892L6.67394 14.5454V13.8181L6.84507 13.647H8.04293V14.5026V15.1015H6.7595L5.17657 14.417L4.57764 13.9892Z" fill="#CDBDB2"/>
<path id="&#232;&#183;&#175;&#229;&#190;&#132;_2" d="M11.4224 13.9892L9.36888 14.5454V13.8181L9.19775 13.647H7.99989V14.5026V15.1015H9.28332L10.8662 14.417L11.4224 13.9892Z" fill="#CDBDB2"/>
<path id="&#232;&#183;&#175;&#229;&#190;&#132;_3" d="M6.84495 12.4064L6.67383 13.8182L6.88769 13.6471H9.1123L9.36899 13.8182L9.19787 12.4064L8.85562 12.1925L7.14438 12.2353L6.84495 12.4064Z" fill="#393939"/>
<path id="&#232;&#183;&#175;&#229;&#190;&#132;_4" d="M5.68994 2.86633L6.71668 5.26207L7.18731 12.2354H8.85573L9.3691 5.26207L10.3103 2.86633H5.68994Z" fill="#F89C35"/>
<path id="&#232;&#183;&#175;&#229;&#190;&#132;_5" d="M1.19787 8.12828L0 11.5935L2.99467 11.4224H4.91977V9.92508L4.83421 6.84485L4.4064 7.1871L1.19787 8.12828Z" fill="#F89D35"/>
<path id="&#232;&#183;&#175;&#229;&#190;&#132;_6" d="M3.46533 8.51343L6.97337 8.59899L6.58838 10.3958L4.91988 9.96798L3.46533 8.51343Z" fill="#D87C30"/>
<path id="&#232;&#183;&#175;&#229;&#190;&#132;_7" d="M3.46533 8.55615L4.91988 9.92514V11.2941L3.46533 8.55615Z" fill="#EA8D3A"/>
<path id="&#232;&#183;&#175;&#229;&#190;&#132;_8" d="M4.91992 9.96802L6.63116 10.3958L7.18735 12.2354L6.80228 12.4493L4.91992 11.337V9.96802Z" fill="#F89D35"/>
<path id="&#232;&#183;&#175;&#229;&#190;&#132;_9" d="M4.91988 11.3369L4.57764 13.9893L6.84507 12.4065L4.91988 11.3369Z" fill="#EB8F35"/>
<path id="&#232;&#183;&#175;&#229;&#190;&#132;_10" d="M6.97322 8.59888L7.18716 12.2353L6.54541 10.3743L6.97322 8.59888Z" fill="#EA8E3A"/>
<path id="&#232;&#183;&#175;&#229;&#190;&#132;_11" d="M2.95166 11.3797L4.91958 11.3369L4.57734 13.9893L2.95166 11.3797Z" fill="#D87C30"/>
<path id="&#232;&#183;&#175;&#229;&#190;&#132;_12" d="M0.941181 15.1445L4.57752 13.9894L2.95185 11.3798L0 11.5936L0.941181 15.1445Z" fill="#EB8F35"/>
<path id="&#232;&#183;&#175;&#229;&#190;&#132;_13" d="M6.71668 5.26196L4.87714 6.80208L3.46533 8.51332L6.97337 8.6417L6.71668 5.26196Z" fill="#E8821E"/>
<path id="&#232;&#183;&#175;&#229;&#190;&#132;_14" d="M4.57764 13.9894L6.84507 12.4065L6.67394 13.7755V14.5455L5.13383 14.246L4.57764 13.9894Z" fill="#DFCEC3"/>
<path id="&#232;&#183;&#175;&#229;&#190;&#132;_15" d="M11.4224 13.9894L9.19775 12.4065L9.36888 13.7755V14.5455L10.909 14.246L11.4224 13.9894Z" fill="#DFCEC3"/>
<path id="&#232;&#183;&#175;&#229;&#190;&#132;_16" d="M6.0323 9.36902L6.50293 10.353L4.83443 9.92521L6.0323 9.36902Z" fill="#393939"/>
<path id="&#232;&#183;&#175;&#229;&#190;&#132;_17" d="M0.898438 0.855591L6.71665 5.26199L5.73272 2.86626L0.898438 0.855591Z" fill="#E88F35"/>
<path id="&#232;&#183;&#175;&#229;&#190;&#132;_18" d="M0.898475 0.855591L0.128418 3.20854L0.556228 5.7754L0.256761 5.94652L0.68457 6.33155L0.342323 6.63102L0.812913 7.05883L0.513447 7.31552L1.19794 8.17113L4.40651 7.18717C5.97515 5.93226 6.7452 5.29055 6.71668 5.26203C6.68816 5.23351 4.74876 3.7647 0.898475 0.855591Z" fill="#8E5A30"/>
<g id="&#231;&#188;&#150;&#231;&#187;&#132;">
<path id="&#232;&#183;&#175;&#229;&#190;&#132;_19" d="M14.8021 8.12828L16 11.5935L13.0053 11.4224H11.0802V9.92508L11.1658 6.84485L11.5936 7.1871L14.8021 8.12828Z" fill="#F89D35"/>
<path id="&#232;&#183;&#175;&#229;&#190;&#132;_20" d="M12.5347 8.51343L9.02663 8.59899L9.41162 10.3958L11.0801 9.96798L12.5347 8.51343Z" fill="#D87C30"/>
<path id="&#232;&#183;&#175;&#229;&#190;&#132;_21" d="M12.5347 8.55615L11.0801 9.92514V11.2941L12.5347 8.55615Z" fill="#EA8D3A"/>
<path id="&#232;&#183;&#175;&#229;&#190;&#132;_22" d="M11.0801 9.96802L9.36884 10.3958L8.81265 12.2354L9.19772 12.4493L11.0801 11.337V9.96802Z" fill="#F89D35"/>
<path id="&#232;&#183;&#175;&#229;&#190;&#132;_23" d="M11.0801 11.3369L11.4224 13.9893L9.19775 12.4492L11.0801 11.3369Z" fill="#EB8F35"/>
<path id="&#232;&#183;&#175;&#229;&#190;&#132;_24" d="M9.02678 8.59888L8.81284 12.2353L9.45459 10.3743L9.02678 8.59888Z" fill="#EA8E3A"/>
<path id="&#232;&#183;&#175;&#229;&#190;&#132;_25" d="M13.0483 11.3797L11.0804 11.3369L11.4227 13.9893L13.0483 11.3797Z" fill="#D87C30"/>
<path id="&#232;&#183;&#175;&#229;&#190;&#132;_26" d="M15.0588 15.1445L11.4225 13.9894L13.0482 11.3798L16 11.5936L15.0588 15.1445Z" fill="#EB8F35"/>
<path id="&#232;&#183;&#175;&#229;&#190;&#132;_27" d="M9.28332 5.26196L11.1229 6.80208L12.5347 8.51332L9.02663 8.6417L9.28332 5.26196Z" fill="#E8821E"/>
<path id="&#232;&#183;&#175;&#229;&#190;&#132;_28" d="M9.9677 9.36902L9.49707 10.353L11.1656 9.92521L9.9677 9.36902Z" fill="#393939"/>
<path id="&#232;&#183;&#175;&#229;&#190;&#132;_29" d="M15.1016 0.855591L9.28335 5.26199L10.2673 2.86626L15.1016 0.855591Z" fill="#E88F35"/>
<path id="&#232;&#183;&#175;&#229;&#190;&#132;_30" d="M15.1015 0.855591L15.8716 3.20854L15.4438 5.7754L15.7432 5.94652L15.3154 6.33155L15.6577 6.63102L15.1871 7.05883L15.4866 7.31552L14.8021 8.17113L11.5935 7.18717C10.0249 5.93226 9.2548 5.29055 9.28332 5.26203C9.31184 5.23351 11.2512 3.7647 15.1015 0.855591Z" fill="#8E5A30"/>
</g>
</g>
</g>
</svg>
