<svg width="28" height="28" viewBox="0 0 28 28" fill="none" xmlns="http://www.w3.org/2000/svg">
<path d="M8.01074 24.4812L11.6793 25.4545V24.1817L11.9787 23.8823H14.075V25.3796V26.4277H11.829L9.05888 25.2299L8.01074 24.4812Z" fill="#CDBDB2"/>
<path d="M19.9893 24.4812L16.3957 25.4545V24.1817L16.0962 23.8823H13.9999V25.3796V26.4277H16.2459L19.0159 25.2299L19.9893 24.4812Z" fill="#CDBDB2"/>
<path d="M11.9787 21.7112L11.6792 24.1817L12.0535 23.8823H15.9465L16.3957 24.1817L16.0963 21.7112L15.4973 21.3368L12.5027 21.4117L11.9787 21.7112Z" fill="#393939"/>
<path d="M9.95728 5.01593L11.7541 9.20846L12.5777 21.4118H15.4974L16.3958 9.20846L18.0429 5.01593H9.95728Z" fill="#F89C35"/>
<path d="M2.09627 14.2246L0 20.2887L5.24067 19.9892H8.6096V17.369L8.45987 11.9786L7.7112 12.5775L2.09627 14.2246Z" fill="#F89D35"/>
<path d="M6.06421 14.8984L12.2033 15.0482L11.5295 18.1926L8.60968 17.4439L6.06421 14.8984Z" fill="#D87C30"/>
<path d="M6.06421 14.9733L8.60968 17.369V19.7647L6.06421 14.9733Z" fill="#EA8D3A"/>
<path d="M8.60962 17.4439L11.6043 18.1926L12.5776 21.4119L11.9038 21.7862L8.60962 19.8396V17.4439Z" fill="#F89D35"/>
<path d="M8.60968 19.8396L8.01074 24.4813L11.9787 21.7113L8.60968 19.8396Z" fill="#EB8F35"/>
<path d="M12.2033 15.048L12.5777 21.4118L11.4546 18.155L12.2033 15.048Z" fill="#EA8E3A"/>
<path d="M5.16577 19.9145L8.60964 19.8396L8.0107 24.4813L5.16577 19.9145Z" fill="#D87C30"/>
<path d="M1.64707 26.5029L8.01067 24.4814L5.16573 19.9146L0 20.2889L1.64707 26.5029Z" fill="#EB8F35"/>
<path d="M11.7541 9.20844L8.53488 11.9036L6.06421 14.8983L12.2033 15.123L11.7541 9.20844Z" fill="#E8821E"/>
<path d="M8.01074 24.4812L11.9787 21.7112L11.6793 24.107V25.4546L8.98408 24.9304L8.01074 24.4812Z" fill="#DFCEC3"/>
<path d="M19.9893 24.4812L16.0962 21.7112L16.3957 24.107V25.4546L19.0909 24.9304L19.9893 24.4812Z" fill="#DFCEC3"/>
<path d="M10.556 16.3957L11.3796 18.1177L8.45977 17.369L10.556 16.3957Z" fill="#393939"/>
<path d="M1.57202 1.49725L11.7539 9.20845L10.032 5.01592L1.57202 1.49725Z" fill="#E88F35"/>
<path d="M1.57197 1.49725L0.224365 5.61492L0.973032 10.1069L0.448965 10.4064L1.19763 11.0802L0.598699 11.6043L1.42223 12.3529L0.898165 12.8021L2.09603 14.2995L7.71103 12.5775C10.4561 10.3814 11.8037 9.25843 11.7538 9.20852C11.7039 9.15861 8.30997 6.58819 1.57197 1.49725Z" fill="#8E5A30"/>
<path d="M25.9037 14.2246L28 20.2887L22.7593 19.9892H19.3904V17.369L19.5401 11.9786L20.2888 12.5775L25.9037 14.2246Z" fill="#F89D35"/>
<path d="M21.9358 14.8984L15.7967 15.0482L16.4705 18.1926L19.3903 17.4439L21.9358 14.8984Z" fill="#D87C30"/>
<path d="M21.9358 14.9733L19.3903 17.369V19.7647L21.9358 14.9733Z" fill="#EA8D3A"/>
<path d="M19.3904 17.4439L16.3957 18.1926L15.4224 21.4119L16.0962 21.7862L19.3904 19.8396V17.4439Z" fill="#F89D35"/>
<path d="M19.3903 19.8396L19.9893 24.4813L16.0962 21.7861L19.3903 19.8396Z" fill="#EB8F35"/>
<path d="M15.7967 15.048L15.4223 21.4118L16.5454 18.155L15.7967 15.048Z" fill="#EA8E3A"/>
<path d="M22.8342 19.9145L19.3904 19.8396L19.9893 24.4813L22.8342 19.9145Z" fill="#D87C30"/>
<path d="M26.3529 26.5029L19.9893 24.4814L22.8343 19.9146L28 20.2889L26.3529 26.5029Z" fill="#EB8F35"/>
<path d="M16.2459 9.20844L19.4651 11.9036L21.9358 14.8983L15.7967 15.123L16.2459 9.20844Z" fill="#E8821E"/>
<path d="M17.444 16.3957L16.6204 18.1177L19.5402 17.369L17.444 16.3957Z" fill="#393939"/>
<path d="M26.428 1.49725L16.2461 9.20845L17.968 5.01592L26.428 1.49725Z" fill="#E88F35"/>
<path d="M26.428 1.49725L27.7756 5.61492L27.027 10.1069L27.551 10.4064L26.8024 11.0802L27.4013 11.6043L26.5778 12.3529L27.1018 12.8021L25.904 14.2995L20.289 12.5775C17.5439 10.3814 16.1963 9.25843 16.2462 9.20852C16.2961 9.15861 19.69 6.58819 26.428 1.49725Z" fill="#8E5A30"/>
</svg>
