<svg width="16" height="16" viewBox="0 0 16 16" fill="none" xmlns="http://www.w3.org/2000/svg">
<g clip-path="url(#clip0_12549_5480)">
<mask id="mask0_12549_5480" style="mask-type:luminance" maskUnits="userSpaceOnUse" x="0" y="0" width="16" height="16">
<path d="M16 0H0V16H16V0Z" fill="white"/>
</mask>
<g mask="url(#mask0_12549_5480)">
<path d="M12 0H4C1.79086 0 0 1.79086 0 4V12C0 14.2091 1.79086 16 4 16H12C14.2091 16 16 14.2091 16 12V4C16 1.79086 14.2091 0 12 0Z" fill="url(#paint0_linear_12549_5480)"/>
<path fill-rule="evenodd" clip-rule="evenodd" d="M8.36895 4.95712C8.95266 4.95712 9.42586 4.48395 9.42586 3.90026C9.42586 3.31657 8.95266 2.8434 8.36895 2.8434C7.78529 2.8434 7.31209 3.31657 7.31209 3.90026C7.31209 4.48395 7.78529 4.95712 8.36895 4.95712ZM13.1429 8.00011C13.1429 9.1876 12.1802 10.1503 10.9927 10.1503C9.80523 10.1503 8.84255 9.1876 8.84255 8.00011C8.84255 6.81257 9.80523 5.84994 10.9927 5.84994C12.1802 5.84994 13.1429 6.81257 13.1429 8.00011ZM9.42586 12.0997C9.42586 12.6834 8.95266 13.1565 8.36895 13.1565C7.78529 13.1565 7.31209 12.6834 7.31209 12.0997C7.31209 11.516 7.78529 11.0428 8.36895 11.0428C8.95266 11.0428 9.42586 11.516 9.42586 12.0997ZM2.95703 5.03012C2.64726 5.85011 3.08458 6.77943 3.90456 7.0892C4.45121 7.2896 5.03431 7.18028 5.45341 6.83406C5.83609 6.56074 6.32803 6.46966 6.8018 6.65183C7.11157 6.7612 7.34849 6.9616 7.51249 7.21674L7.53072 7.2532C7.60357 7.36251 7.71289 7.47183 7.85866 7.50828C8.18666 7.63583 8.56935 7.4536 8.67866 7.1256C8.8062 6.79766 8.62398 6.41497 8.29603 6.30566C8.15026 6.25097 8.00449 6.25097 7.85866 6.30566C7.56712 6.39674 7.23917 6.39674 6.9294 6.28743C6.47386 6.12343 6.16409 5.75897 6.03649 5.33989L6.01826 5.30344C6.01826 5.28522 6.01826 5.267 6.00009 5.267V5.23056C5.87249 4.72035 5.5263 4.28303 4.99787 4.10081C4.17789 3.77282 3.24858 4.19192 2.95703 5.03012ZM3.90456 8.91114C3.08458 9.22091 2.64726 10.1502 2.95703 10.9702C3.2668 11.8084 4.17789 12.2275 4.99787 11.8995C5.5263 11.7173 5.87249 11.2799 6.00009 10.7698V10.7333C6.01826 10.7333 6.01826 10.7151 6.01826 10.6969L6.03649 10.6604C6.16409 10.2413 6.47386 9.87691 6.9294 9.71291C7.23917 9.60354 7.56712 9.60354 7.85866 9.69468C8.00449 9.74931 8.15026 9.74931 8.29603 9.69468C8.62398 9.58531 8.8062 9.20268 8.67866 8.87468C8.56935 8.54668 8.18666 8.36446 7.85866 8.49206C7.71289 8.52846 7.60357 8.63783 7.53072 8.74714L7.51249 8.7836C7.34849 9.03868 7.11157 9.23914 6.8018 9.34846C6.32803 9.53068 5.83609 9.43954 5.45341 9.16623C5.03431 8.82 4.45121 8.71068 3.90456 8.91114Z" fill="white"/>
</g>
</g>
<defs>
<linearGradient id="paint0_linear_12549_5480" x1="0" y1="8" x2="16" y2="8" gradientUnits="userSpaceOnUse">
<stop stop-color="#9913DA"/>
<stop offset="1" stop-color="#7134CF"/>
</linearGradient>
<clipPath id="clip0_12549_5480">
<rect width="16" height="16" fill="white"/>
</clipPath>
</defs>
</svg>
