<svg width="28" height="28" viewBox="0 0 28 28" fill="none" xmlns="http://www.w3.org/2000/svg">
<g id="Icons/Wallet" clip-path="url(#clip0_11459_43823)">
<rect id="Rectangle 34624808" width="28" height="28" rx="7" fill="url(#paint0_linear_11459_43823)"/>
<path id="Shape" fill-rule="evenodd" clip-rule="evenodd" d="M14.6455 8.67496C15.667 8.67496 16.4951 7.84691 16.4951 6.82546C16.4951 5.804 15.667 4.97595 14.6455 4.97595C13.6241 4.97595 12.796 5.804 12.796 6.82546C12.796 7.84691 13.6241 8.67496 14.6455 8.67496ZM22.9999 14.0002C22.9999 16.0783 21.3152 17.763 19.2371 17.763C17.159 17.763 15.4743 16.0783 15.4743 14.0002C15.4743 11.922 17.159 10.2374 19.2371 10.2374C21.3152 10.2374 22.9999 11.922 22.9999 14.0002ZM16.4951 21.1744C16.4951 22.1959 15.667 23.0239 14.6455 23.0239C13.6241 23.0239 12.796 22.1959 12.796 21.1744C12.796 20.153 13.6241 19.3249 14.6455 19.3249C15.667 19.3249 16.4951 20.153 16.4951 21.1744ZM5.17465 8.80271C4.63255 10.2377 5.39786 11.864 6.83283 12.4061C7.78947 12.7568 8.80989 12.5655 9.54332 11.9596C10.213 11.4813 11.0739 11.3219 11.903 11.6407C12.4451 11.8321 12.8597 12.1828 13.1467 12.6293L13.1786 12.6931C13.3061 12.8844 13.4974 13.0757 13.7525 13.1395C14.3265 13.3627 14.9962 13.0438 15.1875 12.4698C15.4107 11.8959 15.0918 11.2262 14.5179 11.0349C14.2628 10.9392 14.0077 10.9392 13.7525 11.0349C13.2423 11.1943 12.6684 11.1943 12.1263 11.003C11.3291 10.716 10.787 10.0782 10.5637 9.34481L10.5318 9.28103C10.5318 9.24914 10.5318 9.21725 10.5 9.21725V9.15348C10.2767 8.26061 9.67087 7.4953 8.74611 7.17642C7.31115 6.60243 5.68486 7.33586 5.17465 8.80271ZM6.83283 15.5945C5.39786 16.1366 4.63255 17.7629 5.17465 19.1978C5.71674 20.6647 7.31115 21.3981 8.74611 20.8241C9.67087 20.5053 10.2767 19.7399 10.5 18.8471V18.7833C10.5318 18.7833 10.5318 18.7514 10.5318 18.7195L10.5637 18.6557C10.787 17.9223 11.3291 17.2846 12.1263 16.9976C12.6684 16.8062 13.2423 16.8062 13.7525 16.9657C14.0077 17.0613 14.2628 17.0613 14.5179 16.9657C15.0918 16.7743 15.4107 16.1047 15.1875 15.5307C14.9962 14.9567 14.3265 14.6378 13.7525 14.8611C13.4974 14.9248 13.3061 15.1162 13.1786 15.3075L13.1467 15.3713C12.8597 15.8177 12.4451 16.1685 11.903 16.3598C11.0739 16.6787 10.213 16.5192 9.54332 16.0409C8.80989 15.435 7.78947 15.2437 6.83283 15.5945Z" fill="white"/>
</g>
<defs>
<linearGradient id="paint0_linear_11459_43823" x1="0" y1="14" x2="28" y2="14" gradientUnits="userSpaceOnUse">
<stop stop-color="#9913DA"/>
<stop offset="1" stop-color="#7134CF"/>
</linearGradient>
<clipPath id="clip0_11459_43823">
<rect width="28" height="28" fill="white"/>
</clipPath>
</defs>
</svg>
