<svg width="28" height="28" viewBox="0 0 28 28" fill="none" xmlns="http://www.w3.org/2000/svg">
<path d="M3.30781 25.0282C6.87506 25.0282 9.55589 21.9259 11.1558 19.4744C10.9612 20.0168 10.853 20.5592 10.853 21.0798C10.853 22.5117 11.6746 23.5313 13.2961 23.5313C15.5229 23.5313 17.9011 21.5788 19.1334 19.4744C19.0469 19.7782 19.0037 20.0602 19.0037 20.3205C19.0037 21.3185 19.5658 21.9476 20.7116 21.9476C24.3221 21.9476 27.9542 15.5477 27.9542 9.95055C27.9542 5.58993 25.749 1.75 20.2144 1.75C10.4856 1.75 0 13.6386 0 21.3185C0 24.334 1.62147 25.0282 3.30781 25.0282ZM16.8633 9.47328C16.8633 8.38855 17.4687 7.62924 18.3551 7.62924C19.2199 7.62924 19.8252 8.38855 19.8252 9.47328C19.8252 10.558 19.2199 11.339 18.3551 11.339C17.4687 11.339 16.8633 10.558 16.8633 9.47328ZM21.4899 9.47328C21.4899 8.38855 22.0953 7.62924 22.9817 7.62924C23.8465 7.62924 24.4518 8.38855 24.4518 9.47328C24.4518 10.558 23.8465 11.339 22.9817 11.339C22.0953 11.339 21.4899 10.558 21.4899 9.47328Z" fill="#AB9FF2"/>
</svg>
