<svg width="16" height="16" viewBox="0 0 16 16" fill="none" xmlns="http://www.w3.org/2000/svg">
<g id="Icons/Wallet">
<path id="Vector" d="M1.89017 14.3019C3.92861 14.3019 5.46051 12.5291 6.37472 11.1282C6.26353 11.4382 6.20174 11.7481 6.20174 12.0456C6.20174 12.8638 6.67122 13.4465 7.59776 13.4465C8.87023 13.4465 10.2292 12.3308 10.9334 11.1282C10.8839 11.3018 10.8593 11.463 10.8593 11.6117C10.8593 12.182 11.1804 12.5415 11.8352 12.5415C13.8984 12.5415 15.9738 8.88441 15.9738 5.68603C15.9738 3.19425 14.7137 1 11.5511 1C5.99174 1 0 7.7935 0 12.182C0 13.9051 0.926557 14.3019 1.89017 14.3019ZM9.63618 5.4133C9.63618 4.79346 9.98211 4.35957 10.4886 4.35957C10.9828 4.35957 11.3287 4.79346 11.3287 5.4133C11.3287 6.03315 10.9828 6.47942 10.4886 6.47942C9.98211 6.47942 9.63618 6.03315 9.63618 5.4133ZM12.28 5.4133C12.28 4.79346 12.6259 4.35957 13.1324 4.35957C13.6265 4.35957 13.9725 4.79346 13.9725 5.4133C13.9725 6.03315 13.6265 6.47942 13.1324 6.47942C12.6259 6.47942 12.28 6.03315 12.28 5.4133Z" fill="#AB9FF2"/>
</g>
</svg>
