<svg width="16" height="16" viewBox="0 0 16 16" fill="none" xmlns="http://www.w3.org/2000/svg">
<g id="Icons/Wallet" clip-path="url(#clip0_11365_2156)">
<rect id="Rectangle 34624808" width="16" height="16" rx="4" fill="#6558FF"/>
<path id="Shape" d="M7.5425 4.77692C6.16119 5.38284 5.29247 6.86477 5.79821 8.33743C6.10404 9.228 6.72034 9.86261 7.6343 10.187C9.23251 10.7543 10.9009 9.50691 10.7138 7.88553C10.6343 7.19642 10.2844 6.6717 9.57365 6.45457C9.04495 6.29305 8.53899 6.36851 8.12614 6.75268C7.77574 7.07837 7.6429 7.47952 7.78324 7.94577C7.86069 8.20217 8.0467 8.36171 8.2998 8.43783C8.522 8.50447 8.69389 8.40804 8.82628 8.22357C8.79958 8.179 8.77619 8.13024 8.74376 8.08831C8.57098 7.86501 8.7111 7.5402 8.86048 7.40494C9.06349 7.22113 9.39227 7.20436 9.60829 7.35661C9.95869 7.60309 10.118 8.25866 9.92758 8.66996C9.60895 9.35797 8.78965 9.75846 8.03788 9.56362C6.85096 9.25603 6.26578 8.08412 6.64884 6.95127C7.1579 5.44595 8.86887 4.78751 10.327 5.5095C11.5057 6.09291 11.9433 7.11168 11.8963 8.32441C11.8193 10.3211 9.80445 11.8024 7.78412 11.4174C5.82469 11.044 4.36968 9.16777 4.47405 7.39346C4.51244 6.73833 4.6583 6.12491 4.99348 5.56201C5.86551 4.09818 7.22387 3.40929 8.92293 3.29785C9.3702 3.26851 9.82122 3.29344 10.2473 3.29366C10.2239 3.28329 10.1705 3.25703 10.1149 3.23629C9.28525 2.92561 8.42778 2.82653 7.54912 2.95186C7.00432 3.01894 6.50144 3.16612 6.04424 3.37663C6.03586 3.37795 6.02593 3.38082 6.01379 3.3859C5.80814 3.4735 5.77372 3.27226 5.70068 3.21136C5.62963 3.15222 5.6389 3.2257 5.6389 3.2257C5.7009 3.52072 5.54556 3.63965 5.5246 3.65421C5.39507 3.73431 5.27084 3.82081 5.1508 3.91172C5.14727 3.91327 5.14463 3.91326 5.14087 3.91503C4.85733 4.04434 4.7395 3.82588 4.60909 3.75947C4.47118 3.6893 4.52326 3.80448 4.52326 3.80448C4.69404 4.14385 4.54665 4.43424 4.51906 4.48322C4.39814 4.61363 4.28495 4.75066 4.17903 4.89298C4.168 4.90004 4.15719 4.90666 4.14461 4.91792C3.86614 5.16968 3.64946 4.97043 3.47734 4.93292C3.28758 4.89188 3.39504 5.01611 3.39504 5.01611C3.7461 5.37556 3.63511 5.80782 3.63511 5.80782L3.63599 5.80827C3.18497 6.78291 3.02301 7.9109 3.21035 9.04331C3.8262 12.7656 8.40461 14.5235 11.4058 12.1257C12.3804 11.347 13.0565 9.84695 13.1278 8.60597C13.1785 7.72467 12.906 6.92479 12.4036 6.20059C11.3376 4.66394 9.20692 4.04676 7.5425 4.77692Z" fill="white"/>
</g>
<defs>
<clipPath id="clip0_11365_2156">
<rect width="16" height="16" fill="white"/>
</clipPath>
</defs>
</svg>
