<svg width="28" height="28" viewBox="0 0 28 28" fill="none" xmlns="http://www.w3.org/2000/svg">
<g clip-path="url(#clip0_11317_344)">
<rect width="28" height="28" rx="7" fill="#6558FF"/>
<path d="M13.1999 8.35957C10.7826 9.41994 9.2623 12.0133 10.1474 14.5905C10.6826 16.149 11.7611 17.2595 13.3605 17.8272C16.1574 18.82 19.0771 16.6371 18.7496 13.7996C18.6106 12.5937 17.9982 11.6754 16.7544 11.2955C15.8292 11.0128 14.9437 11.1449 14.2212 11.8172C13.608 12.3871 13.3756 13.0891 13.6212 13.9051C13.7567 14.3538 14.0822 14.633 14.5251 14.7662C14.914 14.8828 15.2148 14.714 15.4465 14.3912C15.3998 14.3132 15.3588 14.2279 15.3021 14.1545C14.9997 13.7637 15.2449 13.1953 15.5063 12.9586C15.8616 12.6369 16.437 12.6076 16.815 12.874C17.4282 13.3054 17.707 14.4526 17.3738 15.1724C16.8162 16.3764 15.3824 17.0773 14.0668 16.7363C11.9897 16.198 10.9656 14.1472 11.636 12.1647C12.5268 9.53038 15.521 8.37811 18.0727 9.64159C20.1355 10.6626 20.9012 12.4454 20.819 14.5677C20.6842 18.062 17.1583 20.6542 13.6227 19.9804C10.1937 19.327 7.64743 16.0436 7.83007 12.9385C7.89726 11.7921 8.15251 10.7186 8.73907 9.73349C10.2651 7.17178 12.6423 5.96622 15.6156 5.77121C16.3983 5.71986 17.1876 5.76349 17.9333 5.76388C17.8924 5.74573 17.7989 5.69978 17.7016 5.66348C16.2497 5.11978 14.7491 4.9464 13.2115 5.16573C12.258 5.28312 11.378 5.54068 10.5779 5.90907C10.5632 5.91139 10.5459 5.91641 10.5246 5.92529C10.1647 6.07859 10.1045 5.72642 9.97668 5.61984C9.85234 5.51636 9.86856 5.64494 9.86856 5.64494C9.97707 6.16123 9.70522 6.36936 9.66853 6.39485C9.44186 6.53502 9.22446 6.68639 9.01439 6.84548C9.00822 6.84818 9.00358 6.84818 8.99702 6.85127C8.50082 7.07756 8.29461 6.69527 8.0664 6.57904C7.82505 6.45624 7.91619 6.65781 7.91619 6.65781C8.21507 7.25171 7.95712 7.75988 7.90885 7.84561C7.69724 8.07382 7.49915 8.31362 7.31379 8.56269C7.29449 8.57504 7.27556 8.58663 7.25355 8.60632C6.76623 9.04692 6.38703 8.69823 6.08584 8.63258C5.75375 8.56076 5.9418 8.77816 5.9418 8.77816C6.55617 9.4072 6.36193 10.1637 6.36193 10.1637L6.36348 10.1644C5.57419 11.8701 5.29076 13.8441 5.6186 15.8258C6.69634 22.3397 14.7086 25.4162 19.9606 21.2199C21.6662 19.8572 22.8494 17.2321 22.9741 15.0604C23.0629 13.5181 22.586 12.1184 21.7067 10.851C19.8412 8.16186 16.1126 7.0818 13.1999 8.35957Z" fill="white"/>
</g>
<defs>
<clipPath id="clip0_11317_344">
<rect width="28" height="28" fill="white"/>
</clipPath>
</defs>
</svg>
