<svg xmlns="http://www.w3.org/2000/svg" width="24" height="24" viewBox="0 0 24 24" fill="none">
  <path d="M10.7171 5.22886C8.24174 6.31478 6.44965 9.25971 7.3305 12.5297C7.95163 14.3384 9.13371 15.6427 10.9899 16.3015C14.2358 17.4537 17.6799 14.8858 17.1868 11.5899C16.977 10.1876 16.0785 9.26393 14.8477 8.92052C13.7942 8.67381 12.7312 8.85768 11.9662 9.58778C11.4349 10.0948 11.1271 10.8992 11.2924 11.7496C11.4497 12.2704 11.7004 12.5944 12.3415 12.749C12.694 12.834 13.144 12.749 13.2821 12.4308C13.3758 12.2149 13.289 12.0382 13.2253 11.8337C13.0519 11.2777 13.1644 10.9571 13.4678 10.6824C13.8747 10.2797 14.566 10.2733 15.0048 10.5825C15.5692 10.8714 16.0185 11.7911 15.4898 13.2045C14.8848 14.6586 13.3082 15.0967 11.8382 14.7157C9.71323 14.165 8.55497 11.7496 9.06392 9.82946C9.91073 6.63458 13.4716 5.64616 16.4329 7.1125C18.4311 8.23751 19.6824 10.0528 19.6458 12.5187C19.4894 16.5739 15.387 19.5648 11.2838 18.7828C7.16339 17.9194 4.69 14.3509 4.63538 10.8549C4.61507 9.55529 4.86282 8.24345 5.54078 6.86066C7.15007 3.82024 9.94567 2.39755 13.505 2.18486C14.4387 2.12906 15.1158 2.18486 16.2968 2.30138C16.2493 2.28031 16.1409 2.22698 16.0279 2.18486C14.3429 1.55387 12.6014 1.35265 10.8169 1.6072C9.66943 1.77088 8.72841 2.09937 7.79986 2.5269C7.3999 2.66731 7.34051 2.32771 7.03159 2.07012C6.88729 1.95002 6.90162 2.10261 6.90162 2.10261C7.02755 2.70178 6.7478 3.00407 6.70523 3.03365C6.55649 3.17888 6.19489 3.44778 5.94607 3.55663C5.43274 3.78122 5.1945 3.41148 4.78565 3.20325C4.50556 3.06074 4.61507 3.29666 4.61507 3.29666C4.96194 3.98591 4.71906 4.61785 4.66304 4.71733C4.42427 5.06337 4.22455 5.30904 3.90254 5.60018C3.33698 6.11152 2.66515 5.61828 2.46509 5.54363C2.08785 5.40286 2.36095 5.72451 2.36095 5.72451C2.51128 5.92439 3.05322 7.07178 2.88503 7.43523C1.9264 9.42126 1.61284 11.7099 2.03624 13.9944C3.61123 21.8764 12.5702 24.6098 18.1454 20.8006C21.1039 18.6148 22.1133 15.2123 22.1469 13.0905C22.1805 10.9687 21.6466 9.42572 20.6616 8.04851C18.3251 4.78196 14.0975 3.74594 10.7171 5.22886Z" fill="#5B8EF4"/>
</svg>