<svg width="16" height="16" viewBox="0 0 16 16" fill="none" xmlns="http://www.w3.org/2000/svg">
<g id="Icons/Wallet" clip-path="url(#clip0_11365_2100)">
<rect id="Rectangle 34624808" width="16" height="16" rx="4" fill="#145DCC"/>
<path id="Vector" d="M23.1744 9.92702C22.1632 8.99339 20.7645 7.56765 19.6252 6.55649L19.5578 6.5093C19.4456 6.41923 19.3192 6.3486 19.1837 6.30033C16.4367 5.78801 3.65224 3.3983 3.40282 3.42863C3.33293 3.43842 3.26613 3.46376 3.20733 3.50278L3.14329 3.55334C3.06444 3.63342 3.00454 3.73017 2.96802 3.83647L2.95117 3.88028V4.11959V4.15667C4.39039 8.16423 10.0731 21.2925 11.1921 24.3731C11.2595 24.5821 11.3876 24.9798 11.6269 25.0001H11.6809C11.8089 25.0001 12.355 24.2788 12.355 24.2788C12.355 24.2788 22.116 12.4414 23.1036 11.1809C23.2314 11.0256 23.3443 10.8586 23.4407 10.682C23.4653 10.5439 23.4537 10.4018 23.407 10.2694C23.3603 10.1371 23.2802 10.0192 23.1744 9.92702ZM14.8593 11.3056L19.0253 7.85077L21.4689 10.1023L14.8593 11.3056ZM13.2414 11.0797L6.06892 5.20153L17.6737 7.34182L13.2414 11.0797ZM13.8886 12.6201L21.2296 11.437L12.837 21.5486L13.8886 12.6201ZM5.09483 5.78801L12.6415 12.192L11.5494 21.5554L5.09483 5.78801Z" fill="white"/>
</g>
<defs>
<clipPath id="clip0_11365_2100">
<rect width="16" height="16" fill="white"/>
</clipPath>
</defs>
</svg>
