<svg width="28" height="28" viewBox="0 0 28 28" fill="none" xmlns="http://www.w3.org/2000/svg">
<g clip-path="url(#clip0_11317_713)">
<rect width="28" height="28" rx="4" fill="#145DCC"/>
<path d="M40.5549 17.3722C38.7854 15.7383 36.3375 13.2433 34.3439 11.4738L34.2259 11.3912C34.0296 11.2336 33.8083 11.11 33.5712 11.0255C28.764 10.1289 6.39118 5.94693 5.9547 6.00001C5.83239 6.01714 5.71549 6.06149 5.61259 6.12978L5.50052 6.21825C5.36252 6.3584 5.25771 6.52771 5.1938 6.71372L5.16431 6.7904V7.20919V7.27408C7.68294 14.2873 17.6277 37.2617 19.586 42.6529C19.704 43.0186 19.9281 43.7146 20.3469 43.75H20.4413C20.6654 43.75 21.6209 42.4877 21.6209 42.4877C21.6209 42.4877 38.7028 21.7724 40.4311 19.5664C40.6548 19.2947 40.8523 19.0024 41.0209 18.6934C41.0639 18.4517 41.0436 18.203 40.962 17.9714C40.8803 17.7399 40.7401 17.5334 40.5549 17.3722ZM26.0035 19.7847L33.294 13.7388L37.5703 17.6789L26.0035 19.7847ZM23.1722 19.3895L10.6204 9.10259L30.9287 12.8481L23.1722 19.3895ZM24.3047 22.0851L37.1515 20.0147L22.4644 37.71L24.3047 22.0851ZM8.91571 10.1289L22.1223 21.3359L20.2112 37.7218L8.91571 10.1289Z" fill="white"/>
</g>
<defs>
<clipPath id="clip0_11317_713">
<rect width="28" height="28" fill="white"/>
</clipPath>
</defs>
</svg>
