<svg width="16" height="16" viewBox="0 0 16 16" fill="none" xmlns="http://www.w3.org/2000/svg">
<path fill-rule="evenodd" clip-rule="evenodd" d="M8 0C12.4187 0 16 3.58125 16 8C16 12.4187 12.4187 16 8 16C3.58125 16 0 12.4187 0 8C0 3.58125 3.58125 0 8 0Z" fill="url(#paint0_radial_12548_6870)"/>
<path fill-rule="evenodd" clip-rule="evenodd" d="M10.9157 6.17816C9.3063 4.6063 6.69378 4.6063 5.08442 6.17816L4.87191 6.38753C4.79066 6.4657 4.79066 6.59381 4.87191 6.67193L5.53442 7.31879C5.57504 7.35941 5.64066 7.35941 5.68129 7.31879L5.96567 7.04067C7.09064 5.94381 8.90944 5.94381 10.0344 7.04067L10.3 7.30004C10.3406 7.34067 10.4063 7.34067 10.4469 7.30004L11.1094 6.65318C11.1906 6.57507 11.1906 6.44696 11.1094 6.36878L10.9157 6.17816ZM12.8782 8.09067L12.2876 7.5157C12.2063 7.43753 12.075 7.43753 11.9876 7.5157L10.1 9.35941C10.0813 9.37816 10.0469 9.37816 10.0282 9.35941L8.14064 7.5157C8.06252 7.43753 7.93127 7.43753 7.85001 7.5157L5.96252 9.35941C5.94378 9.37816 5.90944 9.37816 5.89064 9.35941L4.00316 7.5157C3.92504 7.43753 3.79379 7.43753 3.71254 7.5157L3.12191 8.09067C3.04066 8.16878 3.04066 8.29696 3.12191 8.37507L5.79064 10.9719C5.86881 11.05 6.00001 11.05 6.08127 10.9719L7.96881 9.12816C7.98755 9.10941 8.0219 9.10941 8.04064 9.12816L9.92818 10.9719C10.0063 11.05 10.1376 11.05 10.2188 10.9719L12.8782 8.37507C12.9594 8.29696 12.9594 8.16878 12.8782 8.09067Z" fill="white"/>
<defs>
<radialGradient id="paint0_radial_12548_6870" cx="0" cy="0" r="1" gradientUnits="userSpaceOnUse" gradientTransform="translate(4.95911e-05 8.00023) scale(16)">
<stop stop-color="#5D9DF6"/>
<stop offset="1" stop-color="#006FFF"/>
</radialGradient>
</defs>
</svg>
