<svg width="28" height="28" viewBox="0 0 28 28" fill="none" xmlns="http://www.w3.org/2000/svg">
<path fill-rule="evenodd" clip-rule="evenodd" d="M14 0C21.7328 0 28 6.26719 28 14C28 21.7328 21.7328 28 14 28C6.26719 28 0 21.7328 0 14C0 6.26719 6.26719 0 14 0Z" fill="url(#paint0_radial_11317_400)"/>
<path fill-rule="evenodd" clip-rule="evenodd" d="M19.1024 10.8117C16.286 8.06096 11.7141 8.06096 8.89771 10.8117L8.52583 11.1781C8.38364 11.3149 8.38364 11.5391 8.52583 11.6758L9.68521 12.8078C9.7563 12.8789 9.87114 12.8789 9.94224 12.8078L10.4399 12.3211C12.4086 10.4016 15.5915 10.4016 17.5602 12.3211L18.025 12.775C18.0961 12.8461 18.211 12.8461 18.2821 12.775L19.4415 11.643C19.5836 11.5063 19.5836 11.2821 19.4415 11.1453L19.1024 10.8117ZM22.5368 14.1586L21.5032 13.1524C21.361 13.0156 21.1313 13.0156 20.9782 13.1524L17.675 16.3789C17.6422 16.4117 17.5821 16.4117 17.5493 16.3789L14.2461 13.1524C14.1094 13.0156 13.8797 13.0156 13.7375 13.1524L10.4344 16.3789C10.4016 16.4117 10.3415 16.4117 10.3086 16.3789L7.00552 13.1524C6.8688 13.0156 6.63911 13.0156 6.49692 13.1524L5.46333 14.1586C5.32114 14.2953 5.32114 14.5196 5.46333 14.6563L10.1336 19.2008C10.2704 19.3375 10.5 19.3375 10.6422 19.2008L13.9454 15.9742C13.9782 15.9414 14.0383 15.9414 14.0711 15.9742L17.3743 19.2008C17.511 19.3375 17.7407 19.3375 17.8829 19.2008L22.5368 14.6563C22.679 14.5196 22.679 14.2953 22.5368 14.1586Z" fill="white"/>
<defs>
<radialGradient id="paint0_radial_11317_400" cx="0" cy="0" r="1" gradientUnits="userSpaceOnUse" gradientTransform="translate(8.67844e-05 14.0004) scale(28)">
<stop stop-color="#5D9DF6"/>
<stop offset="1" stop-color="#006FFF"/>
</radialGradient>
</defs>
</svg>
