<svg width="138" height="24" viewBox="0 0 138 24" fill="none" xmlns="http://www.w3.org/2000/svg">
<g id="Group">
<g id="Vector">
<path d="M27.4082 11.9112L20.6272 0L6.92307 0.0887574L0 12.0888L6.78105 24L20.4852 23.9112L27.4082 11.9112ZM15.6568 21.1598L8.37868 21.213L4.77514 14.8935L6.40827 12.0533L9.19525 16.9704L11.7515 12.5325L14.1657 13.9349L11.6095 18.3728L17.2722 18.3373L15.6568 21.1598ZM20.9822 11.9467L18.1952 7.02959L15.639 11.4675L13.2248 10.0651L15.781 5.62722L10.1183 5.66273L11.7515 2.82249L19.0296 2.76923L22.6331 9.08876L20.9822 11.9467Z" fill="#285EFF"/>
</g>
<g id="Union">
<path d="M45.0557 6.58569V4.13599H35.7007H33.251V6.58569V11.0058V13.4733V17.4141V19.8638H45.0557V17.4141H35.7007V13.4733H43.5823V11.0058H35.7007V6.58569H45.0557ZM77.2746 9.12483V8.05919V8.04199V8.02368H79.7421V8.04199V19.8284V19.8467H77.2746V19.8284V18.7106C76.2983 19.4207 75.109 19.829 73.8309 19.829C70.5823 19.829 67.9374 17.2018 67.9374 13.9355L67.9374 13.9263L67.9374 13.9172C67.9374 10.6687 70.5646 8.02368 73.8309 8.02368C74.6921 8.02368 75.4985 8.21188 76.2292 8.54137C76.5978 8.70234 76.9472 8.89861 77.2746 9.12483ZM70.3871 13.9349C70.3871 15.8343 71.9315 17.3787 73.8309 17.3787C75.7303 17.3787 77.2746 15.8343 77.2746 13.9349C77.2746 12.0355 75.7303 10.4911 73.8309 10.4911C71.9315 10.4911 70.3871 12.0355 70.3871 13.9349ZM87.3574 8.04126C90.6059 8.04126 93.2509 10.6685 93.2509 13.9347C93.2509 13.9525 93.2509 13.9525 93.2686 13.988L93.2686 13.988V19.8815H90.8012V13.988V13.9703C90.8012 12.0708 89.2568 10.5265 87.3574 10.5265C85.458 10.5265 83.9136 12.0708 83.9136 13.9703V13.988V19.8815H81.4462V8.07676H83.9136V9.1596C84.89 8.44954 86.0793 8.04126 87.3574 8.04126ZM62.7717 9.15998V8.07714H60.3043V19.8819H62.7717V13.9884V13.9706C62.7717 12.0712 64.3161 10.5268 66.2155 10.5268V8.05939C64.9196 8.04164 63.7303 8.44992 62.7717 9.15998ZM134.559 8.07714V9.15998C135.517 8.44992 136.707 8.04164 138.002 8.05939V10.5268C136.103 10.5268 134.559 12.0712 134.559 13.9706V13.9884V19.8819H132.091V8.07714H134.559ZM58.5824 4.13599H53.9138H51.4641H46.7955V6.58569H51.4641V19.8638H53.9138V6.58569H58.5824V4.13599ZM98.7007 10.5263H98.5409C97.9374 10.5263 97.4404 11.0233 97.4226 11.6091C97.4226 12.1949 97.9196 12.7097 98.5232 12.7097H100.458H103.05H103.21C105.18 12.7097 106.778 14.3251 106.778 16.2778C106.778 18.2482 105.162 19.8458 103.21 19.8458H100.955H99.322H97.6711V21.3192L94.9729 18.621L97.6711 15.9227V17.3961H99.322H100.458H100.955H103.21C103.795 17.3961 104.31 16.8991 104.31 16.2955C104.31 15.7097 103.813 15.1949 103.21 15.1949H103.05H100.476H98.5409C96.5705 15.1949 94.9729 13.5795 94.9729 11.6269C94.9729 9.65646 96.5883 8.05883 98.5409 8.05883H98.7007H103.05H103.21C103.511 8.05883 103.795 7.93457 103.991 7.7393L102.961 6.70972H106.778V10.5263L105.73 9.47895C105.073 10.118 104.186 10.5263 103.21 10.5263H103.05H98.7007ZM116.843 6.63843V4.18872C113.576 4.18872 110.949 6.83369 110.949 10.0822H108.499V12.5319H110.949V19.9165H113.399V12.5319H116.86V10.0822H113.399C113.399 8.18281 114.943 6.63843 116.843 6.63843ZM118.582 14.0058C118.582 10.7573 121.21 8.1123 124.476 8.1123C127.724 8.1123 130.369 10.7573 130.369 14.0058C130.369 14.4318 130.334 14.8401 130.245 15.2306H130.032H127.707H121.245C121.742 16.5443 123.002 17.4673 124.476 17.4673C125.434 17.4673 126.304 17.0768 126.926 16.4555L128.647 18.1774C127.582 19.2425 126.109 19.8993 124.476 19.8993C121.227 19.8993 118.582 17.2721 118.582 14.0058ZM124.476 10.562C123.002 10.562 121.742 11.5028 121.245 12.7987H127.707C127.21 11.4851 125.949 10.562 124.476 10.562Z" fill="#212121"/>
</g>
</g>
</svg>
