<svg width="185" height="32" viewBox="0 0 185 32" fill="none" xmlns="http://www.w3.org/2000/svg">
<g id="Group">
<g id="Vector">
<path d="M36.9159 15.8817L27.8745 0L9.60234 0.118343L0.371582 16.1183L9.41299 32L27.6852 31.8817L36.9159 15.8817ZM21.2473 28.213L11.5432 28.284L6.73844 19.858L8.91595 16.071L12.6319 22.6272L16.0402 16.7101L19.2591 18.5799L15.8509 24.497L23.4011 24.4497L21.2473 28.213ZM28.3479 15.929L24.6319 9.37278L21.2236 15.2899L18.0047 13.4201L21.413 7.50296L13.8627 7.5503L16.0402 3.76332L25.7443 3.69231L30.5491 12.1183L28.3479 15.929Z" fill="#285EFF"/>
</g>
<g id="Union">
<path d="M60.4457 8.78092V5.51465H47.9723H44.7061V8.78092V14.6744V17.9644V23.2188V26.4851H60.4457V23.2188H47.9723V17.9644H58.4812V14.6744H47.9723V8.78092H60.4457ZM103.404 12.1664V10.7456V10.7227V10.6982H106.694V10.7227V26.4379V26.4623H103.404V26.4379V24.9475C102.102 25.8943 100.517 26.4386 98.8126 26.4386C94.4812 26.4386 90.9546 22.9357 90.9546 18.5806L90.9546 18.5684L90.9546 18.5562C90.9546 14.2249 94.4575 10.6982 98.8126 10.6982C99.9609 10.6982 101.036 10.9492 102.01 11.3885C102.502 11.6031 102.968 11.8648 103.404 12.1664ZM94.2209 18.5799C94.2209 21.1124 96.28 23.1716 98.8126 23.1716C101.345 23.1716 103.404 21.1124 103.404 18.5799C103.404 16.0474 101.345 13.9882 98.8126 13.9882C96.28 13.9882 94.2209 16.0474 94.2209 18.5799ZM116.848 10.7217C121.179 10.7217 124.706 14.2246 124.706 18.5797C124.706 18.6033 124.706 18.6033 124.73 18.6506L124.73 18.6507V26.5087H121.44V18.6507V18.627C121.44 16.0945 119.38 14.0353 116.848 14.0353C114.315 14.0353 112.256 16.0945 112.256 18.627V18.6507V26.5087H108.966V10.769H112.256V12.2128C113.558 11.2661 115.144 10.7217 116.848 10.7217ZM84.067 12.2133V10.7695H80.7771V26.5092H84.067V18.6512V18.6275C84.067 16.095 86.1262 14.0358 88.6587 14.0358V10.7459C86.9309 10.7222 85.3451 11.2666 84.067 12.2133ZM179.783 10.7695V12.2133C181.061 11.2666 182.647 10.7222 184.375 10.7459V14.0358C181.842 14.0358 179.783 16.095 179.783 18.6275V18.6512V26.5092H176.493V10.7695H179.783ZM78.4813 5.51465H72.2565H68.9902H62.7654V8.78092H68.9902V26.4851H72.2565V8.78092H78.4813V5.51465ZM131.972 14.035H131.759C130.955 14.035 130.292 14.6978 130.268 15.4788C130.268 16.2599 130.931 16.9463 131.736 16.9463H134.316H137.771H137.984C140.611 16.9463 142.742 19.1001 142.742 21.7037C142.742 24.3309 140.588 26.4611 137.984 26.4611H134.978H132.801H130.6V28.4256L127.002 24.8279L130.6 21.2303V23.1948H132.801H134.316H134.978H137.984C138.765 23.1948 139.452 22.5321 139.452 21.7274C139.452 20.9463 138.789 20.2599 137.984 20.2599H137.771H134.339H131.759C129.132 20.2599 127.002 18.106 127.002 15.5025C127.002 12.8753 129.156 10.7451 131.759 10.7451H131.972H137.771H137.984C138.387 10.7451 138.765 10.5794 139.026 10.3191L137.653 8.94629H142.742V14.035L141.345 12.6386C140.469 13.4907 139.286 14.035 137.984 14.035H137.771H131.972ZM156.162 8.85124V5.58496C151.807 5.58496 148.304 9.11159 148.304 13.443H145.037V16.7092H148.304V26.5554H151.57V16.7092H156.185V13.443H151.57C151.57 10.9104 153.629 8.85124 156.162 8.85124ZM158.481 18.6744C158.481 14.343 161.984 10.8164 166.339 10.8164C170.671 10.8164 174.197 14.343 174.197 18.6744C174.197 19.2424 174.15 19.7868 174.031 20.3075H173.747H170.647H162.031C162.694 22.059 164.375 23.2898 166.339 23.2898C167.617 23.2898 168.777 22.7691 169.605 21.9407L171.901 24.2365C170.481 25.6566 168.517 26.5324 166.339 26.5324C162.008 26.5324 158.481 23.0294 158.481 18.6744ZM166.339 14.0827C164.375 14.0827 162.694 15.3371 162.031 17.0649H170.647C169.984 15.3134 168.304 14.0827 166.339 14.0827Z" fill="#212121"/>
</g>
</g>
</svg>
