<svg width="14" height="14" viewBox="0 0 14 14" fill="none" xmlns="http://www.w3.org/2000/svg">
<circle cx="7" cy="7" r="7" fill="#266CD3"/>
<path fill-rule="evenodd" clip-rule="evenodd" d="M7.289 4.52124C7.76439 4.52124 8.14977 4.13585 8.14977 3.66046C8.14977 3.18507 7.76439 2.79968 7.289 2.79968C6.8136 2.79968 6.42822 3.18507 6.42822 3.66046C6.42822 4.13585 6.8136 4.52124 7.289 4.52124ZM11.1772 6.9996C11.1772 7.96678 10.3931 8.75084 9.42592 8.75084C8.45874 8.75084 7.67468 7.96678 7.67468 6.9996C7.67468 6.03242 8.45874 5.24836 9.42592 5.24836C10.3931 5.24836 11.1772 6.03242 11.1772 6.9996ZM8.14983 10.3386C8.14983 10.814 7.76444 11.1994 7.28905 11.1994C6.81366 11.1994 6.42827 10.814 6.42827 10.3386C6.42827 9.86322 6.81366 9.47783 7.28905 9.47783C7.76444 9.47783 8.14983 9.86322 8.14983 10.3386ZM2.88113 4.58069C2.62883 5.24854 2.98502 6.00543 3.65286 6.25772C4.09809 6.42097 4.573 6.33193 4.91435 6.04995C5.22601 5.82733 5.62671 5.75313 6.01258 5.90154C6.26488 5.99059 6.45781 6.15384 6.59138 6.36161L6.60622 6.39129C6.66558 6.48034 6.75463 6.56938 6.87336 6.59907C7.1405 6.70295 7.45216 6.55454 7.5412 6.28741C7.64509 6.02027 7.49668 5.70861 7.22954 5.61956C7.11081 5.57504 6.99209 5.57504 6.87336 5.61956C6.6359 5.69377 6.36876 5.69377 6.11647 5.60472C5.74544 5.47115 5.49315 5.17433 5.38926 4.83299L5.37442 4.80331C5.37442 4.78846 5.37442 4.77362 5.35958 4.77362V4.74394C5.25569 4.32839 4.97371 3.97221 4.54332 3.8238C3.87548 3.55666 3.11859 3.89801 2.88113 4.58069ZM3.65286 7.74164C2.98502 7.99394 2.62883 8.75083 2.88113 9.41867C3.13343 10.1014 3.87548 10.4427 4.54332 10.1756C4.97371 10.0272 5.25569 9.67097 5.35958 9.25542V9.22574C5.37442 9.22574 5.37442 9.2109 5.37442 9.19606L5.38926 9.16638C5.49315 8.82503 5.74544 8.52821 6.11647 8.39465C6.36876 8.3056 6.6359 8.3056 6.87336 8.3798C6.99209 8.42433 7.11081 8.42433 7.22954 8.3798C7.49668 8.29076 7.64509 7.9791 7.5412 7.71196C7.45216 7.44482 7.1405 7.29641 6.87336 7.4003C6.75463 7.42998 6.66558 7.51903 6.60622 7.60807L6.59138 7.63775C6.45781 7.84553 6.26488 8.00878 6.01258 8.09783C5.62671 8.24624 5.22601 8.17203 4.91435 7.94942C4.573 7.66744 4.09809 7.57839 3.65286 7.74164Z" fill="white"/>
</svg>
