<svg width="16" height="16" viewBox="0 0 16 16" fill="none" xmlns="http://www.w3.org/2000/svg">
<g id="Type=aelf">
<circle id="Circle" cx="8" cy="8" r="8" fill="#266CD3"/>
<path id="Shape" fill-rule="evenodd" clip-rule="evenodd" d="M8.33015 5.16712C8.87346 5.16712 9.3139 4.72668 9.3139 4.18337C9.3139 3.64006 8.87346 3.19963 8.33015 3.19963C7.78685 3.19963 7.34641 3.64006 7.34641 4.18337C7.34641 4.72668 7.78685 5.16712 8.33015 5.16712ZM12.7738 7.99954C12.7738 9.10489 11.8777 10.001 10.7723 10.001C9.667 10.001 8.77094 9.10489 8.77094 7.99954C8.77094 6.89419 9.667 5.99813 10.7723 5.99813C11.8777 5.99813 12.7738 6.89419 12.7738 7.99954ZM9.31395 11.8155C9.31395 12.3588 8.87351 12.7993 8.3302 12.7993C7.78689 12.7993 7.34646 12.3588 7.34646 11.8155C7.34646 11.2722 7.78689 10.8318 8.3302 10.8318C8.87351 10.8318 9.31395 11.2722 9.31395 11.8155ZM3.29259 5.23506C3.00425 5.99832 3.41132 6.86333 4.17457 7.15167C4.6834 7.33825 5.22616 7.23648 5.61627 6.91422C5.97245 6.6598 6.4304 6.57499 6.87139 6.74461C7.15973 6.84637 7.38022 7.03294 7.53287 7.2704L7.54984 7.30432C7.61768 7.40609 7.71945 7.50786 7.85514 7.54178C8.16044 7.66051 8.51662 7.4909 8.61839 7.1856C8.73711 6.88029 8.5675 6.52411 8.2622 6.42234C8.12651 6.37146 7.99083 6.37146 7.85514 6.42234C7.58376 6.50715 7.27846 6.50715 6.99012 6.40538C6.56609 6.25273 6.27775 5.91351 6.15902 5.5234L6.14206 5.48948C6.14206 5.47252 6.14206 5.45556 6.1251 5.45556V5.42164C6.00637 4.94673 5.68411 4.53966 5.19224 4.37005C4.42899 4.06475 3.56397 4.45485 3.29259 5.23506ZM4.17457 8.84758C3.41132 9.13592 3.00425 10.0009 3.29259 10.7642C3.58093 11.5444 4.42899 11.9345 5.19224 11.6292C5.68411 11.4596 6.00637 11.0525 6.1251 10.5776V10.5437C6.14206 10.5437 6.14206 10.5267 6.14206 10.5098L6.15902 10.4758C6.27775 10.0857 6.56609 9.74652 6.99012 9.59387C7.27846 9.4921 7.58376 9.4921 7.85514 9.57691C7.99083 9.62779 8.12651 9.62779 8.2622 9.57691C8.5675 9.47514 8.73711 9.11896 8.61839 8.81366C8.51662 8.50836 8.16044 8.33875 7.85514 8.45747C7.71945 8.4914 7.61768 8.59316 7.54984 8.69493L7.53287 8.72885C7.38022 8.96631 7.15973 9.15288 6.87139 9.25465C6.4304 9.42426 5.97245 9.33945 5.61627 9.08504C5.22616 8.76277 4.6834 8.66101 4.17457 8.84758Z" fill="white"/>
</g>
</svg>
