<svg width="24" height="24" viewBox="0 0 24 24" fill="none" xmlns="http://www.w3.org/2000/svg">
<g id="Icons/Network">
<circle id="Circle" cx="12" cy="12" r="12" fill="#266CD3"/>
<path id="Shape" fill-rule="evenodd" clip-rule="evenodd" d="M12.4952 7.75068C13.3102 7.75068 13.9708 7.09002 13.9708 6.27506C13.9708 5.4601 13.3102 4.79944 12.4952 4.79944C11.6802 4.79944 11.0196 5.4601 11.0196 6.27506C11.0196 7.09002 11.6802 7.75068 12.4952 7.75068ZM19.1606 11.9993C19.1606 13.6573 17.8165 15.0014 16.1585 15.0014C14.5005 15.0014 13.1564 13.6573 13.1564 11.9993C13.1564 10.3413 14.5005 8.99719 16.1585 8.99719C17.8165 8.99719 19.1606 10.3413 19.1606 11.9993ZM13.9709 17.7233C13.9709 18.5383 13.3102 19.1989 12.4953 19.1989C11.6803 19.1989 11.0197 18.5383 11.0197 17.7233C11.0197 16.9083 11.6803 16.2477 12.4953 16.2477C13.3102 16.2477 13.9709 16.9083 13.9709 17.7233ZM4.93886 7.8526C4.50635 8.99747 5.11695 10.295 6.26182 10.7275C7.02508 11.0074 7.83921 10.8547 8.42437 10.3713C8.95864 9.9897 9.64557 9.86249 10.3071 10.1169C10.7396 10.2696 11.0703 10.5494 11.2993 10.9056L11.3247 10.9565C11.4265 11.1091 11.5791 11.2618 11.7827 11.3127C12.2406 11.4908 12.7749 11.2363 12.9276 10.7784C13.1056 10.3204 12.8512 9.78616 12.3933 9.63351C12.1897 9.55719 11.9862 9.55719 11.7827 9.63351C11.3756 9.76072 10.9177 9.76072 10.4851 9.60807C9.8491 9.3791 9.41659 8.87026 9.2385 8.2851L9.21306 8.23422C9.21306 8.20878 9.21306 8.18334 9.18762 8.18334V8.13245C9.00953 7.42009 8.52614 6.80949 7.78833 6.55507C6.64345 6.09712 5.34592 6.68228 4.93886 7.8526ZM6.26182 13.2714C5.11695 13.7039 4.50635 15.0014 4.93886 16.1463C5.37136 17.3166 6.64345 17.9018 7.78833 17.4438C8.52614 17.1894 9.00953 16.5788 9.18762 15.8664V15.8155C9.21306 15.8155 9.21306 15.7901 9.21306 15.7647L9.2385 15.7138C9.41659 15.1286 9.8491 14.6198 10.4851 14.3908C10.9177 14.2382 11.3756 14.2382 11.7827 14.3654C11.9862 14.4417 12.1897 14.4417 12.3933 14.3654C12.8512 14.2127 13.1056 13.6784 12.9276 13.2205C12.7749 12.7625 12.2406 12.5081 11.7827 12.6862C11.5791 12.7371 11.4265 12.8897 11.3247 13.0424L11.2993 13.0933C11.0703 13.4495 10.7396 13.7293 10.3071 13.882C9.64557 14.1364 8.95864 14.0092 8.42437 13.6276C7.83921 13.1442 7.02508 12.9915 6.26182 13.2714Z" fill="white"/>
</g>
</svg>
