<svg width="20" height="20" viewBox="0 0 20 20" fill="none" xmlns="http://www.w3.org/2000/svg">
<g clip-path="url(#clip0_12526_1454)">
<mask id="mask0_12526_1454" style="mask-type:luminance" maskUnits="userSpaceOnUse" x="0" y="0" width="20" height="20">
<path d="M20 0H0V20H20V0Z" fill="white"/>
</mask>
<g mask="url(#mask0_12526_1454)">
<path d="M1.80762 6.08006V13.9201C1.80762 14.4241 2.07162 14.8801 2.51162 15.1361L9.30364 19.0561C9.73564 19.3041 10.2716 19.3041 10.7036 19.0561L17.4956 15.1361C17.9276 14.8881 18.1996 14.4241 18.1996 13.9201V6.08006C18.1996 5.57606 17.9356 5.12006 17.4956 4.86406L10.7036 0.944059C10.2716 0.696056 9.73564 0.696056 9.30364 0.944059L2.51162 4.86406C2.07962 5.11206 1.81562 5.57606 1.81562 6.08006H1.80762Z" fill="#213147"/>
<path d="M11.4792 11.5199L10.5112 14.1759C10.4872 14.2479 10.4872 14.3279 10.5112 14.4079L12.1752 18.9759L14.1032 17.8639L11.7912 11.5199C11.7352 11.3759 11.5352 11.3759 11.4792 11.5199Z" fill="#12AAFF"/>
<path d="M13.423 7.056C13.367 6.912 13.167 6.912 13.111 7.056L12.143 9.71201C12.119 9.78401 12.119 9.86401 12.143 9.94401L14.871 17.424L16.799 16.312L13.423 7.064V7.056Z" fill="#12AAFF"/>
<path d="M9.99923 1.24C10.0472 1.24 10.0952 1.256 10.1352 1.28L17.4792 5.52C17.5672 5.568 17.6152 5.664 17.6152 5.76V14.24C17.6152 14.336 17.5592 14.432 17.4792 14.48L10.1352 18.72C10.0952 18.744 10.0472 18.76 9.99923 18.76C9.95123 18.76 9.90323 18.744 9.86323 18.72L2.51925 14.48C2.43125 14.432 2.38325 14.336 2.38325 14.24V5.752C2.38325 5.656 2.43925 5.56 2.51925 5.512L9.86323 1.272C9.90323 1.248 9.95123 1.232 9.99923 1.232V1.24ZM9.99923 0C9.73523 0 9.47923 0.064 9.23923 0.2L1.89525 4.44C1.42325 4.712 1.13525 5.208 1.13525 5.752V14.232C1.13525 14.776 1.42325 15.272 1.89525 15.544L9.23923 19.784C9.47123 19.92 9.73523 19.984 9.99923 19.984C10.2632 19.984 10.5192 19.92 10.7592 19.784L18.1032 15.544C18.5752 15.272 18.8632 14.776 18.8632 14.232V5.752C18.8632 5.208 18.5752 4.712 18.1032 4.44L10.7512 0.2C10.5192 0.064 10.2552 0 9.99123 0H9.99923Z" fill="#9DCCED"/>
<path d="M5.13525 17.432L5.81525 15.576L7.17525 16.704L5.90325 17.872L5.13525 17.432Z" fill="#213147"/>
<path d="M9.3755 5.15204H7.51152C7.37552 5.15204 7.24752 5.24004 7.19952 5.36804L3.20752 16.3121L5.13552 17.4241L9.5355 5.36804C9.5755 5.25604 9.4955 5.14404 9.3835 5.14404L9.3755 5.15204Z" fill="white"/>
<path d="M12.6394 5.15204H10.7754C10.6394 5.15204 10.5114 5.24004 10.4634 5.36804L5.90332 17.8641L7.83132 18.9761L12.7914 5.36804C12.8314 5.25604 12.7514 5.14404 12.6394 5.14404V5.15204Z" fill="white"/>
</g>
</g>
<defs>
<clipPath id="clip0_12526_1454">
<rect width="20" height="20" fill="white"/>
</clipPath>
</defs>
</svg>
