<svg width="24" height="24" viewBox="0 0 24 24" fill="none" xmlns="http://www.w3.org/2000/svg">
<g clip-path="url(#clip0_5016_32873)">
<path d="M2.16907 7.29601V16.704C2.16907 17.3088 2.48587 17.856 3.01387 18.1632L11.1643 22.8672C11.6827 23.1648 12.3259 23.1648 12.8443 22.8672L20.9947 18.1632C21.5131 17.8656 21.8395 17.3088 21.8395 16.704V7.29601C21.8395 6.69121 21.5227 6.14401 20.9947 5.83681L12.8443 1.13281C12.3259 0.835207 11.6827 0.835207 11.1643 1.13281L3.01387 5.83681C2.49547 6.13441 2.17867 6.69121 2.17867 7.29601H2.16907Z" fill="#213147"/>
<path d="M13.775 13.8239L12.6134 17.0111C12.5846 17.0975 12.5846 17.1935 12.6134 17.2895L14.6102 22.7711L16.9238 21.4367L14.1494 13.8239C14.0822 13.6511 13.8422 13.6511 13.775 13.8239Z" fill="#12AAFF"/>
<path d="M16.108 8.46719C16.0408 8.29439 15.8008 8.29439 15.7336 8.46719L14.572 11.6544C14.5432 11.7408 14.5432 11.8368 14.572 11.9328L17.8456 20.9088L20.1592 19.5744L16.108 8.47679V8.46719Z" fill="#12AAFF"/>
<path d="M11.9992 1.488C12.0568 1.488 12.1144 1.5072 12.1624 1.536L20.9752 6.624C21.0808 6.6816 21.1384 6.7968 21.1384 6.912V17.088C21.1384 17.2032 21.0712 17.3184 20.9752 17.376L12.1624 22.464C12.1144 22.4928 12.0568 22.512 11.9992 22.512C11.9416 22.512 11.884 22.4928 11.836 22.464L3.02323 17.376C2.91763 17.3184 2.86003 17.2032 2.86003 17.088V6.9024C2.86003 6.7872 2.92723 6.672 3.02323 6.6144L11.836 1.5264C11.884 1.4976 11.9416 1.4784 11.9992 1.4784V1.488ZM11.9992 0C11.6824 0 11.3752 0.0768 11.0872 0.24L2.27443 5.328C1.70803 5.6544 1.36243 6.2496 1.36243 6.9024V17.0784C1.36243 17.7312 1.70803 18.3264 2.27443 18.6528L11.0872 23.7408C11.3656 23.904 11.6824 23.9808 11.9992 23.9808C12.316 23.9808 12.6232 23.904 12.9112 23.7408L21.724 18.6528C22.2904 18.3264 22.636 17.7312 22.636 17.0784V6.9024C22.636 6.2496 22.2904 5.6544 21.724 5.328L12.9016 0.24C12.6232 0.0768 12.3064 0 11.9896 0H11.9992Z" fill="#9DCCED"/>
<path d="M6.16272 20.9184L6.97872 18.6912L8.61072 20.0448L7.08432 21.4464L6.16272 20.9184Z" fill="#213147"/>
<path d="M11.2507 6.18239H9.01392C8.85072 6.18239 8.69712 6.28799 8.63952 6.44159L3.84912 19.5744L6.16272 20.9088L11.4427 6.44159C11.4907 6.30719 11.3947 6.17279 11.2603 6.17279L11.2507 6.18239Z" fill="white"/>
<path d="M15.1676 6.18239H12.9308C12.7676 6.18239 12.614 6.28799 12.5564 6.44159L7.08435 21.4368L9.39795 22.7712L15.35 6.44159C15.398 6.30719 15.302 6.17279 15.1676 6.17279V6.18239Z" fill="white"/>
</g>
<defs>
<clipPath id="clip0_5016_32873">
<rect width="24" height="24" fill="white"/>
</clipPath>
</defs>
</svg>
