<svg width="24" height="24" viewBox="0 0 24 24" fill="none" xmlns="http://www.w3.org/2000/svg">
<g clip-path="url(#clip0_5016_32877)">
<path fill-rule="evenodd" clip-rule="evenodd" d="M23.992 12C23.992 18.6187 18.6231 23.9841 12 23.9841C5.377 23.9841 0.00799561 18.6187 0.00799561 12C0.00799561 5.38143 5.377 0.0159912 12 0.0159912C18.6231 0.0159912 23.992 5.38143 23.992 12Z" fill="#E84142"/>
<path d="M6.27449 16.769H8.6018C9.14976 16.769 9.42372 16.769 9.66824 16.7014C9.93633 16.6217 10.1808 16.4805 10.3841 16.2862C10.5708 16.1084 10.7055 15.8728 10.9712 15.4081L10.9714 15.4078L10.9792 15.3942L13.9977 10.0619C14.2658 9.59385 14.3983 9.35832 14.4572 9.11103C14.522 8.84312 14.522 8.5605 14.4572 8.29259C14.3988 8.04716 14.2648 7.81332 14.0007 7.3522L13.9947 7.34168L12.8134 5.28087C12.5689 4.85104 12.4451 4.63613 12.289 4.55664C12.1211 4.47127 11.9207 4.47127 11.7528 4.55664C11.5967 4.63613 11.473 4.85104 11.2284 5.28087L5.48202 15.403C5.24046 15.8269 5.11966 16.039 5.1285 16.2126C5.14029 16.4011 5.2375 16.5718 5.39659 16.6749C5.54388 16.769 5.78544 16.769 6.27447 16.769H6.27449Z" fill="white"/>
<path d="M17.8138 16.769H14.479H14.479C13.9871 16.769 13.7396 16.769 13.5952 16.6749C13.4362 16.5718 13.3389 16.3982 13.3272 16.2097C13.3184 16.0374 13.4401 15.8274 13.6838 15.4071L13.6838 15.407L13.6895 15.3972L15.354 12.5415C15.5985 12.1205 15.7222 11.9115 15.8754 11.832C16.0433 11.7466 16.2408 11.7466 16.4086 11.832C16.5607 11.9094 16.6792 12.1095 16.9137 12.5058L16.914 12.5064L16.933 12.5386L18.6034 15.3942L18.6275 15.4357L18.6276 15.4358C18.8591 15.8351 18.9772 16.0388 18.9688 16.2069C18.9598 16.3952 18.8597 16.5689 18.7007 16.672C18.5533 16.769 18.3058 16.769 17.8138 16.769H17.8138Z" fill="white"/>
</g>
<defs>
<clipPath id="clip0_5016_32877">
<rect width="24" height="24" fill="white"/>
</clipPath>
</defs>
</svg>
