<svg width="20" height="20" viewBox="0 0 20 20" fill="none" xmlns="http://www.w3.org/2000/svg">
<g clip-path="url(#clip0_12526_1466)">
<mask id="mask0_12526_1466" style="mask-type:luminance" maskUnits="userSpaceOnUse" x="0" y="0" width="20" height="20">
<path d="M20 0H0V20H20V0Z" fill="white"/>
</mask>
<g mask="url(#mask0_12526_1466)">
<path fill-rule="evenodd" clip-rule="evenodd" d="M19.9935 9.99998C19.9935 15.5156 15.5194 19.9867 10.0002 19.9867C4.48101 19.9867 0.00683594 15.5156 0.00683594 9.99998C0.00683594 4.4845 4.48101 0.0133057 10.0002 0.0133057C15.5194 0.0133057 19.9935 4.4845 19.9935 9.99998Z" fill="#E84142"/>
<path d="M5.22881 13.9741H7.16823C7.62486 13.9741 7.85316 13.9741 8.05693 13.9178C8.28034 13.8513 8.48406 13.7337 8.65348 13.5718C8.80906 13.4236 8.92131 13.2273 9.14273 12.84L9.1494 12.8284L11.6648 8.38485C11.8882 7.99481 11.9986 7.79853 12.0477 7.59245C12.1017 7.3692 12.1017 7.13368 12.0477 6.91042C11.9991 6.7059 11.8874 6.51103 11.6673 6.12676L11.6623 6.118L10.6779 4.40066C10.4741 4.04246 10.371 3.86337 10.2409 3.79713C10.101 3.72599 9.93398 3.72599 9.79406 3.79713C9.66398 3.86337 9.5609 4.04246 9.35706 4.40066L4.56841 12.8358C4.36711 13.189 4.26645 13.3658 4.27381 13.5104C4.28364 13.6675 4.36465 13.8098 4.49722 13.8957C4.61996 13.9741 4.82128 13.9741 5.22881 13.9741Z" fill="white"/>
<path d="M14.8452 13.9742H12.0662C11.6562 13.9742 11.45 13.9742 11.3297 13.8958C11.1972 13.8098 11.1161 13.6652 11.1063 13.5081C11.099 13.3645 11.2004 13.1895 11.4035 12.8393L11.4082 12.831L12.7953 10.4513C12.9991 10.1004 13.1022 9.92627 13.2298 9.86002C13.3697 9.78885 13.5343 9.78885 13.6742 9.86002C13.8009 9.92452 13.8997 10.0913 14.0951 10.4215L14.1112 10.4488L15.5032 12.8285L15.5232 12.8631C15.7162 13.1958 15.8147 13.3657 15.8077 13.5058C15.8002 13.6627 15.7167 13.8074 15.5842 13.8934C15.4614 13.9742 15.2552 13.9742 14.8452 13.9742Z" fill="white"/>
</g>
</g>
<defs>
<clipPath id="clip0_12526_1466">
<rect width="20" height="20" fill="white"/>
</clipPath>
</defs>
</svg>
