<svg width="20" height="20" viewBox="0 0 20 20" fill="none" xmlns="http://www.w3.org/2000/svg">
<g clip-path="url(#clip0_12526_1484)">
<mask id="mask0_12526_1484" style="mask-type:luminance" maskUnits="userSpaceOnUse" x="0" y="0" width="20" height="20">
<path d="M20 0H0V20H20V0Z" fill="white"/>
</mask>
<g mask="url(#mask0_12526_1484)">
<path d="M10 20C15.5228 20 20 15.5228 20 10C20 4.47715 15.5228 0 10 0C4.47715 0 0 4.47715 0 10C0 15.5228 4.47715 20 10 20Z" fill="#0052FF"/>
<path d="M10.0442 16.9492C13.9201 16.9492 17.062 13.8126 17.062 9.94352C17.062 6.0744 13.9201 2.93787 10.0442 2.93787C6.36701 2.93787 3.35038 5.76108 3.05078 9.3546H12.3268V10.5324H3.05078C3.35038 14.1259 6.36701 16.9492 10.0442 16.9492Z" fill="white"/>
</g>
</g>
<defs>
<clipPath id="clip0_12526_1484">
<rect width="20" height="20" fill="white"/>
</clipPath>
</defs>
</svg>
