<svg width="20" height="20" viewBox="0 0 20 20" fill="none" xmlns="http://www.w3.org/2000/svg">
<g clip-path="url(#clip0_12526_1474)">
<mask id="mask0_12526_1474" style="mask-type:luminance" maskUnits="userSpaceOnUse" x="0" y="0" width="20" height="20">
<path d="M20 0H0V20H20V0Z" fill="white"/>
</mask>
<g mask="url(#mask0_12526_1474)">
<path fill-rule="evenodd" clip-rule="evenodd" d="M10 0C15.5232 0 20 4.47677 20 10C20 15.5232 15.5232 20 10 20C4.47677 20 0 15.5232 0 10C0 4.47677 4.47677 0 10 0Z" fill="#F0B90B"/>
<path d="M5.496 10L5.50321 12.6443L7.75 13.9664V15.5145L4.18831 13.4255V9.22679L5.496 10ZM5.496 7.35581V8.89671L4.1875 8.12264V6.58177L5.496 5.80774L6.8109 6.58177L5.496 7.35581ZM8.68832 6.58177L9.99682 5.80774L11.3117 6.58177L9.99682 7.35581L8.68832 6.58177Z" fill="white"/>
<path d="M6.44141 12.0962V10.5481L7.7499 11.3221V12.863L6.44141 12.0962ZM8.68819 14.5209L9.99669 15.295L11.3116 14.5209V16.0617L9.99669 16.8358L8.68819 16.0617V14.5209ZM13.1882 6.58177L14.4967 5.80774L15.8116 6.58177V8.12264L14.4967 8.89671V7.35581L13.1882 6.58177ZM14.4967 12.6443L14.5039 10L15.8124 9.22604V13.4247L12.2507 15.5137V13.9656L14.4967 12.6443Z" fill="white"/>
<path d="M13.5585 12.0962L12.25 12.863V11.3222L13.5585 10.5481V12.0962Z" fill="white"/>
<path d="M13.5584 7.90389L13.5656 9.45196L11.3124 10.774V13.4247L10.0039 14.1915L8.69544 13.4247V10.774L6.44221 9.45196V7.90389L7.75631 7.12985L9.99586 8.45837L12.2491 7.12985L13.564 7.90389H13.5584ZM6.44141 5.26046L9.99669 3.16431L13.5584 5.26046L12.2499 6.0345L9.99669 4.70597L7.7499 6.0345L6.44141 5.26046Z" fill="white"/>
</g>
</g>
<defs>
<clipPath id="clip0_12526_1474">
<rect width="20" height="20" fill="white"/>
</clipPath>
</defs>
</svg>
