<svg width="24" height="24" viewBox="0 0 24 24" fill="none" xmlns="http://www.w3.org/2000/svg">
<path d="M11.9953 0C18.6257 0 24 5.37426 24 12.0047C24 18.6352 18.6257 24.0047 12 24.0047C5.36954 24.0047 3.11002e-06 18.6305 3.11002e-06 12.0047C-0.00471944 5.37426 5.36954 0 11.9953 0Z" fill="#627EEA"/>
<path d="M11.9987 3.60004V9.81029L17.2465 12.1558L11.9987 3.60004Z" fill="white" fill-opacity="0.602"/>
<path d="M11.9986 3.60004L6.75 12.1558L11.9986 9.81029V3.60004Z" fill="white"/>
<path d="M11.9987 16.1802V20.3999L17.25 13.1332L11.9987 16.1802Z" fill="white" fill-opacity="0.602"/>
<path d="M11.9986 20.3999V16.1795L6.75 13.1332L11.9986 20.3999Z" fill="white"/>
<path d="M11.9987 15.2035L17.2465 12.1558L11.9987 9.81171V15.2035Z" fill="white" fill-opacity="0.3"/>
<path d="M6.75 12.1558L11.9986 15.2035V9.81171L6.75 12.1558Z" fill="white" fill-opacity="0.7"/>
</svg>
