<svg width="20" height="20" viewBox="0 0 20 20" fill="none" xmlns="http://www.w3.org/2000/svg">
<g clip-path="url(#clip0_12526_1502)">
<mask id="mask0_12526_1502" style="mask-type:luminance" maskUnits="userSpaceOnUse" x="0" y="0" width="20" height="20">
<path d="M20 0H0V20H20V0Z" fill="white"/>
</mask>
<g mask="url(#mask0_12526_1502)">
<path d="M10 20C15.5228 20 20 15.5228 20 10C20 4.47715 15.5228 0 10 0C4.47715 0 0 4.47715 0 10C0 15.5228 4.47715 20 10 20Z" fill="#FF0420"/>
<path d="M7.08415 12.656C6.48815 12.656 6.00015 12.516 5.62015 12.236C5.24415 11.952 5.05615 11.544 5.05615 11.02C5.05615 10.908 5.06815 10.776 5.09215 10.616C5.15615 10.256 5.24815 9.82396 5.36815 9.31596C5.70815 7.93995 6.58815 7.25195 8.00415 7.25195C8.38812 7.25195 8.73612 7.31595 9.04012 7.44795C9.34412 7.57195 9.58412 7.76395 9.76012 8.01995C9.93612 8.27195 10.0241 8.57196 10.0241 8.91996C10.0241 9.02396 10.0121 9.15596 9.98812 9.31596C9.91212 9.75996 9.82412 10.196 9.71612 10.616C9.54012 11.3 9.24012 11.816 8.80812 12.156C8.38012 12.492 7.80415 12.656 7.08415 12.656ZM7.19215 11.576C7.47215 11.576 7.70815 11.492 7.90415 11.328C8.10415 11.164 8.24815 10.912 8.33215 10.568C8.44812 10.096 8.53612 9.68796 8.59612 9.33596C8.61612 9.23196 8.62812 9.12396 8.62812 9.01196C8.62812 8.55596 8.39212 8.32795 7.91615 8.32795C7.63615 8.32795 7.39615 8.41196 7.19615 8.57596C7.00015 8.73996 6.86015 8.99196 6.77615 9.33596C6.68415 9.67196 6.59615 10.08 6.50415 10.568C6.48415 10.668 6.47215 10.772 6.47215 10.884C6.46815 11.348 6.71215 11.576 7.19215 11.576Z" fill="white"/>
<path d="M10.3718 12.584C10.3158 12.584 10.2758 12.568 10.2438 12.532C10.2198 12.492 10.2118 12.448 10.2198 12.396L11.2558 7.516C11.2638 7.46 11.2918 7.416 11.3398 7.38C11.3838 7.344 11.4318 7.328 11.4838 7.328H13.4798C14.0358 7.328 14.4798 7.444 14.8158 7.672C15.1558 7.904 15.3278 8.236 15.3278 8.67202C15.3278 8.79602 15.3118 8.92802 15.2838 9.06402C15.1598 9.64002 14.9078 10.064 14.5238 10.34C14.1478 10.616 13.6318 10.752 12.9758 10.752H11.9638L11.6198 12.396C11.6078 12.452 11.5838 12.496 11.5358 12.532C11.4918 12.568 11.4438 12.584 11.3918 12.584H10.3718ZM13.0278 9.71602C13.2398 9.71602 13.4198 9.66002 13.5758 9.54402C13.7358 9.42802 13.8398 9.26402 13.8918 9.04802C13.9078 8.96402 13.9158 8.88802 13.9158 8.82402C13.9158 8.68002 13.8718 8.56802 13.7878 8.49202C13.7038 8.41202 13.5558 8.37202 13.3518 8.37202H12.4518L12.1678 9.71602H13.0278Z" fill="white"/>
</g>
</g>
<defs>
<clipPath id="clip0_12526_1502">
<rect width="20" height="20" fill="white"/>
</clipPath>
</defs>
</svg>
