<svg width="24" height="24" viewBox="0 0 24 24" fill="none" xmlns="http://www.w3.org/2000/svg">
<g clip-path="url(#clip0_5016_32874)">
<path d="M12 24C18.6274 24 24 18.6274 24 12C24 5.37258 18.6274 0 12 0C5.37258 0 0 5.37258 0 12C0 18.6274 5.37258 24 12 24Z" fill="#FF0420"/>
<path d="M8.50074 15.1872C7.78554 15.1872 7.19994 15.0192 6.74394 14.6832C6.29274 14.3424 6.06714 13.8528 6.06714 13.224C6.06714 13.0896 6.08154 12.9312 6.11034 12.7392C6.18714 12.3072 6.29754 11.7888 6.44154 11.1792C6.84954 9.52799 7.90554 8.70239 9.60474 8.70239C10.0655 8.70239 10.4831 8.77919 10.8479 8.93759C11.2127 9.08639 11.5007 9.31679 11.7119 9.62399C11.9231 9.92639 12.0287 10.2864 12.0287 10.704C12.0287 10.8288 12.0143 10.9872 11.9855 11.1792C11.8943 11.712 11.7887 12.2352 11.6591 12.7392C11.4479 13.56 11.0879 14.1792 10.5695 14.5872C10.0559 14.9904 9.36474 15.1872 8.50074 15.1872ZM8.63034 13.8912C8.96634 13.8912 9.24954 13.7904 9.48474 13.5936C9.72474 13.3968 9.89754 13.0944 9.99834 12.6816C10.1375 12.1152 10.2431 11.6256 10.3151 11.2032C10.3391 11.0784 10.3535 10.9488 10.3535 10.8144C10.3535 10.2672 10.0703 9.99359 9.49914 9.99359C9.16314 9.99359 8.87514 10.0944 8.63514 10.2912C8.39994 10.488 8.23194 10.7904 8.13114 11.2032C8.02074 11.6064 7.91514 12.096 7.80474 12.6816C7.78074 12.8016 7.76634 12.9264 7.76634 13.0608C7.76154 13.6176 8.05434 13.8912 8.63034 13.8912Z" fill="white"/>
<path d="M12.4464 15.1008C12.3792 15.1008 12.3312 15.0816 12.2928 15.0384C12.264 14.9904 12.2544 14.9376 12.264 14.8752L13.5072 9.01918C13.5168 8.95198 13.5504 8.89918 13.608 8.85598C13.6608 8.81278 13.7184 8.79358 13.7808 8.79358H16.176C16.8432 8.79358 17.376 8.93278 17.7792 9.20638C18.1872 9.48478 18.3936 9.88318 18.3936 10.4064C18.3936 10.5552 18.3744 10.7136 18.3408 10.8768C18.192 11.568 17.8896 12.0768 17.4288 12.408C16.9776 12.7392 16.3584 12.9024 15.5712 12.9024H14.3568L13.944 14.8752C13.9296 14.9424 13.9008 14.9952 13.8432 15.0384C13.7904 15.0816 13.7328 15.1008 13.6704 15.1008H12.4464ZM15.6336 11.6592C15.888 11.6592 16.104 11.592 16.2912 11.4528C16.4832 11.3136 16.608 11.1168 16.6704 10.8576C16.6896 10.7568 16.6992 10.6656 16.6992 10.5888C16.6992 10.416 16.6464 10.2816 16.5456 10.1904C16.4448 10.0944 16.2672 10.0464 16.0224 10.0464H14.9424L14.6016 11.6592H15.6336Z" fill="white"/>
</g>
<defs>
<clipPath id="clip0_5016_32874">
<rect width="24" height="24" fill="white"/>
</clipPath>
</defs>
</svg>
