<svg width="24" height="24" viewBox="0 0 24 24" fill="none" xmlns="http://www.w3.org/2000/svg">
<path d="M11.9953 0C18.6257 0 24 5.37321 24 12.0024C24 18.6315 18.6257 24 12 24C5.36954 24 3.11002e-06 18.6268 3.11002e-06 12.0024C-0.00471944 5.37321 5.36954 0 11.9953 0Z" fill="#8247E5"/>
<path d="M15.9292 9.38658C15.6411 9.22132 15.2728 9.22132 14.9469 9.38658L12.6518 10.7464L11.0933 11.6105L8.84067 12.9656C8.55259 13.1308 8.18423 13.1308 7.85838 12.9656L6.09687 11.8938C5.80879 11.7285 5.60572 11.398 5.60572 11.0297V8.97108C5.60572 8.64056 5.77101 8.31477 6.09687 8.10702L7.85838 7.07771C8.14645 6.91245 8.51481 6.91245 8.84067 7.07771L10.6022 8.14952C10.8903 8.31477 11.0933 8.64529 11.0933 9.01357V10.3734L12.6518 9.46685V8.06925C12.6518 7.73874 12.4865 7.41294 12.1606 7.20519L8.88317 5.26933C8.59509 5.10407 8.22674 5.10407 7.90088 5.26933L4.54315 7.24769C4.21729 7.41294 4.052 7.74346 4.052 8.06925V11.9363C4.052 12.2668 4.21729 12.5926 4.54315 12.8003L7.8631 14.7362C8.15117 14.9014 8.51953 14.9014 8.84539 14.7362L11.098 13.4188L12.6565 12.5123L14.9091 11.195C15.1972 11.0297 15.5656 11.0297 15.8914 11.195L17.6529 12.2243C17.941 12.3895 18.1441 12.72 18.1441 13.0883V15.147C18.1441 15.4775 17.9788 15.8033 17.6529 16.011L15.9339 17.0403C15.6459 17.2056 15.2775 17.2056 14.9516 17.0403L13.1854 16.011C12.8973 15.8458 12.6943 15.5152 12.6943 15.147V13.8296L11.1358 14.7362V16.096C11.1358 16.4265 11.3011 16.7523 11.627 16.9601L14.9469 18.8959C15.235 19.0612 15.6034 19.0612 15.9292 18.8959L19.2492 16.9601C19.5372 16.7948 19.7403 16.4643 19.7403 16.096V12.1865C19.7403 11.856 19.575 11.5302 19.2492 11.3224L15.9292 9.38658Z" fill="white"/>
</svg>
