<svg width="20" height="20" viewBox="0 0 20 20" fill="none" xmlns="http://www.w3.org/2000/svg">
<g id="Icons/Network">
<path id="Vector" d="M9.99606 0C15.5214 0 20 4.47767 20 10.002C20 15.5263 15.5214 20 10 20C4.47462 20 2.59168e-06 15.5223 2.59168e-06 10.002C-0.00393287 4.47767 4.47462 0 9.99606 0Z" fill="#8247E5"/>
<path id="Vector_2" d="M13.2743 7.82216C13.0342 7.68444 12.7272 7.68444 12.4557 7.82216L10.5431 8.95535L9.24436 9.67539L7.36714 10.8046C7.12708 10.9424 6.82011 10.9424 6.54857 10.8046L5.08064 9.91147C4.84058 9.77376 4.67135 9.49833 4.67135 9.19143V7.4759C4.67135 7.20048 4.80909 6.92898 5.08064 6.75586L6.54857 5.8981C6.78863 5.76038 7.09559 5.76038 7.36714 5.8981L8.83507 6.79127C9.07513 6.92898 9.24436 7.20441 9.24436 7.51132V8.64451L10.5431 7.88905V6.72438C10.5431 6.44895 10.4053 6.17746 10.1338 6.00433L7.40256 4.39111C7.1625 4.2534 6.85553 4.2534 6.58399 4.39111L3.78587 6.03974C3.51433 6.17746 3.37659 6.45289 3.37659 6.72438V9.94689C3.37659 10.2223 3.51433 10.4938 3.78587 10.6669L6.5525 12.2802C6.79256 12.4179 7.09953 12.4179 7.37108 12.2802L9.24829 11.1824L10.547 10.4269L12.4242 9.32914C12.6643 9.19143 12.9712 9.19143 13.2428 9.32914L14.7107 10.1869C14.9508 10.3246 15.12 10.6 15.12 10.9069V12.6225C15.12 12.8979 14.9823 13.1694 14.7107 13.3425L13.2782 14.2003C13.0381 14.338 12.7312 14.338 12.4596 14.2003L10.9878 13.3425C10.7477 13.2048 10.5785 12.9294 10.5785 12.6225V11.5247L9.27977 12.2802V13.4133C9.27977 13.6888 9.41751 13.9603 9.68906 14.1334L12.4557 15.7466C12.6958 15.8843 13.0027 15.8843 13.2743 15.7466L16.0409 14.1334C16.281 13.9957 16.4502 13.7202 16.4502 13.4133V10.1554C16.4502 9.88 16.3124 9.6085 16.0409 9.43538L13.2743 7.82216Z" fill="white"/>
</g>
</svg>
