<svg width="24" height="24" viewBox="0 0 24 24" fill="none" xmlns="http://www.w3.org/2000/svg">
<g clip-path="url(#clip0_8577_12642)">
<path d="M12 24C18.6274 24 24 18.6274 24 12C24 5.37258 18.6274 0 12 0C5.37258 0 0 5.37258 0 12C0 18.6274 5.37258 24 12 24Z" fill="black"/>
<g clip-path="url(#clip1_8577_12642)">
<path d="M6.93519 15.0932C7.02571 15.0027 7.15018 14.9499 7.28219 14.9499H19.2535C19.4723 14.9499 19.5817 15.2139 19.427 15.3686L17.0622 17.7334C16.9717 17.8239 16.8472 17.8768 16.7152 17.8768H4.74384C4.52509 17.8768 4.41571 17.6127 4.57035 17.4581L6.93519 15.0932Z" fill="url(#paint0_linear_8577_12642)"/>
<path d="M6.93501 6.26375C7.0293 6.17323 7.15377 6.12042 7.28201 6.12042H19.2533C19.4721 6.12042 19.5815 6.38444 19.4268 6.53908L17.062 8.90393C16.9715 8.99445 16.847 9.04725 16.715 9.04725H4.74366C4.5249 9.04725 4.41552 8.78323 4.57016 8.62859L6.93501 6.26375Z" fill="url(#paint1_linear_8577_12642)"/>
<path d="M17.0622 10.6502C16.9717 10.5597 16.8472 10.5069 16.7152 10.5069H4.74384C4.52509 10.5069 4.41571 10.7709 4.57035 10.9255L6.93519 13.2904C7.02571 13.3809 7.15018 13.4337 7.28219 13.4337H19.2535C19.4723 13.4337 19.5817 13.1697 19.427 13.015L17.0622 10.6502Z" fill="url(#paint2_linear_8577_12642)"/>
</g>
</g>
<defs>
<linearGradient id="paint0_linear_8577_12642" x1="18.1099" y1="4.7077" x2="9.82479" y2="20.577" gradientUnits="userSpaceOnUse">
<stop stop-color="#00FFA3"/>
<stop offset="1" stop-color="#DC1FFF"/>
</linearGradient>
<linearGradient id="paint1_linear_8577_12642" x1="14.487" y1="2.81637" x2="6.2019" y2="18.6857" gradientUnits="userSpaceOnUse">
<stop stop-color="#00FFA3"/>
<stop offset="1" stop-color="#DC1FFF"/>
</linearGradient>
<linearGradient id="paint2_linear_8577_12642" x1="16.287" y1="3.756" x2="8.00191" y2="19.6253" gradientUnits="userSpaceOnUse">
<stop stop-color="#00FFA3"/>
<stop offset="1" stop-color="#DC1FFF"/>
</linearGradient>
<clipPath id="clip0_8577_12642">
<rect width="24" height="24" fill="white"/>
</clipPath>
<clipPath id="clip1_8577_12642">
<rect width="15" height="11.7563" fill="white" transform="translate(4.49866 6.12042)"/>
</clipPath>
</defs>
</svg>
