<svg width="20" height="20" viewBox="0 0 20 20" fill="none" xmlns="http://www.w3.org/2000/svg">
<g clip-path="url(#clip0_12526_1491)">
<path d="M10 20C15.5228 20 20 15.5228 20 10C20 4.47715 15.5228 0 10 0C4.47715 0 0 4.47715 0 10C0 15.5228 4.47715 20 10 20Z" fill="#764EC9"/>
<path fill-rule="evenodd" clip-rule="evenodd" d="M10.4126 6.45888C11.0918 6.45888 11.6423 5.90833 11.6423 5.2292C11.6423 4.55006 11.0918 3.99951 10.4126 3.99951C9.73348 3.99951 9.18298 4.55006 9.18298 5.2292C9.18298 5.90833 9.73348 6.45888 10.4126 6.45888ZM15.9671 9.99939C15.9671 11.3811 14.8471 12.5011 13.4654 12.5011C12.0837 12.5011 10.9636 11.3811 10.9636 9.99939C10.9636 8.61773 12.0837 7.49764 13.4654 7.49764C14.8471 7.49764 15.9671 8.61773 15.9671 9.99939ZM11.6424 14.7694C11.6424 15.4486 11.0918 15.9991 10.4127 15.9991C9.73356 15.9991 9.18306 15.4486 9.18306 14.7694C9.18306 14.0902 9.73356 13.5397 10.4127 13.5397C11.0918 13.5397 11.6424 14.0902 11.6424 14.7694ZM4.11569 6.54381C3.75527 7.49787 4.2641 8.57914 5.21816 8.93956C5.85421 9.17281 6.53265 9.04556 7.02028 8.64273C7.46551 8.32473 8.03795 8.21872 8.58923 8.43073C8.94964 8.55798 9.22523 8.79114 9.41606 9.08798L9.43723 9.1304C9.52206 9.25756 9.64923 9.38481 9.81889 9.42723C10.2005 9.57565 10.6457 9.36356 10.773 8.98198C10.9213 8.60031 10.7093 8.15511 10.3277 8.0279C10.1581 7.9643 9.98848 7.9643 9.81889 8.0279C9.47964 8.13391 9.09806 8.13391 8.73756 8.0067C8.20756 7.8159 7.84713 7.39186 7.69873 6.90423L7.67753 6.86183C7.67753 6.84063 7.67753 6.81943 7.65633 6.81943V6.77702C7.50792 6.18339 7.10509 5.67455 6.49025 5.46254C5.53619 5.08091 4.45491 5.56855 4.11569 6.54381ZM5.21816 11.0595C4.2641 11.4199 3.75527 12.5011 4.11569 13.4552C4.47611 14.4305 5.53619 14.9181 6.49025 14.5365C7.10509 14.3245 7.50792 13.8156 7.65633 13.222V13.1796C7.67753 13.1796 7.67753 13.1584 7.67753 13.1372L7.69873 13.0948C7.84713 12.6071 8.20756 12.1831 8.73756 11.9923C9.09806 11.8651 9.47964 11.8651 9.81889 11.9711C9.98848 12.0347 10.1581 12.0347 10.3277 11.9711C10.7093 11.8439 10.9213 11.3986 10.773 11.0171C10.6457 10.6354 10.2005 10.4234 9.81889 10.5718C9.64923 10.6142 9.52206 10.7414 9.43723 10.8686L9.41606 10.9111C9.22523 11.2079 8.94964 11.4411 8.58923 11.5683C8.03795 11.7803 7.46551 11.6743 7.02028 11.3563C6.53265 10.9535 5.85421 10.8262 5.21816 11.0595Z" fill="white"/>
</g>
<defs>
<clipPath id="clip0_12526_1491">
<rect width="20" height="20" fill="white"/>
</clipPath>
</defs>
</svg>
