<svg width="24" height="24" viewBox="0 0 24 24" fill="none" xmlns="http://www.w3.org/2000/svg">
<g clip-path="url(#clip0_12531_1450)">
<path d="M12 24C18.6274 24 24 18.6274 24 12C24 5.37258 18.6274 0 12 0C5.37258 0 0 5.37258 0 12C0 18.6274 5.37258 24 12 24Z" fill="white"/>
<path fill-rule="evenodd" clip-rule="evenodd" d="M12 20.25C16.5564 20.25 20.25 16.5564 20.25 12C20.25 7.44364 16.5564 3.75 12 3.75C7.44364 3.75 3.75 7.44364 3.75 12C3.75 16.5564 7.44364 20.25 12 20.25ZM12 24C18.6274 24 24 18.6274 24 12C24 5.37259 18.6274 0 12 0C5.37259 0 0 5.37259 0 12C0 18.6274 5.37259 24 12 24Z" fill="#006EFF"/>
<path fill-rule="evenodd" clip-rule="evenodd" d="M12.5879 8.3826C13.2459 8.3826 13.7792 7.84924 13.7792 7.1913C13.7792 6.53336 13.2459 6 12.5879 6C11.93 6 11.3966 6.53336 11.3966 7.1913C11.3966 7.84924 11.93 8.3826 12.5879 8.3826ZM17.9691 11.8126C17.9691 13.1512 16.884 14.2363 15.5454 14.2363C14.2068 14.2363 13.1217 13.1512 13.1217 11.8126C13.1217 10.474 14.2068 9.38891 15.5454 9.38891C16.884 9.38891 17.9691 10.474 17.9691 11.8126ZM13.7793 16.4337C13.7793 17.0916 13.246 17.625 12.5881 17.625C11.9301 17.625 11.3968 17.0916 11.3968 16.4337C11.3968 15.7758 11.9301 15.2424 12.5881 15.2424C13.246 15.2424 13.7793 15.7758 13.7793 16.4337ZM6.48755 8.46491C6.13838 9.38917 6.63136 10.4367 7.55562 10.7859C8.17182 11.0118 8.82908 10.8886 9.30151 10.4983C9.73283 10.1902 10.2874 10.0875 10.8214 10.2929C11.1706 10.4161 11.4376 10.6421 11.6225 10.9296L11.643 10.9707C11.7252 11.094 11.8484 11.2172 12.0127 11.2583C12.3824 11.4021 12.8138 11.1967 12.937 10.827C13.0808 10.4573 12.8754 10.0259 12.5057 9.90266C12.3414 9.84105 12.177 9.84105 12.0127 9.90266C11.6841 10.0054 11.3144 10.0054 10.9652 9.88211C10.4517 9.69728 10.1025 9.2865 9.95877 8.81407L9.93822 8.77297C9.93822 8.75246 9.93822 8.73191 9.91767 8.73191V8.69085C9.7739 8.11571 9.38363 7.62277 8.78798 7.41739C7.86372 7.04767 6.8162 7.52006 6.48755 8.46491ZM7.55562 12.8396C6.63136 13.1888 6.13838 14.2363 6.48755 15.1605C6.83675 16.1054 7.86372 16.5778 8.78798 16.2081C9.38363 16.0027 9.7739 15.5097 9.91767 14.9346V14.8935C9.93822 14.8935 9.93822 14.873 9.93822 14.8524L9.95877 14.8114C10.1025 14.339 10.4517 13.9282 10.9652 13.7433C11.3144 13.6201 11.6841 13.6201 12.0127 13.7228C12.177 13.7844 12.3414 13.7844 12.5057 13.7228C12.8754 13.5995 13.0808 13.1682 12.937 12.7985C12.8138 12.4288 12.3824 12.2234 12.0127 12.3672C11.8484 12.4082 11.7252 12.5315 11.643 12.6547L11.6225 12.6958C11.4376 12.9834 11.1706 13.2093 10.8214 13.3325C10.2874 13.5379 9.73283 13.4352 9.30151 13.1271C8.82908 12.7369 8.17182 12.6137 7.55562 12.8396Z" fill="#006EFF"/>
</g>
<defs>
<clipPath id="clip0_12531_1450">
<rect width="24" height="24" fill="white"/>
</clipPath>
</defs>
</svg>
