<svg width="16" height="16" viewBox="0 0 16 16" fill="none" xmlns="http://www.w3.org/2000/svg">
<g clip-path="url(#clip0_12534_1454)">
<path d="M8 14C11.3137 14 14 11.3137 14 8C14 4.68629 11.3137 2 8 2C4.68629 2 2 4.68629 2 8C2 11.3137 4.68629 14 8 14Z" fill="white"/>
<path fill-rule="evenodd" clip-rule="evenodd" d="M8 13.5C11.0376 13.5 13.5 11.0376 13.5 8C13.5 4.96242 11.0376 2.5 8 2.5C4.96242 2.5 2.5 4.96242 2.5 8C2.5 11.0376 4.96242 13.5 8 13.5ZM8 16C12.4183 16 16 12.4183 16 8C16 3.58173 12.4183 0 8 0C3.58173 0 0 3.58173 0 8C0 12.4183 3.58173 16 8 16Z" fill="#006EFF"/>
<path fill-rule="evenodd" clip-rule="evenodd" d="M8.39195 5.5884C8.83058 5.5884 9.18615 5.23282 9.18615 4.7942C9.18615 4.35557 8.83058 4 8.39195 4C7.95333 4 7.59776 4.35557 7.59776 4.7942C7.59776 5.23282 7.95333 5.5884 8.39195 5.5884ZM11.9794 7.87507C11.9794 8.76745 11.256 9.49085 10.3636 9.49085C9.47123 9.49085 8.74783 8.76745 8.74783 7.87507C8.74783 6.9827 9.47123 6.25927 10.3636 6.25927C11.256 6.25927 11.9794 6.9827 11.9794 7.87507ZM9.18623 10.9558C9.18623 11.3944 8.83066 11.75 8.39206 11.75C7.95343 11.75 7.59786 11.3944 7.59786 10.9558C7.59786 10.5172 7.95343 10.1616 8.39206 10.1616C8.83066 10.1616 9.18623 10.5172 9.18623 10.9558ZM4.32503 5.64327C4.09226 6.25945 4.42091 6.9578 5.03708 7.19058C5.44788 7.3412 5.88606 7.25905 6.20101 6.99888C6.48856 6.79348 6.85826 6.72502 7.21428 6.86195C7.44706 6.9441 7.62508 7.09473 7.74831 7.28643L7.76201 7.31383C7.81678 7.39598 7.89893 7.47813 8.00848 7.50553C8.25496 7.60138 8.54251 7.46445 8.62468 7.21798C8.72053 6.9715 8.58358 6.68395 8.33711 6.60178C8.22758 6.5607 8.11803 6.5607 8.00848 6.60178C7.78938 6.67025 7.54291 6.67025 7.31013 6.58808C6.96781 6.46485 6.73503 6.191 6.63918 5.87605L6.62548 5.84865C6.62548 5.83497 6.62548 5.82128 6.61178 5.82128V5.7939C6.51593 5.41048 6.25576 5.08185 5.85866 4.94492C5.24248 4.69845 4.54413 5.01337 4.32503 5.64327ZM5.03708 8.5597C4.42091 8.7925 4.09226 9.49085 4.32503 10.107C4.55783 10.7369 5.24248 11.0519 5.85866 10.8054C6.25576 10.6685 6.51593 10.3398 6.61178 9.9564V9.92902C6.62548 9.92902 6.62548 9.91532 6.62548 9.90162L6.63918 9.87425C6.73503 9.5593 6.96781 9.28545 7.31013 9.1622C7.54291 9.08005 7.78938 9.08005 8.00848 9.14853C8.11803 9.1896 8.22758 9.1896 8.33711 9.14853C8.58358 9.06635 8.72053 8.7788 8.62468 8.53232C8.54251 8.28585 8.25496 8.14892 8.00848 8.24477C7.89893 8.27215 7.81678 8.35432 7.76201 8.43647L7.74831 8.46385C7.62508 8.65558 7.44706 8.80617 7.21428 8.88835C6.85826 9.02527 6.48856 8.9568 6.20101 8.75142C5.88606 8.49125 5.44788 8.4091 5.03708 8.5597Z" fill="#006EFF"/>
</g>
<defs>
<clipPath id="clip0_12534_1454">
<rect width="16" height="16" fill="white"/>
</clipPath>
</defs>
</svg>
