<svg width="20" height="20" viewBox="0 0 20 20" fill="none" xmlns="http://www.w3.org/2000/svg">
<g clip-path="url(#clip0_12534_1454)">
<path d="M10 17.5C14.1421 17.5 17.5 14.1421 17.5 10C17.5 5.85786 14.1421 2.5 10 2.5C5.85786 2.5 2.5 5.85786 2.5 10C2.5 14.1421 5.85786 17.5 10 17.5Z" fill="white"/>
<path fill-rule="evenodd" clip-rule="evenodd" d="M10 16.875C13.797 16.875 16.875 13.797 16.875 10C16.875 6.20303 13.797 3.125 10 3.125C6.20303 3.125 3.125 6.20303 3.125 10C3.125 13.797 6.20303 16.875 10 16.875ZM10 20C15.5228 20 20 15.5228 20 10C20 4.47716 15.5228 0 10 0C4.47716 0 0 4.47716 0 10C0 15.5228 4.47716 20 10 20Z" fill="#006EFF"/>
<path fill-rule="evenodd" clip-rule="evenodd" d="M10.4899 6.9855C11.0382 6.9855 11.4827 6.54103 11.4827 5.99275C11.4827 5.44447 11.0382 5 10.4899 5C9.94166 5 9.49719 5.44447 9.49719 5.99275C9.49719 6.54103 9.94166 6.9855 10.4899 6.9855ZM14.9742 9.84384C14.9742 10.9593 14.07 11.8636 12.9545 11.8636C11.839 11.8636 10.9348 10.9593 10.9348 9.84384C10.9348 8.72837 11.839 7.82409 12.9545 7.82409C14.07 7.82409 14.9742 8.72837 14.9742 9.84384ZM11.4828 13.6948C11.4828 14.243 11.0383 14.6875 10.4901 14.6875C9.94179 14.6875 9.49732 14.243 9.49732 13.6948C9.49732 13.1465 9.94179 12.702 10.4901 12.702C11.0383 12.702 11.4828 13.1465 11.4828 13.6948ZM5.40629 7.05409C5.11532 7.82431 5.52613 8.69725 6.29635 8.98822C6.80985 9.1765 7.35757 9.07381 7.75126 8.74859C8.11069 8.49184 8.57282 8.40628 9.01785 8.57744C9.30882 8.68012 9.53135 8.86841 9.68538 9.10803L9.70251 9.14228C9.77098 9.24497 9.87366 9.34766 10.0106 9.38191C10.3187 9.50172 10.6781 9.33056 10.7809 9.02247C10.9007 8.71438 10.7295 8.35494 10.4214 8.25222C10.2845 8.20088 10.1475 8.20088 10.0106 8.25222C9.73673 8.33781 9.42863 8.33781 9.13766 8.23509C8.70976 8.08106 8.41879 7.73875 8.29898 7.34506L8.28185 7.31081C8.28185 7.29372 8.28185 7.27659 8.26473 7.27659V7.24238C8.14491 6.76309 7.81969 6.35231 7.32332 6.18116C6.5531 5.87306 5.68016 6.26672 5.40629 7.05409ZM6.29635 10.6996C5.52613 10.9906 5.11532 11.8636 5.40629 12.6338C5.69729 13.4211 6.5531 13.8148 7.32332 13.5067C7.81969 13.3356 8.14491 12.9247 8.26473 12.4455V12.4113C8.28185 12.4113 8.28185 12.3942 8.28185 12.377L8.29898 12.3428C8.41879 11.9491 8.70976 11.6068 9.13766 11.4527C9.42863 11.3501 9.73673 11.3501 10.0106 11.4357C10.1475 11.487 10.2845 11.487 10.4214 11.4357C10.7295 11.3329 10.9007 10.9735 10.7809 10.6654C10.6781 10.3573 10.3187 10.1862 10.0106 10.306C9.87366 10.3402 9.77098 10.4429 9.70251 10.5456L9.68538 10.5798C9.53135 10.8195 9.30882 11.0077 9.01785 11.1104C8.57282 11.2816 8.11069 11.196 7.75126 10.9393C7.35757 10.6141 6.80985 10.5114 6.29635 10.6996Z" fill="#006EFF"/>
</g>
<defs>
<clipPath id="clip0_12534_1454">
<rect width="20" height="20" fill="white"/>
</clipPath>
</defs>
</svg>
