<svg width="14" height="14" viewBox="0 0 14 14" fill="none" xmlns="http://www.w3.org/2000/svg">
<circle cx="7" cy="7" r="5.6875" fill="white"/>
<path fill-rule="evenodd" clip-rule="evenodd" d="M7 11.8125C9.65787 11.8125 11.8125 9.65787 11.8125 7C11.8125 4.34213 9.65787 2.1875 7 2.1875C4.34213 2.1875 2.1875 4.34213 2.1875 7C2.1875 9.65787 4.34213 11.8125 7 11.8125ZM7 14C10.866 14 14 10.866 14 7C14 3.13401 10.866 0 7 0C3.13401 0 0 3.13401 0 7C0 10.866 3.13401 14 7 14Z" fill="#006EFF"/>
<path fill-rule="evenodd" clip-rule="evenodd" d="M7.34295 4.88985C7.72675 4.88985 8.03788 4.57872 8.03788 4.19492C8.03788 3.81113 7.72675 3.5 7.34295 3.5C6.95916 3.5 6.64803 3.81113 6.64803 4.19492C6.64803 4.57872 6.95916 4.88985 7.34295 4.88985ZM10.482 6.89068C10.482 7.6715 9.84899 8.30449 9.06816 8.30449C8.28734 8.30449 7.65435 7.6715 7.65435 6.89068C7.65435 6.10985 8.28734 5.47687 9.06816 5.47687C9.84899 5.47687 10.482 6.10985 10.482 6.89068ZM8.03796 9.58634C8.03796 9.97014 7.72683 10.2813 7.34303 10.2813C6.95924 10.2813 6.64811 9.97014 6.64811 9.58634C6.64811 9.20255 6.95924 8.89142 7.34303 8.89142C7.72683 8.89142 8.03796 9.20255 8.03796 9.58634ZM3.78441 4.93784C3.58072 5.47701 3.86828 6.08806 4.40744 6.29175C4.76689 6.42354 5.15029 6.35166 5.42586 6.12401C5.67747 5.94429 6.00097 5.88438 6.31249 6.00419C6.51618 6.07608 6.67194 6.20788 6.77977 6.37562L6.79175 6.39958C6.83967 6.47147 6.91156 6.54336 7.00742 6.56732C7.22308 6.65119 7.47469 6.53138 7.54658 6.31571C7.63045 6.10004 7.51064 5.84843 7.29497 5.77655C7.19912 5.7406 7.10327 5.7406 7.00742 5.77655C6.81571 5.83645 6.60005 5.83645 6.39636 5.76456C6.09683 5.65673 5.89314 5.4171 5.80927 5.14153L5.79729 5.11757C5.79729 5.10558 5.79729 5.0936 5.78531 5.0936V5.06964C5.70144 4.73416 5.47379 4.44661 5.12633 4.32679C4.58716 4.11112 3.97611 4.3867 3.78441 4.93784ZM4.40744 7.48974C3.86828 7.69343 3.58072 8.30448 3.78441 8.84365C3.98809 9.39479 4.58716 9.67036 5.12633 9.4547C5.47379 9.33488 5.70144 9.04733 5.78531 8.71185V8.68789C5.79729 8.68789 5.79729 8.67591 5.79729 8.66392L5.80927 8.63996C5.89314 8.36439 6.09683 8.12476 6.39636 8.01693C6.60005 7.94504 6.81571 7.94504 7.00742 8.00494C7.10327 8.04089 7.19912 8.04089 7.29497 8.00494C7.51064 7.93306 7.63045 7.68145 7.54658 7.46578C7.47469 7.25011 7.22308 7.1303 7.00742 7.21417C6.91156 7.23813 6.83967 7.31002 6.79175 7.38191L6.77977 7.40587C6.67194 7.57361 6.51618 7.70541 6.31249 7.7773C6.00097 7.89711 5.67747 7.8372 5.42586 7.65748C5.15029 7.42984 4.76689 7.35795 4.40744 7.48974Z" fill="#006EFF"/>
</svg>
