<svg width="16" height="16" viewBox="0 0 16 16" fill="none" xmlns="http://www.w3.org/2000/svg">
<path d="M8 16C12.4183 16 16 12.4183 16 8C16 3.58171 12.4183 0 8 0C3.58171 0 0 3.58171 0 8C0 12.4183 3.58171 16 8 16Z" fill="#0098EA"/>
<path d="M10.7315 4.46506H5.26818C4.26366 4.46506 3.62698 5.54863 4.13235 6.4246L7.50412 12.2688C7.72415 12.6504 8.27555 12.6504 8.49558 12.2688L11.868 6.4246C12.3727 5.55003 11.736 4.46506 10.7322 4.46506H10.7315ZM7.50138 10.5162L6.76706 9.09506L4.99523 5.92611C4.87835 5.72329 5.02272 5.46337 5.26749 5.46337H7.50069V10.5169L7.50138 10.5162ZM11.0031 5.92543L9.23195 9.09574L8.49764 10.5162V5.46269H10.7308C10.9756 5.46269 11.12 5.7226 11.0031 5.92543Z" fill="white"/>
</svg>
