<svg width="20" height="20" viewBox="0 0 20 20" fill="none" xmlns="http://www.w3.org/2000/svg">
<g clip-path="url(#clip0_12526_1495)">
<mask id="mask0_12526_1495" style="mask-type:luminance" maskUnits="userSpaceOnUse" x="0" y="0" width="20" height="20">
<path d="M20 0H0V20H20V0Z" fill="white"/>
</mask>
<g mask="url(#mask0_12526_1495)">
<path d="M10 20C15.5228 20 20 15.5228 20 10C20 4.47714 15.5228 0 10 0C4.47714 0 0 4.47714 0 10C0 15.5228 4.47714 20 10 20Z" fill="#0098EA"/>
<path d="M13.4144 5.5813H6.58516C5.32952 5.5813 4.53366 6.93577 5.16538 8.03072L9.38011 15.336C9.65511 15.813 10.3444 15.813 10.6194 15.336L14.8349 8.03072C15.4659 6.93752 14.6699 5.5813 13.4152 5.5813H13.4144ZM9.3767 13.1452L8.45878 11.3688L6.24398 7.40762C6.09788 7.15408 6.27834 6.82919 6.58431 6.82919H9.37578V13.1462L9.3767 13.1452ZM13.7538 7.40677L11.5399 11.3697L10.6219 13.1452V6.82833H13.4134C13.7194 6.82833 13.8999 7.15323 13.7538 7.40677Z" fill="white"/>
</g>
</g>
<defs>
<clipPath id="clip0_12526_1495">
<rect width="20" height="20" fill="white"/>
</clipPath>
</defs>
</svg>
