<svg width="20" height="20" viewBox="0 0 20 20" fill="none" xmlns="http://www.w3.org/2000/svg">
<g id="Icons/Network">
<path id="Ellipse 2662" d="M20.0022 10.0011C20.0022 15.5246 15.5246 20.0022 10.0011 20.0022C4.47766 20.0022 0 15.5246 0 10.0011C0 4.47766 4.47766 0 10.0011 0C15.5246 0 20.0022 4.47766 20.0022 10.0011Z" fill="#FF060A"/>
<path id="Vector" d="M15.3504 8.23674C14.8079 7.73582 14.0574 6.97087 13.4461 6.42835L13.41 6.40303C13.3498 6.3547 13.2819 6.31681 13.2092 6.29091C11.7354 6.01603 4.87615 4.73388 4.74233 4.75015C4.70483 4.75541 4.66899 4.769 4.63744 4.78994L4.60308 4.81706C4.56077 4.86003 4.52864 4.91194 4.50904 4.96897L4.5 4.99248V5.12088V5.14077C5.27219 7.29095 8.32114 14.3347 8.92153 15.9875C8.9577 16.0997 9.02642 16.313 9.15482 16.3239H9.18375C9.25247 16.3239 9.54543 15.9369 9.54543 15.9369C9.54543 15.9369 14.7825 9.58581 15.3124 8.90947C15.381 8.82616 15.4415 8.73654 15.4932 8.64183C15.5064 8.56772 15.5002 8.49145 15.4752 8.42046C15.4502 8.34947 15.4072 8.28618 15.3504 8.23674ZM10.8891 8.97638L13.1242 7.12277L14.4353 8.33078L10.8891 8.97638ZM10.021 8.85522L6.17277 5.70137L12.3991 6.8497L10.021 8.85522ZM10.3683 9.68165L14.3069 9.04691L9.80403 14.4721L10.3683 9.68165ZM5.65014 6.01603L9.69914 9.45199L9.11322 14.4757L5.65014 6.01603Z" fill="white"/>
</g>
</svg>
