<svg width="24" height="24" viewBox="0 0 24 24" fill="none" xmlns="http://www.w3.org/2000/svg">
<path d="M24.0027 12.0013C24.0027 18.6295 18.6295 24.0027 12.0013 24.0027C5.37319 24.0027 0 18.6295 0 12.0013C0 5.37319 5.37319 0 12.0013 0C18.6295 0 24.0027 5.37319 24.0027 12.0013Z" fill="#FF060A"/>
<path d="M18.4205 9.88411C17.7695 9.28299 16.8689 8.36505 16.1354 7.71403L16.092 7.68365C16.0198 7.62566 15.9384 7.58018 15.8511 7.5491C14.0825 7.21925 5.8514 5.68067 5.69081 5.7002C5.64582 5.7065 5.60281 5.72281 5.56495 5.74794L5.52372 5.78049C5.47295 5.83205 5.43439 5.89434 5.41087 5.96278L5.40002 5.99099V6.14506V6.16893C6.32665 8.74915 9.9854 17.2016 10.7059 19.1851C10.7493 19.3196 10.8317 19.5757 10.9858 19.5887H11.0205C11.103 19.5887 11.4545 19.1243 11.4545 19.1243C11.4545 19.1243 17.7391 11.503 18.3749 10.6914C18.4572 10.5914 18.5299 10.4839 18.5919 10.3702C18.6078 10.2813 18.6003 10.1898 18.5702 10.1046C18.5402 10.0194 18.4886 9.94343 18.4205 9.88411ZM13.0669 10.7717L15.7491 8.54734L17.3224 9.99695L13.0669 10.7717ZM12.0253 10.6263L7.40735 6.84166L14.8789 8.21966L12.0253 10.6263ZM12.4419 11.618L17.1684 10.8563L11.7649 17.3665L12.4419 11.618ZM6.78019 7.21925L11.639 11.3424L10.9359 17.3709L6.78019 7.21925Z" fill="white"/>
</svg>
