<svg width="10" height="12" viewBox="0 0 10 12" fill="none" xmlns="http://www.w3.org/2000/svg">
<g id="Group">
<path id="Vector" d="M1.39629 5.9991L1.40206 8.11425L3.19929 9.17182V10.4101L0.350251 8.73918V5.38058L1.39629 5.9991ZM1.39629 3.88395V5.11651L0.349609 4.49735V3.26479L1.39629 2.64563L2.44809 3.26479L1.39629 3.88395ZM3.94985 3.26479L4.99652 2.64563L6.04833 3.26479L4.99652 3.88395L3.94985 3.26479Z" fill="white"/>
<path id="Vector_2" d="M2.15259 7.67584V6.43751L3.19927 7.05667V8.28923L2.15259 7.67584ZM3.94982 9.61536L4.9965 10.2345L6.0483 9.61536V10.8479L4.9965 11.4671L3.94982 10.8479V9.61536ZM7.54942 3.26479L8.59609 2.64563L9.6479 3.26479V4.49735L8.59609 5.11651V3.88395L7.54942 3.26479ZM8.59609 8.11425L8.60186 5.9991L9.64854 5.37994V8.73854L6.7995 10.4095V9.17118L8.59609 8.11425Z" fill="white"/>
<path id="Vector_3" d="M7.84557 7.67584L6.79889 8.28923V7.05667L7.84557 6.43751V7.67584Z" fill="white"/>
<path id="Vector_4" d="M7.84554 4.32237L7.85131 5.56069L6.04894 6.61826V8.73854L5.00227 9.35193L3.95559 8.73854V6.61826L2.15323 5.56069V4.32237L3.20439 3.70321L4.99586 4.76591L6.79822 3.70321L7.85002 4.32237H7.84554ZM2.15259 2.20786L4.9965 0.531126L7.84554 2.20786L6.79886 2.82702L4.9965 1.76432L3.19927 2.82702L2.15259 2.20786Z" fill="white"/>
</g>
</svg>
