<svg width="16" height="16" viewBox="0 0 16 16" fill="none" xmlns="http://www.w3.org/2000/svg">
<g id="Frame 1312318922">
<path id="Vector" d="M13.5655 2.9343C13.5611 2.92568 13.5537 2.91893 13.5447 2.91525C12.5074 2.43929 11.4126 2.0999 10.288 1.90556C10.2777 1.90366 10.2672 1.90503 10.2578 1.90947C10.2484 1.91392 10.2406 1.92121 10.2356 1.93032C10.0866 2.20087 9.95124 2.47878 9.83018 2.76297C8.61784 2.57894 7.38466 2.57894 6.17232 2.76297C6.05046 2.47806 5.91297 2.20008 5.76048 1.93032C5.75525 1.92141 5.74746 1.91428 5.73812 1.90987C5.72878 1.90545 5.71833 1.90395 5.70813 1.90556C4.58333 2.09949 3.48853 2.43891 2.4513 2.91527C2.44242 2.91904 2.43493 2.92547 2.42986 2.93367C0.355589 6.03131 -0.21263 9.05279 0.0661189 12.0369C0.0669031 12.0442 0.06915 12.0513 0.0727261 12.0577C0.0763022 12.0641 0.0811344 12.0698 0.0869353 12.0743C1.29476 12.9686 2.64573 13.6512 4.08219 14.093C4.0923 14.0961 4.10311 14.0959 4.11314 14.0926C4.12318 14.0894 4.13197 14.0831 4.13832 14.0746C4.44684 13.6548 4.72022 13.2103 4.95566 12.7456C4.9589 12.7392 4.96074 12.7322 4.96108 12.7251C4.96142 12.7179 4.96024 12.7108 4.95762 12.7042C4.955 12.6975 4.951 12.6915 4.94588 12.6865C4.94076 12.6815 4.93465 12.6776 4.92793 12.6752C4.49684 12.5102 4.0795 12.3114 3.67982 12.0805C3.67256 12.0763 3.66646 12.0703 3.66206 12.0631C3.65767 12.0559 3.65511 12.0478 3.65461 12.0393C3.65411 12.0309 3.65569 12.0225 3.65921 12.0149C3.66273 12.0072 3.66808 12.0006 3.67478 11.9955C3.75865 11.9326 3.84257 11.8673 3.92265 11.8013C3.92976 11.7954 3.93837 11.7916 3.94751 11.7904C3.95664 11.7892 3.96594 11.7905 3.97435 11.7943C6.59284 12.9893 9.4277 12.9893 12.0152 11.7943C12.0236 11.7903 12.033 11.7888 12.0423 11.7899C12.0516 11.791 12.0603 11.7947 12.0675 11.8006C12.1477 11.8667 12.2315 11.9326 12.316 11.9955C12.3228 12.0005 12.3282 12.0071 12.3318 12.0148C12.3353 12.0224 12.337 12.0308 12.3365 12.0392C12.3361 12.0476 12.3336 12.0558 12.3293 12.063C12.3249 12.0702 12.3189 12.0762 12.3116 12.0805C11.9129 12.3133 11.4951 12.512 11.0629 12.6745C11.0562 12.6771 11.0501 12.681 11.045 12.6861C11.0399 12.6912 11.036 12.6973 11.0334 12.704C11.0309 12.7107 11.0297 12.7179 11.0301 12.725C11.0305 12.7322 11.0324 12.7392 11.0357 12.7456C11.2751 13.2077 11.5481 13.6517 11.8524 14.0739C11.8586 14.0826 11.8673 14.0891 11.8774 14.0925C11.8875 14.0959 11.8984 14.0961 11.9086 14.0929C13.3476 13.6526 14.7009 12.9699 15.9103 12.0743C15.9161 12.07 15.921 12.0645 15.9246 12.0581C15.9282 12.0518 15.9304 12.0447 15.9311 12.0375C16.2648 8.58759 15.3724 5.59088 13.5655 2.9343ZM5.34671 10.2199C4.55835 10.2199 3.90877 9.49641 3.90877 8.60792C3.90877 7.71943 4.54575 6.99592 5.34671 6.99592C6.15392 6.99592 6.79722 7.72571 6.78462 8.60787C6.78462 9.49641 6.14761 10.2199 5.34671 10.2199ZM10.6632 10.2199C9.87486 10.2199 9.22528 9.49641 9.22528 8.60792C9.22528 7.71943 9.86226 6.99592 10.6632 6.99592C11.4705 6.99592 12.1137 7.72571 12.1011 8.60787C12.1011 9.49641 11.4705 10.2199 10.6632 10.2199Z" fill="#55585E"/>
</g>
</svg>
