<svg width="12" height="12" viewBox="0 0 12 12" fill="none" xmlns="http://www.w3.org/2000/svg">
<g id="Frame 1312318922">
<path id="Vector" d="M10.1741 2.20077C10.1708 2.1943 10.1653 2.18924 10.1585 2.18648C9.38052 1.82951 8.55947 1.57497 7.71596 1.42921C7.7083 1.42779 7.70038 1.42882 7.69334 1.43215C7.68629 1.43548 7.68048 1.44096 7.67672 1.44778C7.56492 1.6507 7.46343 1.85913 7.37264 2.07228C6.46338 1.93425 5.5385 1.93425 4.62924 2.07228C4.53784 1.85859 4.43473 1.65011 4.32036 1.44778C4.31644 1.4411 4.31059 1.43576 4.30359 1.43245C4.29659 1.42913 4.28875 1.42801 4.28109 1.42921C3.43749 1.57466 2.6164 1.82923 1.83847 2.1865C1.83181 2.18932 1.82619 2.19415 1.82239 2.2003C0.266692 4.52353 -0.159473 6.78964 0.0495892 9.02769C0.0501773 9.03317 0.0518625 9.03849 0.0545446 9.04331C0.0572266 9.04813 0.0608508 9.05236 0.0652015 9.05575C0.971071 9.72648 1.9843 10.2385 3.06164 10.5698C3.06923 10.5721 3.07733 10.572 3.08486 10.5695C3.09238 10.5671 3.09897 10.5623 3.10374 10.556C3.33513 10.2412 3.54016 9.90779 3.71674 9.55924C3.71917 9.55446 3.72056 9.54922 3.72081 9.54386C3.72106 9.5385 3.72018 9.53315 3.71821 9.52816C3.71625 9.52317 3.71325 9.51865 3.70941 9.51491C3.70557 9.51116 3.70098 9.50827 3.69595 9.50643C3.37263 9.38272 3.05963 9.23359 2.75986 9.06044C2.75442 9.05724 2.74985 9.05275 2.74655 9.04736C2.74325 9.04198 2.74133 9.03586 2.74096 9.02955C2.74058 9.02325 2.74177 9.01695 2.74441 9.01121C2.74705 9.00547 2.75106 9.00047 2.75609 8.99665C2.81899 8.94953 2.88193 8.90051 2.94199 8.851C2.94732 8.8466 2.95378 8.84378 2.96063 8.84286C2.96748 8.84194 2.97445 8.84294 2.98076 8.84577C4.94463 9.74204 7.07078 9.74204 9.0114 8.84577C9.01772 8.84276 9.02477 8.84162 9.03172 8.84246C9.03867 8.8433 9.04524 8.8461 9.05066 8.85053C9.11074 8.90004 9.17366 8.94953 9.23703 8.99665C9.24209 9.00043 9.24613 9.0054 9.24881 9.01112C9.25149 9.01683 9.25273 9.02312 9.2524 9.02943C9.25207 9.03574 9.2502 9.04186 9.24694 9.04727C9.24368 9.05268 9.23914 9.05721 9.23372 9.06044C8.93464 9.23505 8.62135 9.38408 8.29719 9.50596C8.29216 9.50787 8.28758 9.51083 8.28377 9.51463C8.27996 9.51844 8.27699 9.523 8.27506 9.52803C8.27314 9.53306 8.27229 9.53844 8.27259 9.54382C8.27289 9.5492 8.27431 9.55445 8.27678 9.55924C8.45632 9.90585 8.66105 10.2388 8.88931 10.5555C8.89395 10.562 8.90051 10.5668 8.90806 10.5694C8.91562 10.572 8.92379 10.5721 8.93142 10.5698C10.0107 10.2395 11.0257 9.72749 11.9327 9.05575C11.9371 9.05253 11.9408 9.0484 11.9435 9.04364C11.9462 9.03888 11.9478 9.0336 11.9483 9.02816C12.1986 6.44074 11.5293 4.1932 10.1741 2.20077ZM4.01003 7.66495C3.41876 7.66495 2.93158 7.12236 2.93158 6.45599C2.93158 5.78962 3.40932 5.24698 4.01003 5.24698C4.61544 5.24698 5.09791 5.79433 5.08846 6.45595C5.08846 7.12236 4.61071 7.66495 4.01003 7.66495ZM7.99739 7.66495C7.40615 7.66495 6.91896 7.12236 6.91896 6.45599C6.91896 5.78962 7.3967 5.24698 7.99739 5.24698C8.60284 5.24698 9.08529 5.79433 9.07585 6.45595C9.07585 7.12236 8.60284 7.66495 7.99739 7.66495Z" fill="#808080"/>
</g>
</svg>
